<svg xmlns="http://www.w3.org/2000/svg" width="5898.667" height="5898.667" viewBox="0 0 4424 4424"><path d="M1091.2 245.3c-1.7 2.2 2.5 46.4 4.7 49.1.5.6 2.3 6.1 4 12.3 1.8 6.1 3.8 12.4 4.5 14 .8 1.5 2.2 4.6 3.2 6.8 2.9 6.3 14.2 24.4 19 30.5 4.8 6 6 7.6 10.1 13.2 1.6 2.1 3.4 3.7 4.1 3.8.6 0 1.2.6 1.2 1.4 0 1.9 20.4 20.8 34 31.6 6.3 5 17.6 13.1 25 18 7.4 5 15.5 10.4 18 12.1 2.5 1.6 7.4 4.8 11 7.1 8 5.1 44.7 29.6 51.5 34.5 12.5 9 56.6 47.1 65 56.2 2.2 2.4 5.7 6.2 7.8 8.3 2 2.2 3.7 4.3 3.7 4.6 0 .4 1.8 2.5 4 4.7 2.1 2.2 3.9 4.3 4 4.8 0 .4 1 2.4 2.3 4.5 1.3 2 2.8 5.6 3.4 7.9l1.1 4.2-3-1.5c-1.6-.8-3.2-2.2-3.5-3-.3-.7-1-1.4-1.6-1.4s-4.5-3.5-8.7-7.8c-15-15.1-31.3-27.2-62.3-46.1-8-4.9-39.9-21.2-72.2-36.9-45.7-22.1-65.5-34.4-94.2-58.6-4-3.4-10.2-8.4-13.9-11.1-3.6-2.8-24.5-22.8-46.3-44.5-38.3-38.1-52.2-51-65.4-60.4-27.3-19.4-70-39-94-43.1-5.1-.9-11.6-2-14.6-2.5-3-.6-7.2-1-9.3-1s-3.8-.3-3.8-.8c0-.4-1.2-.8-2.7-.8-1.6-.1-5.8-.4-9.4-.7-7.3-.6-7.9-.4-9.6 3.5-1.2 2.6-1.1 2.8 1.5 3.4 5.4 1.1 19.2 5.7 19.2 6.3 0 .4 1.7 1.3 3.8 2.1 2 .7 5.3 2.3 7.2 3.5s8.7 5.3 15 9c25.3 14.9 52.6 39 73.5 64.6 7.8 9.6 16.3 21.8 19.6 28.1 7.5 14.2 12.2 24.5 14 30.6 1.2 4 2.7 7.9 3.5 8.7.8.7 2.3 6.2 3.4 12.2 3.4 18.6 4.1 21.1 5.6 21.7 1 .4 1.4 2.3 1.4 6.8 0 3.5.8 15.3 1.7 26.3 2.1 23.9 2.4 65.4.5 86.5-.7 8-1.6 21.2-2.1 29.5-.6 10.4-1.4 16-2.5 18.1-1.6 3.1-3.9 20.6-5.6 42.7-.5 6.5-1.4 12.5-2 13.2-2 2.4-3.1 22.4-3.2 56 0 36.3 1 55 3 56.5.4.3.9 3.7 1.1 7.6.2 5.4-.1 7.3-1.3 8.3-2 1.7-4.6-.1-4.6-3 0-1.1-.5-1.9-1.1-1.9-.5 0-.8-.4-.4-.9.3-.5-.5-2.1-1.8-3.5-2.4-2.6-5-11.7-6.3-22.1-.3-2.8-2.1-11-4-18.3-2.1-8.3-3.4-15.7-3.4-19.7 0-6.2-.5-9.2-3.1-20-2-8.5-2.4-15.9-2.3-48 0-20 .5-33 1.2-36.5 2-9.1 2.1-9.8 3.1-27.5 1.3-21.5 1.4-59.9.2-66.2-.6-2.6-1.2-8-1.5-11.8-.3-3.9-.9-8.6-1.5-10.5-.5-1.9-1.2-6-1.6-9-1-8.7-3.7-21-4.6-21-.5 0-.9-.8-.9-1.8 0-3.2-6.1-21.3-7-20.7-.4.3-1.2-.9-1.5-2.7-1.4-6.4-10.2-22-20.4-36.3-11.9-16.7-26.4-33.5-27.7-32.2-.4.4-1.3.2-2.1-.4-2.9-2.5-1.2 3.5 2.8 9.4 6.1 9.2 15.2 28.4 21.2 44.7 3.4 9.4 5.1 17.2 6.3 28.2.3 3.2.9 5.8 1.3 5.8.7 0 1.4 4.8 4 27.5 1.3 11.1 1.3 60.7 0 74-.5 6-1.4 15.4-1.8 20.8-.5 5.3-1.4 10.4-2 11.1-1.1 1.3-2.5 11.1-5.2 36.6-.5 5.2-1.6 11.8-2.4 14.6-2.2 7.6-3.6 39.7-3 66.9.5 24.6 1.1 32.3 2.5 34 .4.5 1 3.2 1.4 6 1.7 13.2 4.9 33.2 5.6 35 .4 1.1 1.3 3.3 1.9 4.8s1.8 6.3 2.6 10.5c.9 4.2 2.6 9.7 3.9 12.2s3.1 7 4.1 10 2.5 6.6 3.5 8c.9 1.4 2.2 4.1 2.9 6 .8 1.9 2 4.9 2.7 6.7.8 1.7 1.4 3.6 1.4 4.2s.7 1.1 1.5 1.1 1.5.8 1.5 1.9c0 1 1.1 3.5 2.5 5.5s2.5 4.1 2.5 4.5c0 .5.6 1.1 1.4 1.4s1.7 2 2.1 3.8c.8 3.5 3.8 9.4 6.1 12 .8.8 1.4 1.9 1.4 2.3 0 .5 1.5 3.3 3.4 6.4 1.8 3.2 5.7 9.6 8.5 14.4 2.9 4.8 5.8 9.3 6.4 10 .7.7 3.2 4 5.6 7.3 7.6 10.2 21.4 26.5 22.5 26.5.3 0 5.3 4.9 11.3 10.8 11.7 11.7 23.6 22.5 25.6 23.1.7.2 2.9 2 4.9 4s7.1 6.7 11.2 10.6c4.2 3.8 7.6 7.7 7.6 8.7s.4 1.8.9 1.8c1 0 .9 2.5-.1 3.5-.7.7-13-4.9-17-7.7-1.4-1-3.2-1.8-4-1.8-.7-.1-3.1-1.4-5.3-3s-8.6-5.7-14.2-9.1c-5.7-3.4-11.1-7-12.1-7.9-1-1-2.9-2.4-4.3-3.1-4.4-2.5-12.2-8.3-21.4-15.9-4.9-4.1-11-8.9-13.5-10.5-9.3-6.3-32.6-31.5-44.6-48.2-6.3-8.6-16.3-26.2-21.1-36.8-7.7-17.1-11.1-25-12.8-30.5-1-3-2.3-6.2-3-7s-2-5.6-2.9-10.5c-2.7-14.5-3.7-18.5-4.7-17.9-.5.3-.9.1-.9-.5s-.6-5.9-1.4-11.8-1.7-14.1-2.1-18.1c-.3-4-1.3-9.2-2.1-11.4-1.8-5.1-3.5-37-2.9-51.7.8-15.6 1.2-19.6 3.4-30.6 1.1-5.5 2.2-14.1 2.6-19 .6-8.4.5-8.9-1-7-.9 1.1-2.1 1.9-2.6 1.7-1.8-.4-6.8 12.5-8.9 23.2-1.2 6-3.1 13.6-4.1 16.9s-1.9 7.4-2 9.1c-.1 6.5-4.4 29.1-5.5 28.9-1.7-.3-2.4 12.1-2.4 43.6 0 25.7.2 29.2 2 34.6 2 6.2 4.6 18.5 6 28.9.4 3.2 1.2 6.1 1.7 6.5.5.3 1.5 3 2.1 6 .7 3 2.8 9.4 4.7 14.2 1.9 4.7 3.5 9.1 3.5 9.7 0 1.5 4 9.1 5 9.7.9.6 6 11.2 6 12.5 0 1.2 10.6 18.6 18.4 30.2 28.2 41.9 44.9 58.6 87.1 87.3 25.9 17.6 52.5 31.7 69.4 36.7 1.9.5 4.4 1.6 5.5 2.3 1.2.7 5.9 2.3 10.6 3.5s9.6 2.8 11 3.5c3.2 1.6 9 3 21.5 5 5.5.9 12 2.5 14.5 3.6 3.9 1.6 12.3 3.1 25 4.5 1.9.2 5.8.8 8.5 1.4 2.8.6 5.9 1.3 7 1.5s4.4.8 7.4 1.4c2.9.6 8.2 1.1 11.6 1.1 8.4 0 18.5 1.1 18 2-.7 1.1 22.1 4.4 40.9 5.9 6 .5 11.2 1.4 11.6 2 .3.6 3.5 1.5 7.1 2 15.3 2.1 27.7 4.5 31.4 6.1 2.2 1 8.3 2.8 13.5 4s10 2.7 10.5 3.4c1.1 1.2 11 5.6 12.9 5.6.6 0 2.2.9 3.6 2.1 1.4 1.1 4.9 3.6 7.8 5.6 3 2 9.5 7.7 14.5 12.6 5.1 5 9.6 9 10 8.9.5-.2.6.2.3.7-.4.5-.2 1.1.3 1.3 1.3.5 9.9 13.5 13.7 20.6 5.9 11.1 3.8 15-3.9 7.3-2.5-2.5-7.9-7.9-11.8-11.9-4-4-9.2-8.7-11.7-10.4-8.3-5.7-23.5-12.7-31.2-14.4-4.1-.9-8-2.2-8.5-2.9-.6-.7-4.4-1.8-8.5-2.4-12.4-2-18.2-3.2-24-5.1-3.2-1-12-2.3-21-3-8.5-.6-17.6-1.6-20.3-2.1-2.6-.5-7.8-1.2-11.5-1.5s-8.5-1-10.7-1.5-13.7-1.3-25.5-1.9c-25.2-1.3-30.8-1.9-29.1-2.9 1.6-1-6.4-2.5-25.3-4.8-8.2-.9-15.4-2.2-16-2.8-1.5-1.5-7.9-3.1-19.9-5-10.6-1.7-12.7-2.3-12.7-3.4 0-.5-2.6-1.4-5.7-2-7.8-1.8-18.1-4.9-21.4-6.7-1.5-.7-4.9-1.8-7.5-2.4-2.7-.6-7.6-2.4-10.8-4.1-3.3-1.6-6.7-2.9-7.6-2.9s-4-1.3-7-2.9c-5.3-2.9-6.7-3.6-13.5-6.7-6.9-3.1-24.7-13.4-30.5-17.7-1.4-1-6.1-4.4-10.5-7.6-14.4-10.4-24.1-19.9-35.7-34.9-10.3-13.4-13.8-17.1-14.5-15.4-.4 1-.8 1-2.1 0-1.3-1.2-1.4-.9-.8 2.5 1 5.1 4.3 12.7 5.6 12.7.5 0 1 1.1 1 2.4 0 6.8 16.3 33.5 30.9 50.5 8.5 9.8 12.7 13.9 22.6 21.9 17.4 14 24.1 18.9 30.6 22.4 3.5 1.9 9.3 5.2 12.9 7.2s8.5 4.6 11 5.8c2.5 1.1 7.9 3.6 12 5.5 4.1 2 9.7 4.4 12.5 5.5 2.7 1.1 5.4 2.3 6 2.8.5.4 3.5 1.3 6.5 2s6.2 1.7 7 2.1c3.6 1.9 15 4.9 21 5.6 3.5.3 7.8 1.4 9.5 2.4 1.8 1 9.1 2.6 18 3.9 8.3 1.2 17.9 3 21.5 4 7.2 2.1 9.7 2.4 41.3 4.5 13.5 1 23.2 2.1 25.3 3 2 .8 11.8 2.1 23.7 3 20.5 1.5 38.7 4.3 36.7 5.5-.7.4 1.7 1.2 5.2 1.9 8.1 1.5 18.6 4.8 21.2 6.7 1.1.8 2.8 1.4 3.7 1.4 1 0 4.2 2.2 7.1 4.9 7.9 7.2 9.3 13.4 6.3 27.7-1.3 6.2-8.4 22.1-10.5 23.4-.5.3-2.7 4.1-5.1 8.5-5.2 9.9-8.4 13.5-12 13.5-4.2 0-7.4-3.3-12.9-13.7-2.9-5.4-6.8-11.8-8.8-14.3-4.3-5.5-16.9-16-20.9-17.5-1.5-.5-3.9-1.8-5.3-2.7-7.2-4.8-26.7-5-39.6-.4-3.9 1.4-7.8 2.6-8.6 2.6s-5.5 2-10.4 4.4c-15 7.3-28.3 18.4-42.9 36.1-2.8 3.3-5.2 6.2-5.5 6.5-4.3 4.1-17.4 24.9-24.3 38.4-4.6 9.2-13.1 34.6-14.2 42.6-.4 3-1.8 10.7-3.2 17-1.3 6.3-2.9 17.1-3.4 24-1.3 16.2-.7 72.8.8 75.5.6 1.1 2.3 9 3.8 17.5 2.9 16.3 8.3 34.4 13.9 46.4 1.8 3.9 3.7 8.2 4.1 9.6 1.9 6.1 14.4 23 25.2 34 13.7 14 19.9 18.8 28.1 22 4.1 1.6 6.2 3 6.2 4.1 0 2.5-3.8 20.8-5.4 25.9-.8 2.5-1.7 6.5-2.1 9-.3 2.5-1 6.7-1.5 9.5-.5 2.7-1.4 8.3-2 12.3-.7 4-1.8 8.5-2.5 10-.8 1.5-1.8 5.8-2.4 9.7-2.2 14.1-3.2 19.1-4.7 21.7-.8 1.5-1.9 6.2-2.4 10.5-1.1 9.2-3.6 23.1-4.5 25.5-.4 1-1.1 1.8-1.5 1.8-1 0-1.8 4.6-2.6 14.5-.3 4.4-.7 8.2-.9 8.6-1.4 2.1-5.6 21.1-6.6 29.6-.7 5.6-1.5 10-1.8 9.7-1-1-6 21-6.1 26.9 0 1.5-.7 4.2-1.7 6-.9 1.8-2.2 6.8-2.9 11.2-2.9 18.2-4.1 24.1-5.3 26.3-.7 1.2-1.9 6.4-2.7 11.5s-2.6 13.4-3.9 18.5c-1.4 5-3.4 14.7-4.5 21.5-1.1 6.7-3 15.5-4.1 19.6-1.1 4-2.4 12.1-3 18-.6 5.8-1.7 12.6-2.5 15-1.7 5.4-1.9 20.4-.2 23.4.7 1.2 1.5 8.1 1.9 15.3.6 11.5 1 13.7 3.3 17.8 1.7 3.1 3.3 8.7 4.7 16.4 1.1 6.4 2.5 11.9 2.9 12.2.7.4 2 4.7 6.2 19.5.6 2.2 1.7 5.1 2.4 6.5s2.4 7.2 3.8 12.9c1.5 5.8 3 10.8 3.5 11.1 2 1.2 5.6 45.6 4.6 56.5-.2 2.7-.9 10.6-1.6 17.5-.7 8.2-2.1 15.6-3.9 21.5-1.5 4.9-3.3 11.8-3.9 15.3-.5 3.5-1.9 7.8-3 9.5-1.1 1.8-2.5 6.1-3.2 9.7s-2.6 8.5-4.1 11-3.2 6.8-3.8 9.5-2.5 7.6-4.1 10.8c-1.6 3.3-3.2 7.9-3.6 10.3-.3 2.4-1.1 4.4-1.7 4.4-1.6 0-5.4 8-6.2 13-.4 2.2-1.2 4-1.9 4s-1.8 1.5-2.5 3.2c-.6 1.8-1.8 4.8-2.6 6.5-.7 1.8-1.1 3.9-.8 4.8.4 1-.3 1.8-2 2.5-1.4.5-2.6 1.7-2.6 2.7-.1 3.3-3.8 12.6-5.4 13.5-.9.5-1.6 1.7-1.6 2.6 0 1-.4 2.2-.9 2.7-.4.6-1.6 3.1-2.6 5.7s-2.4 5.3-3.1 5.9-1.6 2.7-2 4.8c-.4 2-2.1 5.8-3.9 8.6-1.8 2.7-3.6 6.4-4 8.2-.8 4.1-4.3 11.3-5.4 11.3-.4 0-1.4 2.7-2.1 6s-1.6 6-2 6c-1.1 0-4.8 6.5-5.7 9.8-.3 1.5-2.6 6.4-5 11-2.4 4.5-4.3 9.1-4.3 10.2s-.4 2-.8 2c-.9 0-1.6 1.3-5.7 10-1.4 3-4.1 8.4-6 12-1.8 3.6-3.4 7.2-3.4 8-.1.9-1 2.3-2.1 3.3-1.1.9-2 2.4-2 3.4 0 1.8-3.6 9.8-5.4 12.2-1.7 2.1-3.5 8.2-2.9 9.7.3.9 0 1.2-.8.9-1.6-.5-6.9 9.8-6.9 13.3 0 1.2-.6 2.2-1.2 2.2-1.4.1-5.8 8.6-5.8 11.1 0 .9-1.1 2.4-2.5 3.3s-2.5 2.4-2.5 3.4-.7 2.7-1.5 3.8c-.8 1-1.5 3.4-1.5 5.1 0 2.3-.5 3.3-1.5 3.3-.9 0-2 1.2-2.6 2.8-.6 1.5-1.7 3.9-2.5 5.4-.8 1.4-1.4 3.3-1.4 4 0 .8-.9 2.3-2 3.3s-2 2.4-2 3.2-1.8 4.4-4 8.1c-2.3 3.7-4.4 7.8-4.7 9.2-.4 1.4-1.2 3.1-2 3.8-.7.7-1.3 1.9-1.3 2.7 0 .7-.6 1.5-1.4 1.8s-2 2.8-2.7 5.6c-.7 2.9-1.9 5.1-2.6 5.1s-1.3.6-1.3 1.4c0 .7-.7 1.9-1.5 2.6s-1.7 2.7-2.1 4.6c-.3 1.9-1 3.4-1.4 3.4-.8 0-5.3 8.9-6.5 13-.5 1.4-1.8 4.1-3.2 6-1.3 2-3.1 5.8-4.1 8.6-.9 2.7-2.5 6-3.5 7.4-.9 1.3-1.7 2.8-1.7 3.3 0 .4-.9 2.7-1.9 5-1.1 2.4-2.3 5.5-2.6 7-.4 1.5-1 2.7-1.4 2.7s-1.2 2.1-2 4.7c-.7 2.7-2.8 8.8-4.7 13.6-1.9 4.9-3.4 9.7-3.4 10.7s-.9 4.6-2 8.1c-3 9.9-4.4 24.6-3.1 32.3 2 11.5 9.6 28.3 17.2 38.1 6.3 8.1 15.1 16.3 18.4 17.1 1.5.4 3.7 1.7 5 2.9 2.3 2.4 8.1 4.5 12.3 4.5 1.2 0 2.2.6 2.2 1.4s.8 1.7 1.8 2c4.1 1.3 18.4 3.5 26.7 4.1 5 .3 11.5 1.5 14.6 2.5 4.9 1.7 10.1 1.9 47 2.5 22.8.3 42.8.8 44.6 1.1 1.7.2 4.4 1.7 6 3.3 1.9 2 4.3 3.1 7.4 3.5 3.7.6 5.7 1.7 10.4 6 3.1 3 6.2 6.4 6.9 7.7s1.9 2.3 2.8 2.1c1.3-.2 1.7 1 2.3 5.8.7 6.4-1.3 21-2.6 18.9-.4-.8-1.2.5-1.9 3.2-.6 2.4-1.5 5.7-2 7.4-.4 1.6-1.1 4.2-1.4 5.6s-1.7 3.8-3.1 5.3-2.5 3.7-2.5 4.9c0 2.7-3.2 13-5.3 17.2-.8 1.6-1.8 6.1-2.1 10-.6 6.4-3.4 16.6-5.6 20.7-.5.9-1.2 7.1-1.6 13.7l-.7 12 4.4 7.7c4.5 7.9 13.7 17.3 19.4 19.9 1.6.7 6.3 1.9 10.3 2.5 4.3.7 7.5 1.8 8 2.7 1.9 3.2 14.8 4.3 56.7 4.6 17.1.2 31.8.7 32.8 1.1 1.5.7 1.8 1.6 1.3 3.9-.4 1.7-1.1 3.4-1.7 3.8-.6.3-4.7.9-9.2 1.3-28.4 2.3-31.5 2.8-28.6 4.7 1.1.7.9.9-.6.9-1.1.1-8.4.5-16.1.9l-14.2.7-5.5 5c-7.1 6.4-18.6 20-20.3 24-.8 1.8-1.5 4.6-1.6 6.3s-.8 3.1-1.4 3.1c-1.7 0-3.6 9.5-2.8 13.9.4 2 1.5 5 2.5 6.7 1.1 1.7 1.9 4.1 1.9 5.2 0 1.2 2.7 5.2 6.1 8.9 3.3 3.7 7.4 8.6 9.1 10.8 1.8 2.2 5.2 5.8 7.8 8 2.5 2.2 6.3 6.2 8.4 8.8s5.5 5.7 7.7 6.7c3.4 1.8 8.7 6.7 16.5 15.2 1.8 2 5.1 6.7 8.9 13 .5.9 2.5 3.7 4.3 6.3 5.4 7.8 6.9 11.6 7.8 20.5 1.2 12.2.6 38.2-1.1 47-.8 4.1-1.6 9.5-1.9 12-.5 5.1-1.4 8-2.6 8-.4 0-1.3 3.7-1.9 8.2-2.5 17.8-4.2 26.3-5.7 27.9-2.1 2.4-3.4 19.7-3.4 47.4 0 25.4.9 33.8 4.4 39.9 1.3 2.3 2.9 6.5 3.5 9.4 2.1 10.2 13.8 30.1 23.9 40.7 13.2 13.9 30 27.7 36.8 30.4 1.8.7 4.4 2.6 6 4.2 1.5 1.6 4.2 3.2 6.1 3.5 1.8.3 3.3 1 3.3 1.5s.8 1.3 1.8 1.6c.9.4 2.2 1.2 2.9 1.9.7.6 4.1 1.7 7.7 2.5 3.6.7 6.3 1.6 6 2.1-1.7 2.7 5.1 4.8 18.9 5.7.4.1.7.9.7 2 0 2.1 2.5 3.1 8.5 3.1 6.4.1 14 2.4 13.7 4.2-.3 2.2 3 2.7 23.5 3.3 9.8.3 21.9.7 26.8.9 11.6.5 51-1.1 55.5-2.2 1.9-.5 3.4-1.4 3.3-2-.4-1.7 2-2.1 23.7-3.6 16.4-1.1 20.6-1.7 21.6-3 1.4-2 8.7-3.3 21.9-4 12.2-.6 15-1.1 24.1-4.2 5.1-1.7 10.3-2.5 19.5-2.9 14-.7 20.7-1.8 29.4-4.6 8.1-2.6 25.5-3.9 51.5-3.9 26.8.1 35.5 1 38.1 4.4 1 1.3 3.7 3.1 5.9 4 8.2 3.2 18.6 16.1 21.1 25.9.6 2.6 1.5 5 2 5.3s.9 1.4.9 2.6c0 1.3.5 1.8 1.4 1.5 1-.4 1.6 1.5 2.5 7.6.6 4.5 1.1 9.7 1.1 11.6s.3 3.1.7 2.8c.8-.9 3.2 2.4 3.3 4.5 0 .9.4 1.8 1 2s1.4 9.1 2 21.3c.5 11.5 1 21.1 1 21.2 0 .2.5.3 1 .3.6 0 1-1.4 1-3.2 0-11.2 3.7 13.3 4.9 32.5.5 8.2 1.2 15.1 1.5 15.4.3.4.6-.6.6-2.1 0-4.7 1.7-1.9 2.9 4.6.5 3.5 1.5 13 2.1 21.3.6 8.2 1.5 16.8 2 19l.8 4 .2-4.5c.2-4.3.2-4.4 1.1-1.5.5 1.6 1.8 12.4 3 24 2.1 21.5 3.7 28.7 4 18.5.1-4.5.3-3.9 1 3.5 2.9 34.5 4 101.4 2 121.8-.6 5.1-1.3 12.8-1.7 17.2-.4 5.5-.9 7.4-1.5 6-.8-2.2-1-2-1.5 1-.1 1.1-.9 5.1-1.7 9-.8 3.8-1.8 8.7-2.1 10.8-.4 2-1.6 4.5-2.6 5.5-1.2 1.1-2.5 4.7-3.4 9.3-2.1 10.2-3.1 13.4-4.4 13.2-1.2-.3-1.7 1.1-2.6 6.8-.8 4.6-3.4 9.9-5.2 10.6-.7.3-1.6 2.1-2 4.1-.8 4.7-2.9 8.7-5.2 10.4-1.1.7-2.2 2.9-2.6 4.9-.3 2-2.2 5.7-4.1 8.2s-3.5 4.8-3.5 5.2c0 .8-16.2 24-22 31.5-2.7 3.6-7.2 8.8-9.8 11.6-2.6 2.9-7.1 8.2-10.1 11.8-2.9 3.6-6.8 8.1-8.5 10-1.7 1.8-7.6 8.4-13.1 14.7-5.5 6.2-12 13.4-14.4 15.9s-6 6.5-8 9c-1.9 2.5-4.6 5.6-6 7-4.5 4.8-34.1 42.1-34.1 43.1 0 .6-1.3 2.7-3 4.7-3.3 4.2-7 13.9-7 18.6 0 4.9 3.7 13.8 6.8 16.6 9.3 8.2 11.4 9.4 19 11 3.4.7 7.2 2.1 8.4 3.1 1.1 1.1 3.2 1.9 4.6 1.9 5.1 0 23.7 3.2 27.2 4.7 5.3 2.3 9.2 2.7 36.5 4.3 11.8.6 18.9 1.6 27 3.6l11 2.8 87-.1 87-.1 13-2.7c11.1-2.3 16.9-2.8 40-3.7 33.7-1.1 42.2-1.7 40.4-2.8-.7-.5-1.1-1.1-.8-1.4 1.2-1.2 15-2.6 34.9-3.6 11.8-.6 21.9-1.5 22.4-2 .7-.7.3-1-.9-1-1.8-.1-1.8-.2-.3-1 2.1-1.3 28.7-4 39.8-4.1 4.7 0 9.4-.4 10.5-.8 1.9-.7 1.9-.8 0-1.8-1.8-1-1.8-1.1.1-1.6 1.8-.6 13-1.8 28.8-3.3 5.4-.5 6.9-1 7.3-2.4.6-2.1 3.5-2.8 15.2-3.6 11.2-.7 17.5-2.2 16.1-3.9-1.6-1.9.7-2.4 15.4-3.6 12.4-1.1 13.2-1.3 15.6-3.9 2.3-2.5 3.5-2.9 13-3.9 8.3-.9 11.3-1.7 14.3-3.7 2.8-1.9 6.5-2.9 15.3-4.1 8.5-1.2 11.4-2 11-2.9-.7-1.9-.2-2.1 11.9-3.9 8.2-1.2 11.4-2.1 12.5-3.4 1-1.3 4.4-2.4 10-3.5 12.9-2.5 13-2.5 12.4-4-.4-1 2.1-1.8 10.7-3.1 13.5-2.1 13.8-2.1 13.2-4.4-.4-1.6.9-2 10.3-3.5 6-.9 11-1.9 11.3-2.1.2-.3-.2-1.1-.9-2-1.5-1.8-1.3-1.9 8.9-3.4 8-1.3 11.1-2.5 11.1-4.5 0-.8 2.9-1.9 7.7-2.9 4.4-1 8.6-2.5 9.8-3.7 1.2-1.1 5.3-2.9 9-3.9 3.8-1.1 7.5-2.7 8.1-3.6.7-.9 4.2-2.7 7.9-4s7.1-2.8 7.5-3.5c.4-.6 3.3-2.4 6.6-4.1 12.2-6.1 17.4-10.1 20.2-15.4 1.4-2.7 1.6-13.9 1.8-100 .1-53.4.3-97.4.3-97.9.2-1.6 8.4.2 9.5 2.1 2 3.7 10.8 12.1 13.9 13.4 1.8.7 4.6 2.2 6.2 3.4 4.1 3 8.9 4.5 14.2 4.5 3.6 0 4.3.3 4.1 1.7-.4 2.4 5 3.1 24.2 3.2 15.6.1 21-.8 16-2.7-2.4-.9-2.4-1 1-1.5 1.9-.4 5.7-.9 8.4-1.2 5-.7 7.6-1.7 11.1-4.6 1.1-.9 3-2 4.3-2.4 6.2-1.8 23.9-19.8 29.7-30 5-8.8 5.4-10 6-16 1.1-10.8 2.5-16.4 3.9-15.9 1.6.6 3-21.2 1.7-26.6-.5-1.9-.9-2.6-1-1.6-.2 4.8-2-.8-4-12.3-1.5-8.8-2.7-13.1-4-14.5-1.1-1.2-2.8-4.1-3.9-6.6-2.3-5.4-10.7-16-12.7-16-.8 0-1.8-.6-2.2-1.3-1.1-1.7-8.9-7.7-10-7.7-.6 0-1.7-.8-2.7-1.8-.9-1.1-3.5-2.5-5.7-3.2-2.5-.9-4.4-2.2-4.9-3.6-.7-1.8-2.3-2.4-9.6-3.8-4.8-.9-9-1.8-9.3-2.1-1.7-1.8-2-50.3-1.4-272.6l.6-246.7-2.4-3c-1.3-1.7-2.8-3.1-3.3-3.1-.5-.1-1.8-1-3-2.1-2-1.9-12.1-11.5-23.6-22.3-2.8-2.6-5.2-4.7-5.4-4.7-1.9 0-39-37-43.1-43l-3-4.3.1-31.6c0-17.4.3-33.3.7-35.4 1.7-8.1-4.1-13.4 102.8 92.9 20.1 20 37 36.4 37.6 36.4 3.1 0 3.3 5.2 3.3 91.9v86.9l4.7 6.3c2.5 3.5 35.6 37.3 73.6 75.1l68.9 68.6v167.4c.1 92-.2 169.1-.6 171.3-.7 3.8-1.1 4.2-7.4 7.2-10.5 4.9-26 15.8-33.9 23.7-7.3 7.3-15.4 19.2-17.3 25.5-.6 2-2.2 5.8-3.5 8.6-5.8 12.1-6.1 47.7-.5 58.5 1 1.9 2.5 5.6 3.4 8.2 3.9 10.8 18.3 27.3 30 34.3 3.6 2.2 8 4.8 9.7 5.9 1.6 1 4.8 2.2 7 2.7 2.3.5 4.7 1.6 5.5 2.3.7.8 4.8 2.2 9.1 3.1 12.2 2.7 33.7 1 38.4-3.1.8-.8 3.9-1.8 6.7-2.4 5.5-1 9.7-3.2 10.6-5.6.3-.8 1.6-1.4 2.9-1.4s5-1.9 8.2-4.3c13.2-9.6 22.2-21.4 26.3-34.7 1.1-3.6 2.8-8.3 3.7-10.5 2.4-5.4 3.7-25.2 2.6-39-.7-9.6-1.2-12-4.4-18.8-2.1-4.2-3.7-8-3.7-8.4 0-2.4-8.9-14.9-14.7-20.5-13.4-13-25.8-20.8-38.5-24.3l-5.8-1.6v-176.7c0-172.6-.1-176.8-1.9-179.7-3.2-4.9-5.3-7.1-75-77-36.7-36.9-67.6-68.4-68.7-70-1.8-2.8-1.9-6.5-2.4-90l-.5-87.1-3.2-3.9c-5.8-7.3-135.4-135-149.8-147.6-2.8-2.5-9.2-8.5-14.2-13.5-6.9-6.8-9.3-9.9-9.8-12.5-.3-1.9-.5-31.8-.3-66.6.2-50.2.6-63.5 1.6-64.5.7-.7 3.5-1.3 6.5-1.3 58.4.6 68.2 1.1 67.1 3.9-.3.7 2.1 3.6 5.2 6.6s7.3 7.2 9.3 9.2c2 2.1 4.2 3.8 4.9 3.8s1.5.8 1.9 1.7c.6 1.9 48.7 50.3 49.8 50.3.4 0 3.5 3 6.9 6.7 8.1 8.9 28.3 29.9 32.3 33.6 1.8 1.7 15 14.8 29.5 29.3s26.8 26.4 27.5 26.4c.6 0 1.5.8 1.8 1.7.4 1 5.2 5.8 10.7 10.8 17.6 15.7 30.9 28.7 32.4 31.7.8 1.6 1.8 2.7 2.2 2.4 1.3-.8 1.7 13.1 1.5 44.4-.2 27-.4 29.7-2.1 32-2.4 3.2-8.4 7.4-14.2 10-2.5 1.1-7.6 4.3-11.5 7-3.8 2.8-8.3 5.8-9.9 6.8-4.3 2.5-11.5 10.1-13.7 14.4-1 2-3 5.3-4.3 7.3-1.4 2-2.8 5-3.2 6.8-.3 1.8-1.7 5.3-3 7.8-3.9 7.9-5.6 29.7-3.4 43.7 1.8 10.6 7.1 23.3 13.4 31.7 7.8 10.3 16.3 19.3 20 21.2 1.7.9 3.5 2.2 3.9 2.9.8 1.4 8.7 5.4 10.5 5.4.5 0 1.5.7 2.2 1.4 1.5 1.9 5.1 3 17.2 5.1 10.7 1.9 18.6 1.7 34.8-.9 7.7-1.3 10.3-2.2 14.5-5.1 2.8-1.9 5.7-3.5 6.3-3.5.7 0 2.2-1 3.4-2.2 1.6-1.6 2-1.7 1.5-.5-.9 2.4.1 2.1 3.3-1 1.5-1.6 4.9-4.7 7.4-7 4.8-4.4 14.1-16 15.7-19.7.5-1.2 1.8-3.5 2.9-5.3 1-1.7 2.6-6.7 3.5-11 .9-4.2 2-8 2.4-8.3 2-1.3 3.4-13.5 2.8-24.8-1-21.7-8.8-40.1-23.3-54.5-6.4-6.4-13.6-11.7-16-11.7-.7 0-1.4-.4-1.4-1 0-1-12.3-7-14.5-7-.8 0-1.8-.6-2.2-1.3s-2.7-2.1-5-3.1c-2.4-1-5-3-5.9-4.4-2.4-3.6-3.3-18.7-3.3-56.9-.1-32.2-.5-36.8-3.7-38-2-.7-8.4-7-8.4-8.2 0-.5-1-1.1-2.1-1.4-1.4-.4-2-1.1-1.6-2.1s-2.3-4.1-8-9.3c-4.8-4.3-26.6-25.6-48.5-47.3s-40.6-40.3-41.5-41.2c-17.6-17-90.3-90.8-90.3-91.6 0-.7-.6-1.2-1.3-1.2-1.4 0-4.7-3.5-4.7-5 0-.6-.4-1-.9-1-1.2 0-2.7-1.5-6.6-6.5-1.6-2.1-3.6-4.4-4.2-5.1-.7-.7-1.3-1.6-1.3-2.1 0-1.1-5.9-4.9-8.8-5.8-2.5-.7-18.2-.8-57.2-.1-24.4.4-26.6 0-28.8-4.9-.8-1.7-1.2-9.1-1.2-22.3 0-16.8.3-20.2 1.8-23.1l1.7-3.5 66.5-.2c36.6-.2 73-.5 81-.9 10.8-.4 15.8-.2 19.6.9 6.9 1.8 7.4 2.2 12.9 9.1 4.7 5.9 26.9 28.2 45.6 45.9 5.2 5 34 33.3 64 63 30.1 29.8 55.3 54.6 56 55.2.8.6 22.3 22.2 47.9 48 49.8 50.2 94.3 94 103.1 101.5l5.4 4.6-.3 241.9c-.2 153.8-.7 243.7-1.3 247l-1 5.1-7.7 1.7c-11.5 2.7-25.1 10.7-35.5 20.9-5.3 5.1-12.7 15.1-12.7 17 0 .8-1.6 4.6-3.5 8.5-4.6 9.1-5.5 14.9-5.5 35.7 0 19.1 1.2 28.7 4 32.2 1 1.3 2.6 4.8 3.6 7.6.9 2.9 2.5 6.1 3.4 7.2 1 1.1 3.4 4.8 5.4 8.2 5.6 9.5 19.8 20.5 31.4 24.2 3.4 1.1 7.5 3 9.1 4.2 2.6 1.9 4.5 2.2 18.6 2.7 16.9.5 31.5-.9 33.6-3.4.6-.8 4.2-2.4 8-3.5 3.7-1.1 8-3.1 9.6-4.5 1.5-1.3 3.4-2.4 4.2-2.4 2.6 0 20-18.7 22.7-24.5 1.5-3 3-5.5 3.4-5.5 1.1 0 3.6-6.7 5.1-13.4.7-3.2 2.2-6.7 3.3-7.8 1.9-1.7 2-3.1 2.1-20.1 0-16.1-.2-18.8-2-22.7-1.1-2.5-2.2-4.7-2.6-5-.3-.3-.9-2.8-1.3-5.5-1-6.7-7.6-18.1-14.8-25.6-3.2-3.2-5.8-6.3-5.8-6.9 0-.5-.4-1-.8-1-.5 0-3.2-1.7-6-3.8-11-8-17.5-11.5-24.2-13-5.6-1.2-7-1.9-8-4.1-1-2-1.2-56.9-1.1-248.6.1-135.3-.1-248.4-.5-251.2-.5-4.4-1.3-5.8-4.8-9-2.2-2.1-19.4-19.1-38.1-37.8-18.7-18.8-58.7-58.4-88.9-88-53.3-52.5-77-75.9-152.1-150.3-19.8-19.6-40.3-39.8-45.5-44.7-5.2-5-12-12-15.1-15.5l-5.5-6.4-93.1-.1c-51.2 0-93.5-.4-94-.8-.4-.5-.8-12.6-.8-26.9 0-24.5.1-26 1.9-27.4 1.5-1 5.2-1.4 14.5-1.3 6.9 0 18.9-.2 26.6-.5 7.7-.4 19.9-.6 27-.5 7.2 0 14.6-.1 16.5-.2 1.9-.2 5.5-.3 8-.3s4.8-.5 5.2-1c.5-.8.8-.8.8-.1s2.8 1 7.8.7c4.2-.2 29.3-.4 55.7-.5l48-.2 4.7 2.3c3.3 1.6 10.9 8.6 25 23 11.2 11.3 75.7 76.2 143.3 144.2 67.7 67.9 135.4 136.1 150.6 151.5 62 63.2 81.2 82.7 94.5 96.5 7.6 7.9 37.5 38.3 66.4 67.5 70.3 70.9 92.1 93.1 103.2 104.9 5.1 5.4 14.2 14.8 20.2 20.8 10.1 10.3 10.8 11.2 10.2 14.1-.4 1.8-1.9 4.2-3.5 5.4-1.8 1.4-3.3 3.9-4 6.6-.6 2.4-1.8 5-2.6 5.7-2.2 1.8-5.5 9.3-5.5 12.5 0 1.4-.9 4.7-2.1 7.2-4.4 9.8-4.9 27.4-1 35.6 1.1 2.3 2.5 6.7 3 9.7.5 3.2 2.5 8 4.5 11.4 2 3.3 3.6 6.5 3.6 7.2 0 2.8 17.6 20.7 23.2 23.5 2.4 1.2 5.8 3.4 7.5 5 1.8 1.5 5 3.1 7 3.4 7.2 1.1 11.3 2.6 11.3 4 0 2.3 6.3 3 27.5 3 21.4 0 25-.5 25.7-3.3.4-1.3 2.2-2.2 6.4-3.1 3.2-.8 7.2-2.4 8.8-3.8 1.6-1.3 4.5-3.2 6.5-4.3 11.2-5.7 26.3-27.2 33-46.9 2.7-7.9 3.8-27.3 2.3-41.1-.8-7.4-1.8-11.1-4.5-16.7-1.9-4-3.7-8-4.1-9-1.4-4-9.1-14.7-12.8-17.8-8.1-6.9-16.1-12.7-19-13.7-1.8-.6-3.9-1.8-4.6-2.5s-1.9-1.3-2.6-1.3c-.8 0-1.9-.6-2.5-1.4-.7-.8-4-1.7-7.4-2.1q-6.15-.75-8.4-2.7c-3.8-3.5-15.5-4.6-27.6-2.5-5.5 1-10.8 2.3-11.6 3-1.9 1.6-10.9 3.7-16 3.7-4.5 0-6.3-1.2-14.3-9.7-3.5-3.6-14.8-14.9-25.2-25.2-10.4-10.2-21.8-21.7-25.5-25.5-8.4-8.8-63.7-64.9-97.1-98.5-14-14.1-39-39.6-55.5-56.6s-38.3-39.5-48.5-50c-10.2-10.4-25.1-25.7-33-33.9-36.9-38-204.1-205.6-205.2-205.6-.4 0-1.5-1.4-2.5-3-.9-1.7-2-3-2.4-3-.8 0-19.5-18.5-42.4-42-8.8-9.1-25.7-26-37.5-37.6s-25.1-25-29.5-29.8l-8-8.6h-113c-62.2 0-114-.3-115.1-.6-3.6-.9-4.6-9-4.2-32.6.4-26.4-.7-24.8 18-25.9 7.3-.4 67.8-.8 134.3-.8l121-.1 5 2.9c3.2 1.8 16.9 14.8 37.5 35.7 70.6 71.1 161.4 161.8 197.5 197.2 20.9 20.5 40.3 39.6 43 42.4 2.8 2.9 27.4 27.8 54.7 55.3s62.4 62.9 78 78.7l28.3 28.8h4.5c47.2-.2 182 .9 183.2 1.5 1.8.7 2.3 1.8 3.3 7.5 1.1 6.4 8.5 19.5 14.9 26.3 13.9 14.8 25.4 22.8 34.6 24.2 7 1 10.9 2.5 12.4 4.6 1.2 1.7 2.7 1.9 16.2 2.1 16.2.2 21.9-.5 21-2.8-.3-.9.3-1.6 1.7-1.9 1.2-.2 5.2-1.1 8.9-2 8-1.7 19.6-7.7 28.4-14.6 12.5-9.8 26.8-32.8 29.5-47.4 3.2-17.6.7-48-4.7-54.5-.7-.8-1.7-3.3-2.3-5.6-.6-2.2-3.5-7.4-6.5-11.5-5.7-7.6-16.4-18.9-18-18.9-.6 0-2.1-1.1-3.5-2.3-1.5-1.3-5.4-3.4-8.8-4.7-3.5-1.2-6.3-2.6-6.3-2.9 0-.4-1.7-1.5-3.7-2.5-9.4-4.5-52.6-4.3-61.6.3-2 1-3.4 2.1-3.1 2.4.4.3-1 .9-3.1 1.3-4.6.8-13.5 5.1-13.5 6.4 0 .6-.8 1-1.7 1-2.3 0-12.9 10.2-15 14.4-.9 1.7-2.8 4.7-4.4 6.7s-3.3 4.7-3.9 6c-.5 1.3-1.4 3.1-1.9 3.9-2.6 4.1-4.2 9.1-5.7 17.3-2.4 14.1 1.4 12.7-34.7 12.8-59.4.2-142.2-.2-143.7-.7-.8-.2-3.3-2.8-5.5-5.6-6.3-8.2-160.7-163.4-347.2-349.2-41.4-41.2-75.5-75.7-75.8-76.6-.3-1-2.5-3.1-4.8-4.6l-4.2-2.9-78.5.2c-43.2.1-93.1.5-111 .9-52 1.1-85 1.1-91.5.2-13-1.9-12.6-1.2-12.5-27.8 0-23.1.9-27.5 5.2-28.4 3.7-.8 60.5-1.5 166.8-2.1 54.2-.3 111.4-.8 127.2-1.1 24.4-.4 29.1-.3 31.5 1 3.1 1.7 22.1 20.1 37.8 36.6 26.3 27.7 121.8 124.4 192.4 194.7 85.8 85.5 79.6 80.2 90.9 78.9 6.1-.7 89.9-.8 99.4-.1 3.2.2 6.6.6 7.6.9 1.8.6 8.8 13.7 11.1 20.6 1.3 4 7.3 12.3 14.6 20.1 2.7 3 5 5.7 5 6.1 0 1.2 1.4 2 4.7 2.7 2.2.5 3.2 1.2 3 2.3-.2 1.6 9.1 5.8 12.8 5.8 2.9 0 5 1.1 5 2.6 0 2.6 8.1 3.7 26 3.7 18.1 0 27.2-1.4 30.4-4.6.9-.8 3.9-1.8 6.8-2.2s5.9-1.1 6.8-1.5c.8-.5 2.3-1.1 3.3-1.4.9-.3 1.7-1 1.7-1.6 0-.5-.8-1-1.7-1-3.2 0 .7-1.9 5.4-2.6 2.9-.4 4.4-1.2 4.8-2.5.3-1 2-2.7 3.8-3.8 5.2-3.2 11.4-10.3 12.8-14.6.7-2.2 2.5-5.8 4-8 1.4-2.2 3.6-7.2 4.8-11.1 1.2-3.8 2.8-8 3.7-9.2.9-1.4 1.7-5.7 2.1-11.9.7-11.2-.5-35.5-1.7-34.8-.8.5-3.7-6.3-6-13.7-3.1-10.1-18.9-28.6-29.3-34.1-2.8-1.6-7.6-4.2-10.6-5.8s-6.6-2.9-8-3c-4.3-.1-13.7-2.3-15.3-3.6-4.2-3.6-23.4-3.1-28.4.6-2.2 1.6-5.2 2.4-11 3-6.3.6-9 1.4-12.5 3.7-2.4 1.6-4.5 3.2-4.7 3.6-.2.5-1.2.8-2.3.8-2.7 0-19 16-25 24.5-2.9 4-5.2 8.6-5.6 10.7-.3 2.1-.9 3.8-1.4 3.8-1.2 0-3.8 6.4-5 12.2-1.9 8.8-2.8 9.3-18.1 9.5-52.4.8-87.8 1.1-90.5.6-2.6-.4-11.6-8.9-49.2-46.7-25.3-25.3-47.4-47.7-49.2-49.6-4.4-4.9-30-31-30.4-31-.1 0-2.8-2.4-5.8-5.3-3-2.8-6.6-6.1-7.9-7.3-1.2-1.1-6.9-7-12.6-13-18.9-20-70.3-72.5-99.8-101.9-15.9-16-31.7-32-35.1-35.6-3.3-3.7-7-7.2-8.2-7.8-1.2-.7-2.1-2.1-2.1-3.6 0-2.8-1.3-3.8-5.5-4.2-1.6-.1-4.1-.6-5.5-.9-1.4-.4-4.5-.6-7-.6-2.5.1-5.4-.3-6.5-.8-1.4-.7-5-.8-11-.2-11.1 1.2-311.7 1.8-314.6.7-3.7-1.4-4.4-6.1-4.3-30.7.1-13.1.4-24.8.8-26.1.5-2.1 1.3-2.5 6.7-3.1 8.2-.8 387.2-.6 392.6.2 2.3.4 5.4 1.8 7 3.3l96.5 96.5c103.6 103.9 107.5 107.8 110.1 108.7.9.4 1.7 1.2 1.7 1.8 0 .8.4.8 1.5-.1.8-.6 1.8-.9 2.3-.6s4.3-2.8 8.5-7c9.8-9.6 9.9-10.3 1-19.6-7.4-7.6-7.2-7.4-12.2-13.3-1.8-2.2-31.8-32.8-66.5-68-91.7-92.9-97.4-98.8-115.6-117.5l-16.5-17-208.2-.2c-114.5-.2-208.5-.7-209-1.1-1.3-1.4-1-51.4.3-52.7 1-1 149.6-1.3 460.3-1h10.5l110.3 110.2c60.7 60.7 110.5 110.5 110.8 110.7.2.2 36.3.2 80.2.2 50.8-.1 80.9.2 82.5.8 1.9.7 3.2 2.5 4.6 6.3 1.1 2.9 2.5 5.2 3.1 5 .6-.1 1.1.7 1.1 1.7 0 1.1.5 2.3 1.1 2.6.5.4.8 1.2.6 1.8-1.1 3.1 8.2 15.4 22.4 29.6 3.4 3.4 15.2 11.1 17.1 11.1.4 0 3.4 1.4 6.6 3.1 7 3.7 14.7 4.8 34.1 4.9 16.6 0 25.5-1.3 32.2-4.6 2.6-1.3 5.1-2.4 5.7-2.4 1.6 0 11.3-7 17.9-12.9 8-7.3 14.7-15.6 18.2-22.8 1.6-3.2 3.3-5.6 3.8-5.3.4.3 1.2-1.8 1.6-4.5 1.3-7.9 3.8-15.8 5.6-17.9 1.3-1.5 1.6-4.2 1.5-15-.1-12.5-.2-13.4-3.2-19.6-1.7-3.6-3.3-8.9-3.7-11.7-.4-3.4-1.7-6.7-3.6-9.2-1.5-2.2-3.1-5.1-3.5-6.5-.3-1.4-2.4-4-4.5-5.8s-3.9-3.8-3.9-4.5-.5-1.3-1-1.3c-.6 0-3.2-2-5.8-4.4-2.6-2.5-6-4.8-7.5-5.1-1.5-.4-2.5-1-2.2-1.4.2-.4-1.2-1.3-3.1-2-1.8-.7-3.4-1.7-3.4-2.2s-.5-.9-1.2-.9c-.6 0-3.8-1.3-7.2-2.9-11.5-5.4-12.9-5.6-32.6-5.6-11.5 0-20.6.5-24 1.3-12 2.8-31.7 14.1-41.5 23.7-6.3 6.3-15.5 19.9-15.5 23.1 0 1.3-.5 2.4-1.1 2.4-1.3 0-3.6 5.5-5 12-.7 3.4-1.8 5.4-3.2 6.2-1.6.8-18.4 1.1-62.3 1-63.5-.2-79.9-.6-85.1-2.1-2.4-.7-25.6-23.3-87.6-85.3-46.4-46.4-96-95.7-110.3-109.6l-25.9-25.3-241.7-.2c-132.9-.1-242-.6-242.5-1-1.1-1.1-1.1-127.3 0-128.4.5-.4 9.3-.8 19.5-.9 10.3 0 40.1-.5 66.2-1 58.7-1.1 408-1.2 462-.1 21.7.5 41.3 1.3 43.4 1.8 4.1 1.1 21.4 18.1 107.6 105.8 15.7 15.9 29.1 29 29.8 29 .6.1 1.2.6 1.2 1.2 0 2 55.2 56.1 58.9 57.7 3.1 1.3 9.7 1.5 47.6 1.2 115.9-.7 254.1-.1 258.5 1.2 1.9.6 4.5 2 5.8 3.2 2.4 2.1 9.2 14.9 9.2 17.2 0 .7.6 1.9 1.3 2.6.6.7 2.5 3.3 4.2 5.8 3.3 5 23.1 25 24.9 25 .6 0 3.8 1.8 7.1 4s7.5 4.3 9.3 4.6c1.9.4 6.1 2 9.5 3.7 5.5 2.7 7.4 3.1 17.2 3.5 14.7.5 27.8-1.1 30.7-3.8 1.2-1.1 3.2-2 4.4-2 4.5 0 18.1-7.3 27.2-14.6 10.9-8.8 21.8-25.4 23.7-35.9.4-2.2 1.1-4.5 1.5-5 .3-.6 1.6-3.7 2.8-7.1 1.8-5 2.2-8.3 2.2-18.3 0-11.5-1-17.3-4-24.6-.5-1.1-1.8-5-3-8.6-4.6-14.7-20.4-33.3-35.6-42.1-4.4-2.5-12.9-6.3-19-8.4l-10.9-3.8-16.1.1c-12.9.2-17.3.6-22.7 2.3-3.6 1.1-6.9 2.5-7.2 3-.3.6-1.6 1-2.9 1s-4.1 1.3-6.3 2.9-5 3.2-6.4 3.6c-5.8 1.9-20.7 15.7-26.8 25-1.4 2.2-3.4 4.8-4.3 5.9-2.7 3-8.6 15.8-9.3 20.3-.4 2.7-1.4 4.7-2.9 5.6-5 3.3-18.6 3.7-142.5 3.6-127.2-.1-149.6-.5-154.8-3.2-2.6-1.4-9.9-8.1-29.1-27-5.5-5.4-15.8-16.4-35.3-37.7-13.5-14.8-49.5-51.4-95.9-97.6l-33.5-33.4h-303.2c-236.8 0-303.3-.3-303.9-1.2-1-1.6-1.8-38.5-1-44.2.4-2.5 1.3-5.2 2-5.9 1.1-1 47.8-1.2 252.2-1 138 .2 254.8.4 259.5.4 4.8.1 9.9-.1 11.3-.5 2.6-.6 41-38.2 75.7-74.1l16.4-17 141-.3c77.6-.2 142.8 0 145.1.3 3 .4 4.4 1.3 5.7 3.4.9 1.6 1.7 3.7 1.8 4.8 0 1 1.1 3.8 2.4 6.3s3.3 6.5 4.5 9c1.1 2.4 2.4 4.7 2.8 5s2.4 2.7 4.4 5.5c7.6 10.5 24.7 24.4 32 26 1.7.4 6.1 2 9.9 3.5 8.4 3.5 20.1 4.6 38.2 3.5 10.2-.6 13.1-1.1 15.8-2.8 1.9-1.2 5.7-2.8 8.4-3.7 10.8-3.5 28.1-17.9 36.4-30.2 12.1-18.1 16-37.1 13.1-64.3-1.1-11.1-2.6-15.3-9.3-27.4-7.8-14.3-24.5-31.1-30.7-31.1-1.1 0-2.8-.8-3.8-1.8-3.1-3.1-9.1-6.1-12.8-6.4-1.9-.1-3.9-.8-4.3-1.5-1.2-2.2-16.6-4.6-26.1-4-8.5.5-21.7 3.2-23.4 4.8-.6.5-2.3.9-3.9.9-5 0-19.9 8.6-27.4 15.9-11.8 11.2-24.5 32.1-26.2 43-.6 3.6-1.6 6.8-2.3 7.3-.7.4-69.7.8-153.4.8h-152l-8.5 7.6c-4.6 4.2-11.7 11-15.8 15.2-4.1 4.3-19.9 20.3-35 35.7-15.2 15.4-29.1 29.6-30.8 31.7-2.9 3.3-3.8 3.7-9.5 4.2-8.6.8-445.2 1.4-475 .6-29.4-.7-27.5.4-29.1-16.4-1-11.2-1.2-11.7-3.6-12.3-1.4-.3-25.2-.3-52.9 0-53.5.7-60.2.3-60.2-3.5 0-1-.7-2.1-1.6-2.5-.9-.3-7.1-6.3-13.8-13.2-6.6-6.9-17.7-18.1-24.6-24.8l-12.5-12.3-.5-30.2c-.3-16.7-.3-61.6 0-99.8s.3-70.5 0-71.7c-1.3-5.7-12.3-15.3-32.5-28.5-16.3-10.7-48.5-26.2-50.3-24.3-.3.3-1.2-.4-1.9-1.5-1.7-2.4-6.2-4.4-12.3-5.4-2.4-.4-5-1.2-5.8-1.9-2.4-1.9-11.4-5-18.5-6.2-2.1-.3-3.5-1-3.3-1.4.8-1.3-3.7-2.9-13.6-4.8-5.1-.9-9.5-2-9.8-2.4-1-1.2-14.6-4.7-23-6-4.7-.6-8.7-1.5-9-1.9-.8-1.2-12.7-4-16.8-4-5.5 0-23.3-3.5-26.7-5.3-1.6-.8-7.3-1.8-12.5-2.2s-14.7-2-21-3.6-16.6-3.4-22.8-4.1c-6.4-.7-10.7-1.5-10-2 .7-.4 1-.8.6-.8s-5.6-.9-11.5-2.1c-5.9-1.1-15.9-2.4-22.1-2.9-11.2-.7-16.1-1.9-8.6-2.1 7-.1.3-1.8-16.5-4.1-9-1.3-16-2.7-16.6-3.5-.5-.7-6.8-2.7-14-4.4-7.1-1.8-13.3-3.6-13.6-4.1s-5-1.8-10.5-2.8c-5.4-1.1-12.1-3.1-14.9-4.4-2.7-1.4-8.9-3.5-13.7-4.7-4.8-1.3-8.5-2.6-8.2-3 .5-.9-10.1-4.2-13.9-4.2-1.5 0-2.3-.3-1.7-.7 1.3-.8-9.3-5.8-14.2-6.6-2.1-.3-3.8-.9-3.8-1.3s-2.6-1.9-5.7-3.3c-3.2-1.4-6.9-3.1-8.3-3.7s-6.1-3.1-10.5-5.6-10.2-5.6-13-7.1c-6-3.2-18.3-10.7-24.5-14.9-2.5-1.8-7.6-5.3-11.5-8-3.8-2.7-11.4-8.4-16.7-12.7-5.4-4.3-10.2-7.8-10.8-7.8-.5 0-1-.4-1-.8 0-.5-3-3.3-6.7-6.2-32.4-25.8-62.6-59.4-86.1-95.8-6.6-10.3-26.2-48.1-26.2-50.7 0-.8-.9-2.4-2.1-3.6-2-2-3.5-10.1-2.3-12.1.3-.5 1.8.1 3.3 1.2 1.6 1 3.1 1.7 3.4 1.3.4-.3.9.2 1.3 1.1.8 2 51.7 53.3 58.9 59.3 2.8 2.3 7.5 6.2 10.5 8.7 3 2.6 10.7 8.5 17 13.3s14.7 11.2 18.5 14.3c3.9 3.1 9.3 7.1 12 9 30 20.2 33.2 22.2 43.8 27.5 3.7 1.8 7.3 3.8 8 4.3 1.1.8 7.9 4.6 15.2 8.5 5.9 3.2 20.4 9.7 21.4 9.7.6 0 4.3 1.6 8.3 3.5 3.9 1.9 8.9 4 11 4.6 2.1.5 3.8 1.3 3.8 1.8 0 .4 3.9 2.1 8.8 3.6 4.8 1.5 9.2 3.3 9.7 4 .6.6 5.5 2.7 11 4.5s10.2 3.6 10.5 4c.3.5 2.5 1.3 5 2 6.6 1.7 17.1 5.2 20 6.7 1.4.7 3.6 1.3 5 1.3 1.4.1 4.3.8 6.5 1.6 7.7 2.9 17.1 5.5 23.7 6.4 3.7.5 8.2 1.6 10 2.4 8.1 3.4 13.9 4.8 22 5.3 5.3.4 8.6 1 8.5 1.6-.3 1.9 6.3 3.4 21.8 5.2 10.3 1.1 15.4 2.1 16.1 3.1 1.2 1.6 5.6 2.4 24.4 4.9 7.1 1 14.1 2.5 16.1 3.5s7 2.1 11 2.5c12 1 27.3 3.7 29 5.1.8.8 6.2 1.9 12 2.5 10.1 1 23.1 4.2 25.6 6.1.6.5 4.7 1.2 9 1.5 4.5.3 9.3 1.3 11.3 2.4 3.8 1.9 15.1 5.3 21.5 6.4 2.2.4 4.7 1.2 5.5 1.9 1.4 1.2 5.3 2.3 19.7 5.7 2.9.7 5 1.6 4.8 1.9-.2.4 2.8 2 6.8 3.5s7.9 3.3 8.7 4 4.4 2.7 8 4.4c7.4 3.6 13 6.9 15.8 9.4 1 .9 2.4 1.7 3 1.7.7 0 1.2.4 1.2.9s.8 1.2 1.8 1.5 5.6 3.6 10.2 7.2c4.7 3.6 11.9 9.1 16 12.2 4.1 3 10.8 8.7 14.7 12.6 7 6.7 7.4 7 9 5.3 1.7-1.7 2.4-8.9 2.5-23.4 0-4.9-3.5-11.2-9.7-17.8-3.2-3.3-8.5-8.9-11.8-12.5-11.1-12-35.7-37.3-56.8-58.5-11.5-11.6-20.9-21.5-20.9-22.1 0-1.2-3.5-3.3-6.7-3.9-1.3-.2-12.5-.6-25-1-24.6-.6-39-1.3-43.8-2.1-1.6-.2-5-.6-7.5-.8s-6.2-1-8.2-1.9c-4.6-1.9-6-6.4-5.6-17l.3-7.2h48.1c34.4 0 48.8.3 50.5 1.2 1.3.6 4.5 2.1 7 3.2 4.6 2.1 8.8 6.3 30.6 30.6 14.1 15.6 17.4 19 18.4 18.8.5-.2 1.7.9 2.6 2.5 1 1.5 8.3 9.1 16.3 17 29.7 29.2 35.6 35.1 40.7 40.6 2.9 3.1 5.6 5.6 6.1 5.6 2 0 3.5 7.8 2.7 14.7-1.1 9.5-1.3 13.3-2 52.3-.7 39.5-.6 40.4 5.6 42 4.8 1.3 7.4 4.9 7.4 10.3 0 4.6-3.1 7.7-7.5 7.7-1.5 0-4.2.3-5.9.6l-3.1.6v168.7l23.3 23.5 23.2 23.4 7.8.7c7.5.7 16.4.2 17.6-1.1.3-.3.7-52.6.7-116.2.1-75.2.6-129.9 1.5-156.2.8-22.3 1.4-50.9 1.3-63.5-.1-27.4.5-25.9-14.3-40.5-5.3-5.2-12.3-12.3-15.5-15.8-3.3-3.4-6.2-6.2-6.6-6.2-.7 0-11-9.8-11-10.5 0-.8-4.8-5.2-6.4-5.8-.9-.4-1.6-1.1-1.6-1.6 0-1.3-4.3-5.6-6.4-6.4-.9-.4-1.6-1.2-1.6-1.8 0-1.2-11.4-13.2-28.4-29.7-13.7-13.3-24.9-24.5-39.7-39.7-7-7.2-18.9-19.1-26.5-26.6-7.7-7.4-18.6-18.3-24.2-24.2-7.2-7.4-11.5-11-14-11.8s-18-1.3-47.9-1.6l-44.2-.5-.7 2.8c-2.4 9.6-13.4 21.9-26.8 30-8.3 5-9 5.3-16.1 6.4-7.7 1.2-21.4 0-29.5-2.6-8.5-2.7-20.1-11.8-26.5-20.9-6.2-8.7-8.2-13.2-9.1-20.5-1.4-11.2.1-31.5 2.5-32.9.5-.4 1.6-2.2 2.5-4.1 3-6.3 4.4-8.4 11.5-16.1 11-12 22.5-16.9 40.2-16.9 7.1 0 16.3 2.3 18.7 4.6.8.8 2.8 1.8 4.4 2.1 2 .4 6.5 3.9 13.2 10.4 5.5 5.4 10.4 9.9 10.8 9.9s1 1.1 1.4 2.5c.3 1.4 1 2.5 1.5 2.5s.9 2 .9 4.5c0 3.3.6 5 2.2 6.5 2.1 1.9 3.5 2 40.2 2.2 21 .2 43.3.3 49.7.3h11.7l5.3 5c3 2.7 7.1 7 9.3 9.5 9.3 10.8 29 31 30.3 31 .7 0 1.3.6 1.3 1.3 0 1.1 48.2 49.7 49.3 49.7.2 0 8.1 7.6 17.5 17 9.4 9.3 17.4 17 17.8 17 1 0 16.1 15.6 18.1 18.7.8 1.3 2.2 2.3 2.9 2.3.8 0 1.4.4 1.4.9 0 .9 17.9 18.9 32.2 32.3 5.1 4.8 13.6 12.8 18.8 17.9l9.5 9.2.2 187c.1 154.4.4 187.1 1.5 187.9.7.5 7.2.7 15.3.3 17.9-.8 19.8-1 27-3.1 5.6-1.6 21-1.8 222.8-2.1 151.3-.2 217.4-.6 218.8-1.3 1.1-.6 3.3-3 5-5.3s16.1-17.5 32.2-33.7c42.9-43.4 76.4-77.7 110.2-112.5 16.5-17 42.6-43.7 58-59.4 15.4-15.8 41.5-42.5 58-59.6 54-55.7 65.7-67.8 78.6-81 21.6-22.2 47-48.5 59.5-61.5 22-23.1 20.8-22 24.5-22 3.3 0 11.7 3.5 13.1 5.4.3.5 6.4 1.4 13.5 2 15 1.1 31.5-.3 37.2-3.2 2-1 4.7-2.2 6.1-2.5 1.4-.4 6-2.7 10.3-5.2 8.8-5.2 26.9-22.5 30.2-29 1.1-2.2 3.2-5.9 4.7-8.4 1.5-2.4 3.3-6 3.9-8s2-5.5 3.1-7.8c2.8-6.1 4.1-16.5 3.5-27.8-1.2-20.3-10.6-42.1-23.9-55.7-12.3-12.4-33-23.8-47-25.8-8.6-1.3-26.2-1.2-33.2.1-13.2 2.4-33.3 12.2-41.8 20.4-13.4 12.8-23.9 33.5-26.9 52.8-.7 4.2-.9 12.7-.6 20.2.5 12.1.8 13.7 4.6 23.7 2.2 5.8 5.6 12.7 7.5 15.3 4.5 5.9 4.9 11.4 1.1 16.5-3.9 5.3-28.5 30.7-81.7 84.1-27.1 27.3-54 54.5-59.8 60.5-5.7 6-19 19.7-29.5 30.4-10.4 10.7-23.2 24-28.4 29.5-5.1 5.5-18.9 19.7-30.5 31.5s-26.1 26.8-32.1 33.4c-6.1 6.5-18.4 19.3-27.5 28.5-9.1 9.1-35.2 35.9-58 59.6-22.8 23.6-45.7 47.3-51 52.5l-9.4 9.5h-212.7c-117 0-213.1-.4-213.5-.8-.9-.9-.6-44.8.3-48.5.3-1.2 1.5-2.8 2.7-3.5 1.6-.9 33.6-1.2 141.1-1.4 76.5-.1 139.5-.2 140.2-.3 1.1 0 26.6-25.5 44.4-44.5 5.2-5.5 19.3-19.9 31.4-32 36.4-36.4 69.1-69.9 87.6-89.7 9.5-10.3 27.2-28.8 39.1-41.2l21.7-22.5.3-32.8c.2-18 .5-80.1.6-137.8.3-94.4.7-183.2 1.1-234.5.3-25.1.4-25.8 5.5-28.1 2.3-1 5.8-1.9 7.9-1.9 2.4 0 4-.5 4.3-1.5.3-.8 3.6-2.8 7.2-4.6 7.7-3.6 15.9-9.7 21.9-16.2 4.5-4.9 11.3-14.9 11.3-16.7 0-.5.3-1 .8-1 .7 0 1.2-1 5.2-10.5 1.2-2.8 2.9-6.5 3.7-8.4 4.1-9 4.3-43.2.4-48.6-.4-.6-1.6-3.3-2.5-6-3.6-10-15.5-27.7-23.2-34.5-10.5-9.3-27-18.2-36.7-19.9-8.1-1.4-35.6-1.5-42.2-.2-9.7 2-19.2 6.1-28 12.1-13.1 9-29 32-32.8 47.5-4.3 16.8-5.4 33.3-2.7 37 .4.5 1.1 3.6 1.5 6.8 1.3 10.9 7.7 25.2 16.5 36.7 4.7 6.2 16.8 16.8 22.3 19.6 1.7.9 5 2.9 7.2 4.4s6.1 3.3 8.5 4c9.2 2.5 10.7 3.6 11.5 8.2 1.8 10.6 2.6 144.7 1.1 193.3-.3 11.5-.6 33.4-.6 48.5.1 15.1.2 41 .2 57.5.1 16.5-.2 37.2-.6 46s-.9 25.9-1.1 38.1c-.3 20.5-.5 22.4-2.5 26.4-2.5 5-9 12-40.9 44.5-26.4 26.8-46.1 47.2-72.7 75-49.6 51.9-62.7 65.5-69.5 71.9-4.1 3.8-10.2 10.1-13.7 14s-7.6 7.8-9 8.6c-2.8 1.5-22.2 1.6-193.7 1.1-64.2-.2-72.8-.6-75-2.7-2.1-2.1-2.6-10.4-1.7-28.6.5-11.3 1.2-17.2 2-18 1-1 20.3-1.3 94-1.3 86.8 0 92.9-.1 95.3-1.8 1.4-.9 8.2-7.9 15.1-15.5 6.8-7.5 24.6-26.1 39.4-41.2 62.4-63.7 95.6-98.5 101.2-106.2 1.5-2 3.7-4.2 5-4.7 1.2-.6 2.2-1.9 2.2-3 0-1.3.8-2.1 2.2-2.3 1.3-.2 2.8-1.4 3.5-2.8.8-1.8 1.2-21.2 1.5-72.7.2-48.3.6-70.5 1.4-71.3.6-.6 3.7-1.8 7-2.7 3.2-.9 6.8-2.4 7.9-3.3s4.5-2.9 7.5-4.4c6.4-3.1 20.8-15.5 27.9-24 5.4-6.4 10.9-16.8 13.8-26.1 1.5-4.9 1.8-9.1 1.7-23.5 0-9.6-.6-19.9-1.2-22.8-.7-2.9-4-11-7.3-18-5.5-11.3-7-13.5-13.9-20.2-7.7-7.6-14.1-12-28.4-19.4-10.3-5.3-17.7-6.3-41.1-5.5l-18 .5-7.8 3.7c-4.2 2-8.1 3.7-8.5 3.7-1.6 0-13.9 9.2-18.9 14.1-10.5 10.3-19.1 26.2-21.9 40.7-1.6 8.5-1.8 27.9-.4 36.9.9 5.3 6.4 20.8 9 25.3 8.8 15 14.3 21.7 22.4 27 2 1.4 4.5 3.2 5.4 4.1 2.9 2.8 14.7 8.9 20.3 10.5 3 .9 6.4 2.2 7.7 3l2.2 1.4v62.8c-.1 49.7-.3 63.2-1.4 65.1-.7 1.2-9.6 10.7-19.7 21-10.2 10.2-22 22.4-26.4 27.1-4.3 4.7-17.3 18.2-28.9 30.1s-24.5 25.1-28.6 29.5c-19.6 20.7-27.2 28.5-38.8 39.3l-12.5 11.6h-84.3c-46.3 0-84.6-.4-85.1-.8-1.1-1.1-1.1-57.3 0-58.4.5-.4 20.3-.9 44-1.1 23.8-.1 44.2-.4 45.4-.7s3.8-2.7 5.8-5.3 13-14.2 24.3-25.7c11.4-11.6 24.6-25.3 29.3-30.5 4.8-5.2 19.8-20.8 33.4-34.5 13.6-13.8 25.4-26.3 26.2-27.9 1.2-2.2 1.6-8.4 1.9-29.5.8-56.5 1.4-222.7 1.5-383.5 0-102.3.4-168.6.9-169.6s5.2-3.8 10.4-6.3c26.5-12.7 41-27.5 48.5-49.2 1.1-3.3 2.9-8.6 4-11.7 2.8-8 3.5-19.1 2.2-34.7-1-12.6-1.4-14-5.5-23.2-5.2-11.6-11.9-22-17.3-27-17.2-15.8-30.6-23.5-43.5-25-10.9-1.2-31.4-1-39.3.5-13.4 2.6-33.2 13.9-41.9 24-16.1 18.9-22 34.9-21.9 59.6 0 18.7 2 28.8 8.4 41.8 4.1 8.5 6.5 11.9 13.2 18.9 10.6 11.1 18.9 17.3 31.3 23.3 5.5 2.8 10.4 5 10.8 5s2.2 1 3.9 2.2l3 2.2-.7 279.8c-.6 244.2-.9 280.4-2.2 284.1-.9 2.4-3.9 6.7-7.3 10.2-3.2 3.3-9.3 10-13.5 15-4.3 4.9-24.1 25.4-44 45.5s-37.5 38.1-39 40l-2.9 3.5-32.7.3c-38.3.3-36.8.7-38.1-9.4-1.1-8.8-1-33.3.2-38.3.9-4 4.5-7.9 40.4-43.9 21.7-21.8 39.5-40.1 39.5-40.7 0-.5.1-58.2.3-128 .2-134.6.1-131.5 4.8-131.5 7.4 0 27.6-13.4 41.9-27.9 7.2-7.3 9.4-10.2 13.7-19.1 3-6 5.8-13.3 6.5-17 .7-3.6 1.6-6.8 2.1-7.1.5-.4.7-1.3.5-2-.3-.8-.1-2.2.4-3.2 1.4-2.8 1.3-24.4-.1-26.1-.7-.8-1.9-5.9-2.7-11.3-2.7-18.4-15.6-38.5-31.3-48.7-19.2-12.5-25.3-14.1-53.2-13.9l-21.6.1-11.9 4.9c-8.5 3.5-13.9 6.5-18.7 10.4-7.9 6.2-13.7 8.9-13.7 6.1.3-10.6-1.2-391.1-1.5-406.5-.4-16.8-.8-21.1-2-22.3-.8-.9-1.5-2.2-1.5-3s-.8-1.8-1.7-2.1c-1-.4-2.6-1.5-3.7-2.4-1-1-3.5-2.6-5.5-3.6-3.4-1.7-7.2-1.8-56.1-1.5-40.9.3-54.2.6-60.5 1.8-18.1 3.3-31.4 4.4-73.2 6-13.4.5-17.7 1-21.3 2.6-3.3 1.4-8.4 2.1-19.5 2.8-16.5 1-30.9 2.5-36.9 3.9-2.1.5-4.6.7-5.5.4-1.3-.4-1.3-.3-.2.5 1.7 1.2-8 2.8-22.4 3.7-11 .7-20.7 2.4-24.4 4.5-1.4.7-7.7 1.9-14 2.6-11.4 1.3-14.1 1.8-27.1 5.4-3.6 1-10.5 2.1-15.4 2.5-4.9.3-10.1 1.2-11.5 1.9-3.4 1.8-15.7 4.5-24.8 5.6-4.3.5-7.9 1.5-8.8 2.4-.9.8-3.8 1.8-6.5 2.2-2.8.4-5 1-5 1.4s-4.5 1.1-10 1.5q-10.05.75-10.8 2.1c-.7 1.3-13 4.5-22.5 5.9-2.6.4-5.3 1.3-6 1.9-1.7 1.6-5.9 3.1-14.7 5.1-4.1 1-9.3 2.6-11.5 3.6s-8 3-13 4.5c-4.9 1.4-9.4 3-10 3.4-.5.5-3.5 1.7-6.5 2.8-22.6 8.1-33.4 12.6-63.8 26.6-6.8 3.1-12.7 5.6-13.3 5.6-.5 0-.9.4-.9 1 0 .5-.5 1-1.1 1-2 0-30.3 14.5-42 21.6-3.1 1.9-5.9 3.4-6.2 3.4s-4.2 2.5-8.7 5.5-8.4 5.5-8.7 5.5c-.8 0-21.1 13.8-30.8 21-9.6 7.1-27.7 23.8-43.3 39.9-21 21.8-42.7 60.7-50.2 90-1.1 4.5-2.5 9-3 9.9-1.4 2.4-4.8 16.8-5.5 23.2-.3 3-1.3 8.4-2.1 12-.9 4-1.5 13-1.7 23.5l-.2 17 6.3-.2c3.5-.2 7.8-.9 9.5-1.7 4.3-1.9 16.8-5.3 24.1-6.6 3.2-.5 6.4-1.4 7-1.9 1.3-1.1 22.7-4.7 33.4-5.6 4.5-.5 7.5-1.2 8-2.1.5-1 4.5-1.7 13.7-2.4 16.8-1.3 38.8-3.8 44.5-5 12-2.6 20.4-3 60-3 42.7 0 70.6 1.2 74.1 3.1 2 1 20.7 3 45.8 4.9 14.4 1.1 17.4 1.6 16.6 2.9-.5.9 3.3 1.4 22 3.1 6.1.5 12.8 1.4 15 2 2.2.5 5.4 1 7.2 1 1.9 0 3.6.7 4.1 1.6.7 1.2 3.7 1.8 13.3 2.6 6.8.5 13.3 1.3 14.4 1.7 5.3 2.2 18.8 5.1 26 5.6 4.4.3 11.4 1.4 15.5 2.5 4.1 1 10.2 2.1 13.5 2.5s8.5 1.3 11.5 2.1 7.3 1.4 9.5 1.4c2.3 0 7.1.9 10.6 1.9 8 2.4 25.6 4.8 42.2 5.9 7.9.5 13.1 1.3 13.6 2 1.5 2.5 27.8 4.3 69.6 4.8 44.3.5 47.5.7 47.5 2.9 0 .8-.4 1.5-.9 1.5s-1.1.9-1.4 1.9c-.3 1.3-1.7 2.2-4.3 2.7-2.2.4-5.5 1.9-7.4 3.4-3.8 3-8.9 5-12.7 5-1.3 0-4.9 1.1-8 2.5-6 2.8-15.4 5.5-18.9 5.5-1.3 0-3 .7-3.8 1.5-2.2 2.3-5.7 3.2-18.1 5-13.7 2-16 2.5-14.5 3.5 1.5.9-8.3 2.8-19 3.5-13.4 1-18 1.4-26 2.6-4.2.6-11.1.8-15.5.5-19-1.3-22.6-1.6-34-2.5-6.6-.6-15.6-1.3-20-1.7-9.1-.6-19.2-2.9-16-3.6 1.1-.2-4.1-1-11.6-1.7-17.9-1.6-36.9-4.7-37.9-6.1-.3-.4-7.6-1.3-16.4-1.9-18.9-1.4-34.6-3.5-37.4-5-1.2-.6-4.7-1.1-7.9-1.1-11.2-.1-47.1-4.4-58.3-7-6.2-1.5-135.5-2.5-147.5-1.2-4.9.6-12.6 2-16.9 3.1-8.3 2.1-9.6 2.3-23.5 3.9-4.6.5-8.6 1.4-9 2-.5.9-12.5 3.7-27 6.3-2.9.5-6.2 1.4-7.2 1.9-.9.6-7.3 2.3-14.1 4s-13.7 3.7-15.3 4.4c-1.7.8-6.6 2.4-11 3.6s-8.9 2.6-10 3.1-6.3 2.5-11.5 4.3c-12.8 4.4-27 9.8-35.7 13.5-11.3 4.7-43.3 20.8-49.2 24.6-2.9 1.9-5.5 3.5-5.7 3.5-.3 0-3 1.9-6.1 4.1-6.7 5-11.1 5.6-12.9 1.9-4.6-9.5-4.8-10.3-5-25.5-.1-8.3.2-17.5.8-20.5.5-3 1.7-11.4 2.7-18.6 1.9-13.7 3.2-18.6 6.2-24.4 1.1-1.9 1.9-4.2 1.9-5 0-2 3.2-11.7 6.8-21 1.7-4.1 4.2-10.7 5.7-14.5 1.4-3.9 3.9-9.7 5.6-13.1 1.6-3.4 2.9-6.4 2.9-6.8 0-.8 7.8-18.5 11.5-26.1 3.4-7 8.4-18.1 10.5-23.6 1.1-2.6 3.3-6.9 4.9-9.7 1.7-2.7 3.1-5.3 3.1-5.8s3.6-8.1 8-17 8-16.6 8-17.1c0-.4.8-2.4 1.9-4.3 1-1.9 3.3-7.1 5.1-11.5s3.7-8.5 4.1-9c.4-.6 1.5-4.4 2.4-8.5 1.4-6.7 2.6-10.4 5.6-17.5.4-1.1 1.7-8.1 2.8-15.7 1.2-7.5 2.5-14.8 3-16.1 2.6-6.8 4.5-28.9 4.5-53.2.1-40.9-1.1-62.3-4.1-71-.2-.6-1-4.8-1.8-9.5s-1.9-10.7-2.5-13.3c-.5-2.7-1-6.2-1-7.9s-.6-3.9-1.4-4.7c-.7-.9-2.4-5.9-3.6-11.1s-3.2-11.8-4.4-14.5c-1.3-2.8-3.1-7.5-4.1-10.5-2.1-6.6-10.6-23-18.3-35.5-3.1-5-5.9-9.2-6.2-9.5s-4-4.8-8.3-10.1c-5.1-6.4-8.6-9.8-10.2-10.2-1.4-.2-2.5-.3-2.5-.2 0 1 6.1 13.2 9.5 18.9 6.4 11.1 16.1 31.6 17.4 37.1.7 2.7 1.7 5.3 2.3 5.6 1 .7 3.1 8.9 4.8 19.4.6 3.3 1.2 7.5 1.5 9.3.4 1.8 1 3 1.6 2.7.5-.4.9.2 1 1.2 0 1 .2 2.9.4 4.3 3.6 26.6 3.7 29.5 3.2 62.9-.5 34-1.9 49.5-5.1 57.2-.7 1.8-1.7 5.9-2.1 8.9-.9 7.5-4.1 21-5.9 25.1-.7 1.9-2.4 7-3.6 11.3-1.1 4.4-3.2 10.3-4.6 13.1-1.3 2.9-2.4 5.6-2.4 6 0 .5-1.3 3.6-2.9 6.9-1.6 3.4-5.1 10.8-7.7 16.6-12.5 27.9-33.4 67.7-47.4 90.4-2.3 3.9-5.9 10.2-8 14-2 3.9-6.2 11.6-9.2 17.1-3.1 5.5-6.4 12-7.4 14.5s-2.1 4.7-2.5 5c-.5.3-2 4.2-3.5 8.5-1.4 4.4-3.4 9.7-4.5 11.7-1 2-1.9 4.3-1.9 5.1 0 .7-1.5 6-3.4 11.8-2.3 7.1-3.8 14.2-4.5 21.9-1.4 14.2-3 23.1-4.3 24.7-1 1.3-6.4 0-8.4-2.1-4.3-4.2-4.5-35.1-.4-45.1.5-1.1 1.6-6.7 2.5-12.5s2.7-13.2 4-16.5 3.3-9.4 4.5-13.5 2.8-8.6 3.6-10c.7-1.4 3.8-8.6 6.8-16 4.7-11.4 14.2-31 29.3-60.5 4.6-9.1 11.3-23.6 11.3-24.6 0-.5 1.3-3.7 2.9-7.1 4.4-9.4 9.7-23.5 15.2-40.3 2.6-8.3 5.3-16.4 5.9-18 3-7.9 6.2-25.7 7.4-39.8.2-3.1 1.2-7.2 2.1-9 3.1-6.1 3.7-19.6 3.2-67.2-.5-43.2-1.3-55-3.6-56.4-.5-.4-1.9-7.1-3-15.1-2.4-16.4-3.8-22-5.8-22-.8 0-1.3-1.3-1.3-3.8 0-5.6-1.5-10.2-9.2-27.7-14.1-32.5-33-65-53.2-91.9-6.2-8.3-19.2-21.9-28.1-29.5-8.1-6.9-34.6-26.5-40-29.6-2.7-1.6-8-4.8-11.8-7.2-3.7-2.4-13.3-7.7-21.5-11.9-8.1-4.2-15.1-8-15.7-8.4-.5-.4-2.8-1.3-5-2s-5.6-2.1-7.5-3.1c-4.4-2.3-23.9-10.9-26.2-11.6-1.2-.4-1.8 0-1.8 1 0 1.7 7.2 8 19.1 16.5 4.1 2.9 11 7.9 15.4 11.1 4.4 3.1 8.8 6.2 9.6 6.7.9.5 6.3 5.2 11.9 10.4 35.1 32.5 63.7 68.9 81.9 104.1 3.8 7.4 7.6 14.7 8.5 16.4.9 1.6 1.6 3.3 1.6 3.8 0 .7 2.6 6.8 5.5 13.2.8 1.6 2 5.2 2.6 8 .7 2.7 1.6 5.2 2 5.5 1 .7 3.8 10.8 5 18 .5 3 1.8 7.3 2.8 9.5 2.4 4.9 5.1 21.8 5.1 31.1 0 7.2-2 15.6-3.7 16.1-1.5.5-4.9-5.3-6.3-10.7-.6-2.5-2.4-7-3.9-10-1.6-3-3.2-6.6-3.6-8-.7-2.3-6.8-16.2-11.5-26.5-1-2.2-3.3-7.2-5-11-8.1-17.7-32.1-54.9-46.5-72-2.7-3.3-6.1-7.3-7.5-8.9-16.7-19.9-33.5-35-59.5-53.5-14.2-10.1-34-23-43.2-28.2-2.3-1.3-8.9-5.2-14.5-8.5-5.7-3.4-16.1-9.4-23.3-13.4-43.4-24.2-58.7-34.1-87.8-56.8-7.1-5.5-25.3-23.6-33-32.7-15.2-18-34.3-56.6-38-77-.9-4.6-1.8-6.9-3.4-8s-2.3-1.2-3.1-.2m152.3 354.8c1.1.5 7.4 1.6 14 2.4 18.9 2.4 23.6 3.4 29.6 6 3.1 1.4 6.5 2.5 7.6 2.5 1 0 2.3.4 2.9.8.5.5 2.9 1.4 5.4 2.1 5.6 1.5 15.3 5.3 16 6.1.3.4 4.5 2.1 9.5 3.9 4.9 1.7 9.2 3.5 9.5 3.9s3.4 2.2 7 4 8 4.3 9.8 5.5 6.1 4 9.5 6.2c9.2 5.8 32.4 24.5 38.5 30.8 2.8 3 5.6 5.7 6 5.9.5.2 2.7 2.9 5 6 2.3 3.2 5 6.5 6.1 7.5 2.4 2.4 11.5 14.9 19.8 27.3 4.8 7.3 16.5 27.6 18.2 31.7.7 1.8 1.7 3.3 2.1 3.3s1.2 1.9 1.9 4.2c1.3 4.2 2.9 8.3 5.6 14.3 1.2 2.5 2.9 8.3 3.9 13 .2.5.8 2.1 1.4 3.5 1.7 3.9 4.1 17.5 5.2 29.4.5 6 1.5 11.3 2.1 11.6 1.4.9 2.1 28.4.9 36-1.3 8.3-1.9 12.6-3 23.4-1.2 11.2-4.4 24.9-6.6 28-.8 1.1-1.4 3-1.4 4.1 0 4.2-12.7 26.9-21.6 38.5-12.3 16.2-41.9 44-58.5 55.1-12.4 8.3-25.5 15.2-30.9 16.4-1.9.4-6.2 1.8-9.4 3.2-8.4 3.5-18 5.1-33.6 5.6-31.8 1-61.5-5.8-93.9-21.5-27.8-13.4-60.1-36.7-75.3-54.2-8.2-9.4-24.5-32.1-27.8-38.6-1.2-2.5-2.6-4.7-3.1-5-1.9-1.3-16.3-39.1-17.5-46-.8-4.5-2.3-9.5-4.4-14.5-2.8-6.7-4.2-24.7-4.2-55.2 0-30.8-.1-29.3 6.6-59.8.9-3.8 1.6-8.9 1.6-11.3 0-3 .3-4.1 1.2-3.6.8.5.9.2.4-1.1-.4-1-.2-2.1.4-2.5 1.3-.8 6-16.5 6-20.1 0-1.5.4-3 .9-3.3.4-.3 1.9-3.4 3.1-6.8 1.3-3.5 4-9.7 6.1-13.8 2-4.1 4-8.6 4.4-10 1-3.4 12-20 22.8-34.2 9.2-12.2 17.2-20.3 22.9-23.2 1.8-.9 5.1-3 7.3-4.6s5.4-3.1 7.2-3.5c1.8-.3 3.8-1.1 4.5-1.8 2.1-2.1 11.4-4.6 21.1-5.8 5.1-.6 11.5-1.4 14.2-1.8 7-1 20.6-1 23 0m1432.3 224.7c12.6 4 23 13.4 30.1 27.4 3.8 7.6 4.2 9.1 4.7 18.3 1.4 25-9.1 43-31.6 54.3-9.5 4.7-9.5 4.7-19.5 4.7-9.4-.1-10.5-.3-17.5-3.7-12-5.7-21.7-14.2-28-24.3-3.9-6.4-8.4-28.5-6-30 .5-.3 1-2.2 1-4.1 0-4.5 3.4-14.4 6.7-19.7 4-6.5 15.4-17.1 21.4-20.1 7-3.4 12.1-4.4 23.6-4.5 6.3-.1 10.9.5 15.1 1.7m299.9 227.7c12.3 3.9 24.9 13.7 28.8 22.4.9 2 2.5 5.2 3.5 7.2 5.1 9.4 5.9 21.2 2.5 34.9-3.6 14.4-16 28.2-30.6 34.1-7.1 2.9-24.4 3.7-33.9 1.6-7.8-1.6-18.8-8.4-25.3-15.7-4.9-5.4-10.1-14.6-12.2-21.7-2.9-9.6-1.3-25 3.5-34 1.1-2.1 2-4.1 2-4.6s2.1-3.6 4.6-6.9c5.8-7.4 17.1-15.2 24.7-16.8 17.1-3.7 22.2-3.8 32.4-.5m-438.2 57.6c6.1 1.6 14.7 5.1 17.4 7.1 1.3 1 2.9 1.8 3.5 1.8 2.4.1 15.6 14.1 15.6 16.5 0 .5.6 1.6 1.4 2.4 5 5.6 8 32.8 4.3 38.2-.9 1.3-1.7 3.3-1.7 4.4 0 7-13.2 24.6-22.1 29.4-2.4 1.2-6.5 3.4-9 4.8-14.8 7.7-40.1 3.5-53.8-9.1-4.7-4.3-10.9-12.9-13.3-18.4-2.1-4.6-5.2-21.8-4.3-23.3.3-.4.1-1.1-.5-1.4-.8-.5-.7-1.1.1-2.1.6-.8 1-1.7.7-2-1.1-1 3.2-14.1 6.8-20.9 4.8-9.2 9.1-13.6 19.1-19.6 11.8-7.1 26.4-10.3 35.8-7.8m-64.6 123.7c4.6 6.5 16.1 13.1 30.6 17.6 11.4 3.5 10.5 2.4 10.6 12.3.3 26.4 0 120.2-.5 169.8-.5 47.4-.9 57.9-2.2 62.5-1.5 5.1-2.9 6.8-21.6 25.5-16.4 16.3-20.6 20-22.9 20-2.6.1-2.9-.3-3.4-5-.4-2.7-.7-71.9-.8-153.6-.2-124.7 0-148.9 1.2-150.2 2.2-2.7 6.7-2.1 9 1.1m356.2 81.4c11.2 5.3 17.3 10.5 23.7 20.1 4 6.1 4.6 7.8 5.5 15.5 2.9 23.6-5.3 42.6-23.6 54.6-18.5 12.2-43.6 8.9-61.8-8.1-11.6-10.9-15.5-21.5-14.7-40.5.3-9 .8-11.1 3.4-16.8 8-16.8 21.5-26.8 39-29 12.8-1.6 17.9-.8 28.5 4.2m561.3 58.7c9.4 4.5 12.9 7 21.1 15 4.9 4.8 6.5 7.2 8.4 12.8 1.3 3.7 3.1 7.6 4 8.6 1.2 1.4 1.6 3.8 1.5 9.7-.1 6.5-.8 9.6-3.9 17.7-5 13.5-5.2 13.7-12.3 21.4-5.3 5.7-7.9 7.6-16.5 11.7-15.2 7.4-26.3 7.7-40.6 1.1-3.6-1.7-7.7-3.6-9.1-4.2-1.4-.7-5.7-4.4-9.6-8.2-11.4-11.4-15-21.4-14.2-39.6.4-7.4 1-10.7 3-15 6.5-14.1 14.1-22.5 25.8-28.4 8.9-4.5 16.4-6.3 26.4-6.4 7.2-.1 8.6.2 16 3.8m-1987.9 67.8c.7 2.3 1.6 6.4 1.9 9 1 6.7 2.6 11.4 3.7 10.8.5-.4.9-.4.9-.1 0 .2.7 3.7 1.5 7.8 1.5 7.8 3.1 12.4 5.8 17.4.9 1.8 1.9 5 2.3 7.3s1 4.1 1.5 4.1.9.9.9 2 .9 2.9 1.9 3.9 2.2 3.4 2.6 5.2c.7 3.5 1.9 6.6 6.1 15.5 1.3 2.8 2.4 5.6 2.4 6.2 0 1.4 6.5 13.9 10.4 20 1.5 2.4 3.6 5.9 4.7 7.8 1 1.9 2.4 4.1 2.9 4.7.5.7 4.2 6 8 11.9 6.7 10.1 27.9 36.3 41.3 51.1 12.3 13.5 54.7 49.7 69.7 59.5 4.7 3 10.3 7 12.5 8.7 2.2 1.8 8 5.7 12.8 8.6 19.1 11.7 24.7 14.9 26.3 14.9.7 0 2 .8 3 1.7 3 3.1 40.9 22.3 43.9 22.3.8 0 1.8.7 2.1 1.5s2.5 2 4.8 2.7c2.2.6 6.8 2.6 10.1 4.3 3.4 1.8 8.3 3.4 10.9 3.7 2.7.3 5.1 1 5.5 1.4 2.2 3.1 8.1 5.9 13.1 6.4 3.2.3 5.5 1 5.5 1.7 0 .6.3 1.4.7 1.8 1 1 14.9 4.5 18.1 4.5 1.5 0 3.5.9 4.4 2 1 1.1 2.2 2 2.8 2 .5 0 2.2.6 3.7 1.4 1.4.8 5 1.7 7.9 2.1s6.9 1.6 8.9 2.6c1.9 1 6.9 2.5 11 3.4s8.7 1.8 10.2 2.2c1.5.3 2.6.9 2.3 1.3-.6.9 9.5 4 13.3 4 5.3 0 13.5 2.1 17.7 4.5 2.8 1.6 6.5 2.5 12.4 3 4.5.4 9.5 1.3 11 2.1 1.4.8 3.1 1.4 3.6 1.4.6 0 2.8.9 5 2 2.8 1.4 5.9 2 11 2 4.4 0 7.8.5 9 1.4 2.8 1.9 11.3 4.4 22.5 6.6 5.2 1 12.5 2.9 16.1 4.3 3.7 1.4 9.4 2.9 12.8 3.3 3.7.4 6.1 1.1 6.1 1.9 0 1.1 14.5 6.5 17.6 6.5.8 0 1.4.4 1.4 1 0 .5.8 1 1.8 1 .9 0 2.6.7 3.6 1.5 1.1.8 2.7 1.5 3.5 1.5.9.1 3.4.9 5.6 2s4.6 1.9 5.3 2c.6 0 1.2.4 1.2.8s2.7 2 6.1 3.6c6.2 2.8 13.9 7.7 17.4 10.9 1.1 1 3.4 2.6 5 3.4 1.7.9 5.3 3.3 8 5.4 2.8 2.2 5.7 4.5 6.6 5.2 3.7 2.7 21.9 20.8 29.5 29.2 7.3 8.2 16.2 21.1 24.3 35.5 3.9 6.9 9.1 17.7 9.1 19 0 .6.7 1 1.5 1 .9 0 1.5.9 1.5 2.5 0 1.4.4 3.3.9 4.3 3 6 7.4 17.4 8.2 21 .5 2.4 1.7 6.3 2.8 8.6 1 2.4 2.7 7.6 3.7 11.7.9 4.1 2.7 9.6 4 12.4 1.2 2.8 3.2 11.5 4.4 19.5 1.3 8 2.7 14.7 3 15 .7.4 1.4 4.2 2.5 12 .2 1.4.8 8.1 1.4 15 1.5 16.5 3.2 29 4.2 29 .4 0 1 3.9 1.4 8.7 1.6 21.6 3.6 38.4 5.1 41.9.9 2.2 2.5 7.6 3.5 12 1 4.5 3.4 11.5 5.3 15.5 2 4.1 3.6 7.9 3.6 8.5s1.6 3.3 3.5 6 3.5 5.5 3.5 6.2c0 1.9 9.9 15 16.1 21.3 7.5 7.5 20.6 17.9 22.7 17.9.5 0 2.8 1.8 5.1 3.9 2.4 2.2 5.6 4.3 7.2 4.6 1.6.4 2.9 1 2.9 1.3 0 .7 6.2 4.2 11 6.2 1.4.6 3.9 1.8 5.5 2.8 1.7 1 5.9 2.6 9.5 3.7 3.6 1 7.5 2.7 8.8 3.6 1.2 1 4.1 2 6.3 2.4 3.8.7 8.7 2.5 16.4 6 1.7.8 5.1 2.3 7.8 3.4 3.8 1.6 4.7 2.5 4.7 4.4 0 5-1.1 5.2-32.9 5.5-16.3.2-38.5-.1-49.3-.6l-19.6-.9-4.8-3.2c-2.6-1.7-6-3.1-7.6-3.1h-2.9l.7 14.7c.8 19-1.1 32.6-5.1 36-1.4 1.2-2.5 2.4-2.5 2.6 0 .5-13.1 14.6-29.6 31.6-25.7 26.8-31.6 33.2-42.6 46.7-4 5-9.9 12.2-11.3 13.7-.6.7-1.9 1.7-3 2.3-4.4 2.4-4.5 7.7-.1 11.7 4.9 4.6 6 8.4 6.4 22.2.5 17.2-.8 24.3-6.5 34-5.9 10-12.7 17.2-19.6 20.5-3.4 1.7-5.3 3.3-5.5 4.7-.4 2.5-2.5 2.8-25.8 2.8-18.4 0-23.4-.9-23.4-4.1 0-.7-2.2-2-4.8-2.8-4.5-1.5-7.4-3.9-18.6-15.9-1.4-1.5-2.8-4-3.1-5.5-1.9-8.8-2.8-11.2-4.5-11.2-2.1 0-3-5.3-3-17.9 0-9.8 1.4-16.1 3.5-16.1.9 0 1.5-1 1.5-2.4s.5-2.8 1-3.1c.6-.3 1-1.8 1-3.4 0-1.9 1.3-4 4.5-7.1 2.5-2.4 4.5-5 4.5-5.7s1.8-2.4 4-3.8 4-2.9 4-3.3c0-1.4 8.6-5.2 11.7-5.2 1.6 0 5.2-1.1 8-2.5 4.5-2.3 6.1-2.5 14.4-2.3 8.6.3 9.4.5 9.4 2.3 0 1.6.9 2.1 5 2.7 8.7 1.1 11.1.2 14.6-5.6 4.4-7.1 15-19.6 29.4-34.5 6.7-6.9 16-16.9 20.5-22.1 4.6-5.2 13-14.5 18.8-20.7 10.8-11.5 16-18.1 19.3-24.6 1.8-3.4 1.9-4.8 1.1-17-1.2-17.7-2.2-19.9-15.8-31.8-5.8-5.1-12.9-11.9-15.9-15.1-5.4-5.8-12.5-15.9-12.5-17.7 0-.5-.6-1.6-1.4-2.4s-3.1-4.5-5.1-8.3-4-7.4-4.5-7.9c-.5-.6-1.6-3.9-2.5-7.4-2.1-8.1-4.5-14.2-5.4-13.7-.4.3-1.5-3.6-2.4-8.5s-2.8-11-4.2-13.7c-2.2-4.2-2.5-6.8-3.7-24.6-1-17.5-1.4-20.1-3.2-21.7-2.2-2.1-3.5-8.5-3.5-18.4-.1-8.4-2.5-22.9-5-30.5-1-3-2.4-9.6-3.1-14.5-.7-5-2.1-10.6-3.1-12.6s-2.5-7.4-3.4-12-2.7-10.7-4-13.4c-1.3-2.8-3.3-7.8-4.5-11.2-1.2-3.5-3-7.2-4-8.3s-2.1-3.7-2.5-5.7c-.8-4.2-5.5-12.2-14.5-24.1-10.4-14-13.1-16.9-25.4-27.7-3.2-2.8-6.3-5.5-6.9-6.1-.7-.6-6.1-4.4-12.2-8.5-16.7-11.2-26.5-16.3-30.2-15.6-1.3.2-2.3.1-2.3-.3 0-1.3-9.6-7-11.8-7-1.1 0-2.3-.4-2.7-.9-1.7-2.8-30.6-13.1-40.9-14.6-3.1-.5-4.3-1-3.5-1.6 1.1-.6 1.1-.9-.1-1.2-.8-.2-3.1-.9-5-1.5-1.9-.5-6-1.5-9-2.2-3-.6-7.4-2-9.6-3.1-4.5-2.1-13.9-4.5-21.8-5.4-3.1-.4-4.4-1-3.6-1.5 1.6-1-2.8-2.4-14.5-4.6-4.9-.9-10.2-1.8-11.7-2.1-1.6-.3-2.8-1.1-2.8-1.8s-2.5-1.7-6.2-2.4c-13.5-2.5-20.1-4.3-21.4-5.5-1.5-1.6-12-3.6-18.4-3.6-3.6 0-4.1-.2-3.1-1.4 2.1-2.5-3.3-4.3-18.9-6.3-4.3-.5-5-.8-3-1.3 2.1-.6 1.1-1.1-5.8-3.3-4.6-1.5-10.3-2.7-12.7-2.7s-4.7-.5-5-1c-.3-.6 0-1 .7-1 4.3-.1-7-4.1-17-6.1-3.5-.6-5.8-1.5-5.2-1.9.7-.5-1.6-1.7-5.6-3-3.8-1.3-9.6-3.6-12.9-5.2-3.3-1.5-6.6-2.8-7.3-2.8-.6 0-8.1-3.3-16.5-7.4-8.3-4.1-16.7-7.7-18.6-8.1-1.8-.4-5.3-2.1-7.7-3.9-7.2-5.3-12.7-8.4-18.8-10.6-3.2-1.2-6.5-3.1-7.4-4.1s-2.1-1.9-2.7-2c-.5 0-3-1.5-5.5-3.4s-6.7-4.6-9.5-6c-2.7-1.5-5.9-3.6-7.1-4.6-1.1-1-2.4-1.9-2.8-1.9s-2.9-1.8-5.5-4-5.2-4-5.9-4c-.6 0-1.5-.6-1.9-1.3-1.1-1.6-13.1-10.7-14.2-10.7-.5 0-1.1-.3-1.3-.8-.1-.4-5.7-5.4-12.3-11.2-14.9-13.1-52.1-50.4-62.2-62.5-4.2-5-8-9.2-8.5-9.3-.4-.2-.8-1-.8-1.7 0-.8-.6-1.8-1.3-2.2-1.6-1-19.9-26.5-24.9-34.7-6.3-10.4-14.8-25.4-14.8-26 0-.3-1.5-3.8-3.3-7.8-1.9-4-4-8.8-4.7-10.5-.7-1.8-1.6-3-2.1-2.7s-.9-.6-.9-2.1c0-1.4-.7-2.8-1.5-3.1-.8-.4-1.5-1.4-1.5-2.5 0-4.6-2.3-16.8-3.1-16.3-2.5 1.5-5.9-21.4-5.9-39.4.1-13.1 2.8-29.5 5.2-31.5.8-.6 2.1-4.1 2.8-7.7.8-3.7 2.7-8.7 4.5-11.5 1.7-2.8 3.5-5.9 3.9-6.9 1.5-4.2 9.8-16.5 11.4-16.9 2.9-.8 3.5-.2 4.7 4m-75.9 98.5c1.2 1.8.5 8.5-1.2 12.6-.8 2-2.3 9.6-3.3 16.8s-2.3 13.9-2.9 15c-1.4 2.8-4 16.3-5.3 28.3-.6 5.7-1.5 9.8-1.9 9.1-1.2-2-2 1.6-4.5 20.5-1.3 9.9-3 19.3-3.8 21-.8 1.6-2.3 9.1-3.2 16.5-1.9 15.4-3.2 21.8-5 24-.7.8-1.8 6.2-2.4 12-1.8 16.3-3.6 26.3-5.3 29-1 1.6-1.8 6.1-2.2 12.4-.4 5.5-1.1 11.8-1.6 14-.5 2.3-1.2 5.4-1.5 7-.5 2.1-.9 2.6-1.5 1.7-1.1-1.8-1.6 1.3-3.1 16.6-.7 6.8-1.5 12.3-1.9 12.3-1.6 0-4 9.2-5.5 21-.9 6.8-2 12.9-2.5 13.5-2.2 2.7-4.9 16.7-6.5 33.8-.6 5.8-.9 6.6-1.9 5.1-1.1-1.5-1.4-1.2-1.9 2.2-.3 2.1-.9 6.8-1.2 10.4-1.3 14.1-3.8 29.4-4.9 30.5-.6.7-2 7.2-2.9 14.6-1 7.4-2.9 16.6-4.3 20.5-1.3 3.9-2.4 8.5-2.4 10.3 0 9.9-6.7 22-17.6 31.9-3.8 3.4-7.4 6.2-8.1 6.2s-1.6.6-2 1.4c-1.3 2.3-8.9 5.5-16.5 7.1-7.1 1.5-9.4 2.4-6.7 2.6.8.1.3.5-1.1.9-5.9 1.9-19.1.7-21-1.8-.3-.4-2.4-1.6-4.8-2.6-2.3-1.1-5.8-3.7-7.7-5.8s-3.9-3.8-4.5-3.8c-1.1 0-5.6-14.6-6.4-21-.3-2.5.1-8.6.9-13.5.8-5 2-13.5 2.6-19 1.6-15.4 2-17.4 2.9-15 .7 2 .7 2 1.4-.1.3-1.1 1.5-9.6 2.6-18.8 1.2-11.1 2.6-18.2 3.8-20.9 1.2-2.5 2.7-9.6 3.7-17.7.9-7.4 2.1-15.3 2.7-17.5.7-2.2 1.1-4.4 1-4.8-.2-.5.2-.6.7-.3 1.2.8 1.8-1.2 2.6-8.9 1.3-12.2 3.8-24 5.4-25.6 1.3-1.2 2-4.9 2.9-14 1.1-12.3 3.2-20.7 5.4-22 .6-.4 1.4-5 1.9-10.3.4-5.3 2.2-15.2 3.8-21.9 1.7-6.7 3.3-15.1 3.7-18.7.3-3.6 1.5-9 2.5-12 2.1-6.2 5.9-24.9 5.9-29.5 0-1.7.6-4.2 1.4-5.6 1.8-3.5 3.2-10.1 5.2-23.4.8-6 2.4-13.4 3.5-16.4 1-3 2.6-10.5 3.5-16.6.9-6 2.7-14 3.9-17.7 1.3-3.8 2.7-8.9 3.1-11.5.3-2.7 1.3-6.4 2.1-8.3 1.5-3.7 11.9-14.1 16.7-16.7 2.8-1.5 12.1-2.2 13.3-1 .8.9-1.7 16.5-3.2 20.1-1.1 2.4-6.5 30.8-6.5 34 0 .4-.4.4-1 .1-.5-.3-1-.4-1-.2s-.7 5.1-1.5 10.8c-1.9 13.6-4.2 24.3-5.9 27.7-.7 1.5-1.6 5.8-2 9.5-.7 7.1-4.2 23-5.6 25.7-.5.8-1.4 6.9-2 13.5-.7 6.6-1.6 12.2-2.1 12.6-1.3.8-4.8 17.8-5.5 27.3-.4 4.4-1 9-1.5 10.1l-.8 2-.1-2c-.3-4.6-3.2 8.5-4.9 22.3-1.1 9.3-2.4 15.7-3.4 17.3-1.8 2.7-5.6 24.9-5.8 33.9-.1 4.9-.2 5.1-.8 2l-.7-3.5-1.1 4c-.7 2.2-1.4 6.7-1.8 10-1.5 14.1-3.9 27.7-5.1 29-.8.8-1.7 5.7-2.4 12.7-1.5 17.4-3.5 26.2-6 27.8-.5.3-1.5 4.2-2.1 8.5-.6 4.4-1.6 8.5-2.1 9.1-1.1 1.5-3.6 12.6-5 22.6-1.3 9.1-.7 11.3 4.6 15.3 2.8 2.1 4.9 2.7 10.8 3.2 4.1.3 8.5 0 10-.5 3.6-1.5 7.4-6.8 9-12.7.7-2.8 1.6-5.2 2-5.5 1.4-1.1 2.9-6.6 4.8-17.9 1-6.4 2.6-13.1 3.5-14.8.9-1.8 2.2-8.9 3-16 1.7-15.7 2.3-18.8 4.7-23.4 1-1.9 2.3-7.1 2.8-11.5 1.5-11.5 3.6-22.6 5-25.9 2.2-5.3 3-9.4 3-15.6 0-3.7.3-6.9.8-7.1 1.9-.8 5.3-15.5 6.4-27.5.8-8.9 1.5-13 2.3-12.7 1.4.6 3.9-12.1 5.6-27.8.6-5.9 1.5-10.5 1.9-10.3 1 .6 6.8-32.5 7-39.4 0-.3.4 0 .9.8 1.2 1.8 2.7-5.3 4.7-21.4 1.8-15.2 3.3-22.2 4.5-20.4.9 1.5 1.5-1.4 3.4-18.3.8-7 1.7-13.8 2.1-15.3.6-2.4.7-2.4 2-.8 1.2 1.7 1.3 1.6 1.5-.7.8-15.6 3.1-33.6 4.7-38 .5-1.4 1.7-7.7 2.7-14s3.1-15.3 4.6-19.9c1.6-4.6 2.9-9.5 3-11 .1-4.1 2.3-9.4 4.5-10.5 1-.6 2.2-1.5 2.6-2.1 1-1.3 13.4-4.3 18.5-4.4 2.3-.1 4.5.4 4.9 1.1m679.7 136.8c1.8.9 5.5 2.6 8.2 3.6 5.1 1.8 18.2 11.4 19.2 14 .3.8 1 1.4 1.7 1.4 1.1.1 5.9 6.9 7.2 10.3.3.9 1.2 1.7 1.8 1.7.7 0 1.2 1.5 1.3 3.3 0 1.8 1.1 5.1 2.3 7.4 3.9 7.6 4.9 23.6 1.5 24.9-.7.3-1.8 1.8-2.5 3.4-1.5 3.7-.5 5.6 6.2 11.1 5.3 4.2 43.9 42 56.7 55.3 3.6 3.9 13.6 13.9 22.1 22.3 33.8 33.4 37.6 37.3 41.4 41.5 2.1 2.4 6.6 7.2 10 10.8 3.3 3.6 7 7.6 8.1 8.9 2 2.3 2 3.8 2 77 0 71.2.1 74.8 1.9 78.1 1 1.9 6.7 8.4 12.5 14.4 12.8 13.3 104.9 105.5 117.6 117.8 8.3 8 23.1 23.1 50.6 51.4 5.9 6.1 11.4 12.4 12.3 14.2 2.4 4.6 2.5 10.4 2.8 140.5l.3 115.8 3.5.8c1.9.5 5 1.3 6.9 1.6 2.5.5 5.9 3.1 11.8 8.8 4.6 4.4 8.3 8.7 8.3 9.4s.9 2.1 2 3c1.1 1 2 2.3 2 3.1 0 .7.8 2.5 1.8 3.9 1.5 2.4 1.7 5.3 1.7 22.8-.1 18.5-.3 20.3-2.2 24-2.1 3.9-16.7 18.6-25.3 25.5-7.1 5.6-8.7 6-26.4 6-20.7 0-27.8-1.1-31.5-4.9-1.6-1.6-3.7-3.2-4.8-3.5-1.7-.5-7.3-5.8-14.3-13.5-.8-.9-2.1-3.5-2.9-5.8s-1.9-4.4-2.6-4.7c-2.4-.9-4-9.9-3.9-21.7 0-10.8 1.7-20.9 3.4-20.9.4 0 1.8-2.1 3-4.8 4.3-9.3 16.5-23.2 23-26.4 1.9-.9 5.1-2 7-2.3 6-1.1 6.8-1.5 7.4-3.9.3-1.2.6-49.5.8-107.2.1-57.7.4-111.2.8-118.9.6-15.8.6-15.8-6.8-23.5-2.4-2.5-6.4-7-8.8-10.1-2.4-3-10.8-11.6-18.6-19s-14.9-14.2-15.7-15.3c-4.8-5.7-13.9-14.6-14.9-14.6-.7 0-1.2-.4-1.2-1 0-1.2-32.5-34-33.7-34-.7 0-17.8-16.9-43.4-43-4.1-4.1-11.9-11.8-17.4-17.1-15.6-14.9-31.2-31.3-32.9-34.8-1.4-2.7-1.7-9.4-2.1-49.9-.3-25.7-.7-55.7-.9-66.7s0-22.7.4-26c1.5-11.4 1.8-11-50.2-62.6-25.3-25.2-47.5-47.1-49.2-48.7-7.5-7-31.6-32.2-31.6-33.1 0-.5-1.4-1.7-3.2-2.6-3-1.5-3.3-1.5-4.8.3-2.8 3.5-12.5 10-16.5 11.1-12.1 3.4-35.7 2.1-42.5-2.3-1.9-1.3-5.1-3.3-7.1-4.4-7.6-4.5-18.2-18-20.5-26.1-.9-3.1-2.3-7-3.1-8.6-2-3.8-3.1-16.5-1.4-16.5.6 0 1.1-1.3 1.1-2.9 0-1.7.5-3.3 1-3.6.6-.3 1-1.7 1-3 0-7.5 9.1-21.6 20.4-31.6 4.4-4 6.8-5.2 13.2-7 4.4-1.2 8.8-2.6 9.9-3.2 2.8-1.5 12.3-2.6 17.3-2 2.4.2 5.8 1.3 7.5 2.3m1466.1 190.9c.7.6 4 2.5 7.3 4.1 7.4 3.7 17.4 12.8 22.8 20.5 3.3 4.8 4.2 7.2 5.2 13.9 2.7 17.9.9 29.7-6.2 41.2-5 8-10.2 12.9-19.5 18.3-9.9 5.8-12.7 6.4-26 5.9-11.1-.5-12.2-.7-19.6-4.3-10.2-5-25.5-19.7-27.2-26-4.9-18.1-5.1-23.3-1.3-37 2.6-9.5 5.3-13.8 14.6-22.8 6.7-6.6 11.7-9.7 15.5-9.7.9 0 4.8-1.3 8.6-3 6.3-2.7 7.7-2.9 15.6-2.6 4.9.2 9.4.9 10.2 1.5m-2020.9 140.3c3 1.6 11.5 3 30.2 5.1 9.2 1.1 14.5 2.6 9.7 2.8-3.2.1 3.3 1.7 16.4 4.1 6.8 1.2 13 2.7 13.8 3.5.7.7 6.6 2.5 13.1 4 7.2 1.6 12.5 3.3 13.5 4.4 1 1 4 2 7.3 2.4 3 .4 5.5 1.1 5.5 1.5s1.5 1.1 3.4 1.4c1.9.4 3.9 1.3 4.6 2 1.1 1.4 2.5 1.7 13.3 3.1 3.1.4 4.7 1.1 4.7 2 0 2 3.8 4.2 8.5 5 2.2.3 5.5.8 7.3 1.1 1.9.3 3.2 1.1 3.2 1.9s.5 1.5 1 1.5c.6 0 1-.5 1-1 0-.6.5-1 1.1-1 .8 0 .7.5-.2 1.6-1.7 2-.1 3.1 6 4 2.4.4 5.1 1.5 5.9 2.5.9 1.1 2.2 1.9 2.9 1.9s1.3.4 1.3.9 2.5 1.5 5.6 2.2 6.3 1.9 7.1 2.8c1.9 1.8 7.9 5.1 9.4 5.1.6 0 2.9 1.3 5.2 2.9 2.3 1.5 7 4.6 10.4 6.7 3.4 2.2 8.3 5.2 10.8 6.9 2.6 1.6 5.9 3.6 7.3 4.4 1.5.8 2.9 1.7 3.2 2 1.2 1.4 7.9 6.1 8.8 6.1.5 0 2.2 1.2 3.9 2.7 1.6 1.6 6.8 6.1 11.4 10 9.7 8.2 36.9 35.9 36.9 37.6 0 .6 1 2.1 2.1 3.3 1.2 1.3 1.9 3 1.6 3.8-.9 2.3-5 2-6.5-.4-.9-1.5-2.3-2-5.6-2-2.6 0-4.8-.6-5.6-1.5-.7-.8-2.1-1.5-3.1-1.5-1.1 0-2.7-.8-3.8-1.9s-4.1-2.1-7.5-2.5c-3.9-.5-5.6-1.2-5.6-2.2 0-.8-1-1.4-2.5-1.4-1.7 0-2.3-.4-1.9-1.4.6-1.6-.8-2.2-7.8-3.1-3.4-.5-4.5-1.1-4.1-2.1.3-.8-.3-1.7-1.3-2.1-1.1-.3-2.3-1.2-2.7-2-.4-.7-1.8-1.3-3.1-1.3-4.3 0-8.6-1.2-8.6-2.4 0-1.8-8.7-5.2-15.2-6-3.2-.4-5.7-1.2-5.5-1.7.3-1.3-5.8-3.5-14.8-5.4-3.8-.9-7.2-1.9-7.5-2.4s-4.2-2-8.8-3.5c-4.6-1.4-10.2-3.5-12.6-4.5-2.3-1.1-8.4-2.7-13.6-3.6-9-1.6-12.9-2.8-14-4.6-.3-.5-4.2-1.3-8.5-2-4.4-.6-10.9-2.2-14.5-3.6-3.6-1.3-11.4-3.3-17.5-4.3-6-1-15.3-3-20.5-4.5-6.8-1.9-14.3-3-26.5-4-9.3-.7-14.2-1.3-10.7-1.4 3.4 0 6.2-.6 6.2-1.1 0-.6-.3-1-.7-1-.5 0-6.2-.7-12.8-1.6-23.9-3-99.2-2.5-106.6.8-3.6 1.6-3.7 2.5-.1 3.1 1.7.2.9.5-2.3.7-2.7.1-6.3.4-8 .5-1.6.2-5.8.7-9.2 1-4.1.4-7.5 1.5-10.5 3.4-4.5 2.8-19.4 6.6-22.1 5.6-.8-.4-1.8-.2-2.2.4-.3.6.2 1.1 1.2 1.2 1.6 0 1.6.1-.2.9-2.5 1-6.4.2-8.8-1.8-.9-.8-2.7-2-3.9-2.6-2.8-1.4-4-5.8-3.2-12.1.8-7.1 1.4-9.1 2.4-7.5.5.8 1.2-.9 2-4.6 1.9-9.6 2.9-12 7.5-18 4.6-5.9 16.5-17.1 21.3-20.1 1.5-.9 3.6-2.4 4.7-3.4 1.1-.9 4.7-2.6 8-3.9 3.3-1.2 6.8-3 7.7-4 1.7-1.8 11.4-4 17.6-4 1.8 0 3.2-.4 3.2-.9 0-1.2 4.6-2.9 11-4 3-.5 17.2-.9 31.5-.8 21.7.2 26.5.5 29 1.9m-264.3 118.9c.9 1.1 1.9 3.7 2.3 5.8.4 2.2 1.3 4.5 2.1 5.2.8.6 1.4 1.9 1.4 2.9s.6 2.3 1.4 2.9c.7.6 1.6 2.6 2 4.3 1.4 7 2.7 10.8 3.6 10.3 1.1-.7 2.6 4.7 4 14.5 1.3 9.1 3 15.1 4.1 14.4 1.8-1.1 2.4 6 2.4 27.6 0 22.1-.6 28.7-2.5 27.5-1.7-1-3 4.2-3 11.8-.1 9.3-3.3 24.7-5.4 25.9-.9.5-1.6 1.9-1.6 3.2 0 2.9-4.8 18.8-5.9 19.5-.4.3-1.4 3.1-2 6.1-1.2 5.3-4.8 13.9-6.3 15.1-.5.3-1.3 3.2-1.9 6.5-.7 3.2-1.7 6.3-2.3 6.9-2.2 2-4.3 6.1-5.5 11-.7 2.7-1.7 5.5-2.3 6.2-1.7 2.1-4.8 8.6-4.8 10.2 0 .8-1.3 3.7-2.9 6.5-1.5 2.8-3.4 6.9-4 9.1-.7 2.2-3.3 8.3-5.9 13.5-5 10.6-9 19.2-10.6 23-.6 1.4-1.6 3.3-2.4 4.2s-2.5 4.5-3.7 8c-3.4 9.2-8.7 21.4-12.3 28.5-1.8 3.4-3.2 7.4-3.2 8.7 0 1.4-.8 3.1-1.9 3.8-1 .7-3 4.7-4.5 8.8s-3.3 8.4-4.1 9.6c-.7 1.2-2.6 5-4 8.5-1.5 3.5-3.3 7.1-4 7.9s-1.7 2.8-2.1 4.5c-.8 3.2-4.2 10.1-6.1 12.2-.6.7-1.4 3.1-1.8 5.3-.4 2.6-1.9 5.5-4.1 7.8-2.5 2.8-3.5 4.9-4 8.8-.5 4.4-.9 5.1-2.5 4.7-1.5-.4-1.9 0-1.9 2 0 1.4-.4 2.8-.8 3.1-.5.3-1.5 3-2.2 6.1-.7 3-1.7 5.5-2.1 5.5s-2.1 3-3.8 6.7c-1.8 3.8-3.6 7.5-4.1 8.3s-3.9 7.6-7.5 15-7.2 14.6-7.9 16c-2.5 4.5-11.6 23-11.6 23.6 0 .3-1.3 2.6-3 5-1.6 2.5-3.3 5.7-3.6 7.2-.4 1.5-1.9 5.4-3.5 8.7-1.5 3.3-3.3 9.4-3.9 13.6-1.5 9.3-.6 12.8 4.9 19.4 6.9 8.4 12.2 11.2 24.4 13 2.7.4 3.7 1 3.4 2-.4.9.6 1.6 3.1 2.1 2 .4 34.1.8 71.2.9s68.6.5 70 .9 3.2.8 4 1 1.5 1.1 1.5 2.1c0 1.4 1.4 2.2 5.6 3.4 5.7 1.6 10.4 4.7 16.5 10.8 5.1 5.1 8.2 10.5 10 17.5.9 3.5 2 7 2.4 7.9 2.8 5.3 2.8 18.9.1 23.4-1 1.6-2.4 4.7-3.1 6.8-.6 2-2.7 5.9-4.6 8.7-1.9 2.7-3.4 5.2-3.4 5.5 0 1.4-9.7 9.6-12.4 10.5-1.7.5-5.3 1.6-8.1 2.5-7.6 2.3-8.5 3.2-4.4 4.3 2.7.8 1.2 1-7.6 1-6-.1-10-.3-8.7-.5 3.6-.7 2.6-1.9-3.5-4.4-4.4-1.7-7.6-4.1-13.3-10-5.5-5.6-8.4-7.9-11-8.4-1.9-.4-4.6-1.7-6-3-1.4-1.2-3.6-2.5-5-2.8s-17.3-.6-35.5-.8c-43.6-.2-74.6-1.6-81-3.6-2.7-.8-9.5-1.9-15-2.4-11.2-1.1-15.3-2.2-20.7-5.6-2.1-1.2-4.9-2.3-6.3-2.3s-2.5-.4-2.5-.9c0-.7-9.5-7.1-10.7-7.1-1.9 0-17.3-18.2-19.2-22.8-.7-1.7-1.7-3.2-2.2-3.2-1 0-2.5-5.3-4.6-16.3-1.8-9.8-1.8-9.1-.4-19.7 2.4-17.1 4.4-27.2 5.2-25.9 1 1.6 1.1 1.4 4-9.9 1.1-4.6 3.1-9.9 4.4-11.8s2.6-4.8 3-6.4 1.1-3.2 1.6-3.5c.5-.4.9-1.4.9-2.4s.8-2.9 1.8-4.2c1.1-1.3 2.2-3.7 2.6-5.3.4-1.5 1.4-3.5 2.1-4.3.8-.8 1.5-2.2 1.5-3.2s.9-2.6 1.9-3.5c1.1-1 2.3-3.1 2.6-4.7.4-1.6 1.1-3.1 1.6-3.4.5-.4.9-1.5.9-2.7 0-1.1.8-2.2 1.9-2.5 1.3-.3 2.2-1.7 2.6-4.4.4-2.1 1.1-4.1 1.6-4.5.5-.3.9-1.7.9-3.1 0-1.6.7-2.7 1.9-3s2.6-2.3 3.6-5.1c.9-2.6 2.6-6.5 3.7-8.7s3.2-6.3 4.6-9c1.4-2.8 2.8-5.2 3.2-5.5.3-.3 3.4-6.4 6.8-13.5 3.5-7.2 7-14.1 7.8-15.5s4.5-8.6 8.2-16c3.8-7.4 7.3-14.4 8-15.5.6-1.1 2.6-5.2 4.4-9 1.8-3.9 3.6-7.3 4.1-7.6s1.1-2.5 1.4-4.8c.4-2.9 1-4.1 1.9-3.7.8.3 1.7-.8 2.4-2.9.6-1.8 1.8-3.9 2.6-4.5.7-.7 1.4-2.8 1.4-4.6 0-2.1.5-3.3 1.2-3.1.6.1 1.4-.6 1.6-1.6.2-1.1 2.4-5.8 4.9-10.5 2.4-4.7 5.4-11.1 6.5-14.1 1.2-3.1 2.9-6.7 3.8-8.1s2.4-4.6 3.2-7.1c.9-2.5 3-6.5 4.7-8.9s3.1-5.2 3.1-6.3c0-1 1.3-4.5 2.9-7.6s3.9-7.6 5-10.1c1.2-2.5 2.9-5.9 3.9-7.5 1-1.7 2.2-4.4 2.6-6 .8-3.1 5-12.5 11.7-25.8 2.1-4.3 3.9-8.2 3.9-8.8s2-5.2 4.5-10.3c2.5-5.2 4.5-9.9 4.5-10.5 0-.7.9-2.1 2-3.3s2-3 2-3.9c0-1 1.8-5.3 4-9.6 2.2-4.4 4.3-9.5 4.6-11.4.4-1.9 1.3-3.8 2.1-4.2.7-.4 1.3-1.5 1.3-2.3s.9-3.1 2-5.1c1.1-2.1 2-5.2 2-6.9s.8-3.8 1.8-4.8c1.8-1.5 2.5-3.4 5.4-13.9.6-2.3 2-5.6 3-7.3 1-1.8 2.3-5.4 2.8-8 .6-2.7 1.5-7.4 2.1-10.4s1.7-6.2 2.4-7c1.6-1.9 2.8-6.4 5.6-21.7 1.2-6.7 2.6-12 3-11.7.5.3 1-.5 1.1-1.8s.3-3.7.4-5.3c.1-1.7.3-8.4.3-15 .1-6.6.4-18.4.7-26.2l.7-14.2 3.1.6c1.7.3 3.8 1.4 4.8 2.4m182.1 71.5c1.2.3 4.7 3.5 7.7 7 6.3 7.4 14.5 14 16.7 13.6.8-.2 1.2.1.9.6-.4.7 8.4 7.2 9.9 7.2.2 0 1.6 1.1 3.1 2.5 1.4 1.3 4.4 3.2 6.5 4.2s3.9 2.2 3.9 2.8c0 1.6 6.1 5.2 10 6 1.9.4 4 1.5 4.7 2.5 1.5 2.2 7 3.7 16.3 4.5 5.3.5 8.8 1.5 11.9 3.2 6.1 3.6 15.5 4.2 52.6 3.7 30.9-.4 41.7-1.5 43.5-4.4.4-.6 6.1-1.7 12.7-2.4 12-1.3 14.9-2.3 18.7-5.7 2.3-2.2 11.4-2.7 13.4-.7 1.4 1.4 1.6 5.8.3 5.8-.4 0-2.6 1.8-4.7 4-2.2 2.3-8.3 6.8-13.6 10.1-5.4 3.4-9.8 6.6-9.8 7.2 0 .7-1.5 1.8-3.2 2.5-9.3 3.8-11 4.7-11.8 6.2-.5 1-2.2 2-3.7 2.3-1.6.3-3.9 1.5-5.3 2.7q-4.8 4.2-10.5 5.4c-1.7.4-4.7 2.2-6.8 4.1s-4.6 3.5-5.6 3.5c-3.8 0-8 1.3-9.8 3-1.1.9-5 2.3-8.8 3-9.9 1.8-16.8 3.8-17.6 5.1-1.2 2-13.9 2.8-38.9 2.3-24.2-.4-30-.9-29.9-2.9 0-1-3.3-2-10.6-3-7.8-1.1-14-2.8-18.4-5.2-2.4-1.2-5-2.3-5.8-2.3-5 0-24.5-16.3-33-27.5-3.7-4.8-5.4-8.4-6.9-14.3-.8-3.1-2.2-6.4-3.1-7.4-3.6-4-2.5-24.8 1.3-24.8.7 0 1.6-1.7 1.9-3.8 1.1-6.1 2.8-10.5 5-13.2 1.2-1.4 2.9-3.7 3.8-5.2 1.6-2.6 6-4 9.5-3.1.8.2 2.4.6 3.5.9m2298.6 43.3c3 .4 5.9 1.4 6.5 2.2s3.4 2.9 6.1 4.6c5.6 3.6 9.5 7.2 14.1 12.9 3.1 3.9 7.4 11.9 7.4 13.8 0 .5.8 1.8 1.8 2.9 1.4 1.6 1.7 4 1.7 16.2s-.3 14.6-1.7 16.2c-1 1.1-1.8 2.4-1.8 2.9 0 2.9-7.9 14.7-12.5 18.5-6.5 5.6-11.3 8.9-12.7 8.9-2.2 0-6.8 2.1-6.8 3.1 0 1.6-10.5 3.9-17.4 3.9-5.4 0-8.6-.7-13.1-2.6-3.3-1.4-8.2-3.3-10.9-4.1-3.8-1.2-6.6-3.3-12.5-9.2-15.3-15.3-19.8-29.1-15.4-47.5.9-3.9 2-7.3 2.3-7.6s1.4-2.3 2.4-4.5 2.5-5.5 3.4-7.4c2.2-4.4 11.7-14.8 14.4-15.7 1.1-.3 4.1-2 6.6-3.7 2.6-1.8 6.6-3.4 9.2-3.8 6.4-.9 22.5-.9 28.9 0m-1396.8 113.7c.9.8 4.5 2.2 7.8 3 9 2 13.4 4.7 21.6 12.7 6.8 6.7 12.5 15.8 12.5 19.9 0 .8.8 2.3 1.8 3.4.9 1 1.8 2.8 2 3.9.1 1.1.5 4.1.8 6.6.8 6-.4 19.9-1.8 19.6-.5-.1-2 2.5-3.2 5.8-1.3 3.3-2.8 7.2-3.4 8.7-1.9 4.6-15.2 17.2-21 19.8-3 1.3-5.8 3.2-6.3 4.1-.9 1.7-6.3 3.3-15.9 4.5-8.2 1-13.6.9-22.9-.6-7.3-1.2-8.9-1.8-12.8-5.2-2.4-2.1-5.3-3.8-6.4-3.8-3.3 0-50.9 46.7-64.2 62.8l-2.7 3.4v157.9c0 134-.2 158.4-1.4 160.7-1.5 2.9-27.2 28.4-57.1 56.7-9.9 9.3-24.5 23.4-32.5 31.2s-15.8 14.6-17.2 15.2c-1.4.5-4.2 3-6.2 5.4-3.6 4.4-3.7 4.6-3.5 12.8.1 12-1.7 21.1-5.1 25.5-1.6 1.9-3.4 5.2-4.1 7.2-.6 2-2.6 5.3-4.4 7.2s-3.5 4.2-3.8 5.1-2.7 2.5-5.4 3.5c-2.6.9-5.7 2.8-6.8 4-2.9 3.3-9.1 4.5-23.5 4.5-18 0-31-2.4-31-5.6 0-.6-1.5-1.6-3.2-2.3-3.8-1.4-12.4-9.2-13.3-12.1-.3-1.1-1.2-2.1-1.9-2.4-1.6-.7-4.8-7.3-7.1-14.9-1-3.2-2.1-5.5-2.6-5.2-1.5.9-2.1-4.2-1.7-15.1.2-6.7.7-10.8 1.5-11.3 1.2-.7 4.3-8.6 4.3-11 0-1.8 6.1-11 9.7-14.7 3.8-3.9 12-10.7 14.7-12.1 1.1-.6 3.8-1.4 5.9-1.8 2-.4 3.7-1.1 3.7-1.6s1.4-1.7 3.1-2.6c2.6-1.3 5.6-1.5 16-1.2 11.4.3 13 .5 15.1 2.5 1.3 1.2 4.6 2.9 7.5 3.8 3.9 1.3 6.6 3.1 10.7 7.5 3.1 3.2 5.6 6.3 5.6 6.9 0 2.1 2.6 1.1 5.6-2 1.6-1.7 10.7-10.1 20.2-18.6 18.8-16.9 75.1-72.3 77.5-76.3 1.8-3.1 1.8-2.5 2-107.5.2-80.8-.7-173.8-1.9-196l-.6-11.1 10.8-11.4c10.4-11.2 34.7-36.2 50.9-52.5 4.4-4.5 9.9-9.6 12.2-11.5 5.8-4.7 6.4-8.2 2.7-15.7-2.3-4.8-2.8-7.1-2.8-13.3 0-4.1.6-8.4 1.2-9.6s2-5.5 3.2-9.7c1.9-7.1 3.5-10.2 11.1-20 2.4-3.1 10.7-9.5 15.4-11.9 1.7-.9 5-1.8 7.5-2.2s5.9-1.5 7.5-2.6c2.5-1.7 4.7-2 13.4-2 8.1 0 10.8.4 12.2 1.6m1145.7 75.3c1.5 1.1 5.9 2.4 9.7 3 5.9.9 7.4 1.5 9.6 4.1 1.4 1.6 3.2 3 4 3 2.6 0 15.9 14.6 15.9 17.4 0 .3 1.2 3.1 2.8 6.3 2.5 5.4 2.7 6.7 2.7 18.9 0 10.3-.3 13.6-1.5 15-.8 1.1-2.9 4.5-4.5 7.8-4.1 8-15.8 18.5-27.8 24.8-3.8 2-5.6 2.3-18.2 2.2-15.2 0-12.8.6-28.1-7.2-7.2-3.7-17.4-16.2-19.6-23.9-.7-2.6-1.2-3.2-1.8-2.3-1.4 2.2-2.4-5.5-2.5-18v-11.5l4.4-9c3.2-6.5 6-10.5 9.9-14.3 3-2.8 5.8-5.2 6.2-5.2s2.5-1.8 4.7-3.9c3.7-3.6 4.4-3.9 11.6-4.6 4.5-.4 8-1.3 8.5-2 1.6-2.9 10.3-3.2 14-.6m-1189.1 195.2c3.7 1.2 8.5 7 10.2 12.1.7 2 1.9 4.2 2.7 4.8.7.7 1.4 2 1.4 3s.7 2.3 1.5 3 1.5 1.7 1.5 2.3c0 1.6 9.5 20.5 13.7 27.3 2.1 3.3 5.2 8.3 6.8 11 6.4 10.4 19.4 21.7 28.7 25 2.2.7 5.3 2.5 6.9 3.8 3.5 3 12.5 4 30.3 3.4 11.4-.4 12.7-.6 16.2-3 2.2-1.5 5.9-3.2 8.4-3.8 2.5-.7 6.5-2.8 9-4.7 8.1-6.4 24.1-23.6 29.7-32 5.7-8.6 8.3-10.3 15.5-10.3 3.8 0 4.2 2.1 3.6 21.5-.4 12.4-.9 16.7-2 17.8-.8.8-2.4 6.2-3.6 12-2.7 12.6-6.9 21.3-15.1 30.7-6.7 7.8-19.1 20-20.2 20-.5 0-1.6.8-2.6 1.8s-3.8 2.6-6.3 3.6c-4.7 1.9-5.5 2.3-10.5 5.6-5.5 3.6-12.5 4.3-35.5 3.6-22-.7-32.7-2.2-35.4-4.8-.8-.8-3.6-2.1-6.3-2.8-2.6-.8-5.1-1.9-5.5-2.6-.5-.7-1.6-1-2.7-.7-1.2.3-2-.2-2.3-1.5-.4-1.2-1.8-2.2-3.9-2.6-1.9-.3-4.5-1.8-5.8-3.2s-3-2.3-3.8-2-1.2.2-.9-.3-1.7-2.3-4.4-4.1c-2.8-1.8-5-3.6-5-4.1s-1.2-1.5-2.7-2.2c-1.5-.6-4.1-2.5-5.8-4-8.2-7.7-11.3-11.1-12.6-13.5-.7-1.5-2.5-4.5-4-6.7-1.4-2.2-3.9-6.5-5.4-9.5s-3.2-5.8-3.6-6.1c-.5-.3-2-4.3-3.3-9-1.3-4.6-3.1-9.8-4-11.4-2.4-4.5-2.1-18.4.5-25.5 1.1-3 2.9-9.9 3.9-15.4 1-5.4 2.3-10.1 2.8-10.5.5-.3 2.3-4 3.9-8.1 2.3-5.7 3.6-7.6 5.4-8.1 3.7-1.1 7.3-1 10.6.2m1094.3 69.4c1.3 1.4 2.9 2.5 3.6 2.5 7.5 0 20.7 9.9 28.1 21.1 4.2 6.3 4.7 7.7 6.1 17.5 1.2 8.9 1.3 12 .2 19-.6 4.6-2 9.8-2.9 11.6-7.6 14.4-11.5 18.8-21.4 24.2-3.2 1.7-7.5 4-9.5 5-4 2.2-20 3.4-29.5 2.2-7.2-.9-17.7-7.7-27.4-17.8-7.8-8.1-8.7-9.6-9.7-17.3-.4-2.8-1.3-6.8-2.1-9-2.8-7.9-2.6-12.3 1.1-22 1.9-5 3.4-9.5 3.4-10.1 0-.7 1.1-2.2 2.5-3.5 1.3-1.3 2.5-3 2.5-3.7 0-2.1 6.3-9.2 8.2-9.2 1 0 2.3-.9 3-2s1.8-2 2.4-2c.7 0 4.5-1.7 8.5-3.7 8.3-4.1 12.1-5 23-5.2 6.8-.1 7.8.1 9.9 2.4m-1060.4 189.7 4.6 2.1-.7 4.6c-.4 2.5-1.1 4.9-1.7 5.2-.5.3-1.4 5.5-1.9 11.5s-1.4 16.1-2 22.4-1.3 16.9-1.6 23.5-.9 12.4-1.4 13c-.5.5-.9 0-.9-1.3 0-1.2-.4-2.2-1-2.2-1 0-1.1.5-1.6 13-.3 7.6-1.7 17.3-3.6 24.5-.9 3.4-1.2 3.7-1.9 2-.6-1.6-.8-1.2-.8 1.7-.1 2-.6 6-1.2 9-.6 2.9-1.5 7.8-2.1 10.8-.5 3-1.5 6.6-2 8-1 2.3-1.1 2.4-1.8.5-.5-1.4-.9-.3-1.3 3.5-.9 7.2-2.5 12.6-4.2 14.3-1.7 1.8-4.5 8.4-4.5 10.7 0 1-1.5 3.8-3.3 6.2-1.7 2.4-3.8 6.5-4.5 9.3-.7 2.7-1.9 5.7-2.6 6.5-.6.8-2.2 3.7-3.5 6.5-1.2 2.7-2.6 5.7-3.1 6.5-9.7 16.6-25.6 40.5-32.3 48.6-9.9 11.9-22.8 25.7-39 41.7-23 22.7-37.6 35.7-52.2 46.6-6 4.5-12.7 9.5-14.7 11.1s-7.2 5.3-11.5 8.2-11.2 7.8-15.3 10.8-9.1 6.3-11 7.3c-1.9.9-5.3 3.1-7.5 4.7s-4.8 2.9-5.7 3c-.9 0-2 .5-2.4 1.1-.3.6-2.1 1.7-3.8 2.5-5.2 2.4-10 5.5-11.6 7.4-.8 1-3.5 2.4-6 3s-5.6 2.2-7 3.5c-2.8 2.6-7 4.5-10.2 4.5-1.2 0-4.2 1.3-6.7 2.8-2.5 1.6-6.6 3.5-9.1 4.2s-6 2.4-7.8 3.7-5.4 2.8-8 3.2c-5.8 1-10.2 2.7-10.2 4 0 1.1-3.6 2.2-13.2 4.1-5.6 1.1-9.3 3.3-8.3 4.9.2.5-4.1 1.4-9.8 2-13.4 1.5-14.6 1.9-14 4.1.4 1.5-.6 1.9-7.4 2.8-4.3.6-11.7 1.4-16.5 1.8-8.8.6-10.8 1.6-6.5 3 1.8.6 1 1-3.8 2-3.3.7-8.7 1.3-12.1 1.3-8 .1-22.6 2.1-23.8 3.2-.6.5 0 .9 1.6.9 1.5 0 2.9.4 3.2.8.6.9-26.2 3.2-38.9 3.3-10.7 0-17.6 1.2-18.7 3.3-1 1.8-9.2 2.3-11.8.6-1.2-.8-1-1.4 1.5-3.8 1.7-1.6 3.8-3.1 4.8-3.5.9-.3 1.7-1.5 1.7-2.5 0-3.1 2.2-4.1 11.1-5.3 9.3-1.2 11.9-2.2 11.9-4.4 0-.8.1-1.5.3-1.5.1 0 3.9-.6 8.4-1.4 6.3-1 9-2 12-4.3 2.2-1.8 5.7-3.4 8.2-3.8 2.8-.5 5.5-1.7 7.1-3.4 1.8-1.8 4.7-3 8.8-3.9s6.5-1.9 7.2-3.2c.6-1.2 2.9-2.3 6.4-3 3-.6 7.4-2.4 9.8-4s6.2-3.2 8.6-3.6c3.2-.5 4.6-1.3 5.9-3.5 1-1.7 2.9-3.1 4.7-3.4 8.7-1.8 10.6-2.6 10.6-4.5 0-1.4 1.1-2.2 3.8-2.9 2-.6 4.2-1.1 4.9-1.1.6 0 2.7-1.3 4.5-3 1.8-1.6 5.6-3.7 8.6-4.5 2.9-.9 5.5-2.2 5.8-2.9s3.2-2.6 6.4-4.1c3.3-1.6 6-3.2 6-3.6 0-.9 6.7-4.9 8.3-4.9.7 0 2.4-1 3.9-2.3s4.6-3 6.9-3.7c2.2-.8 4.8-2.4 5.6-3.7.9-1.3 2.1-2.3 2.7-2.3 2 0 9.9-4.1 12.9-6.6 1.6-1.3 3.3-2.4 3.8-2.4s3.2-1.6 5.9-3.5 5.4-3.5 5.8-3.5c.5 0 3.3-1.8 6.2-4s5.8-4 6.3-4c1.3 0 13-8.3 19.7-14 3-2.6 8-6.3 11-8.3s7.4-5.1 9.7-6.9 10.4-8.1 18-13.9c10.6-8.2 21-17.9 44.4-41.5 17.3-17.5 32.7-33.9 35.5-37.9 2.7-3.9 6.6-9.3 8.7-12 18.1-23.5 24.8-33 27.6-39 1.8-3.9 5.1-9.3 7.2-12.1 2.2-2.8 3.9-5.4 3.9-5.8 0-.5.9-2 2-3.5 1-1.5 3.4-5.7 5.3-9.2s4.1-7.8 5-9.4c.9-1.7 2.2-4.4 3-6 .8-1.7 2.5-5 3.9-7.5s2.8-5.7 3.2-7.3c.3-1.5 1-2.7 1.5-2.7s1.9-2.4 3-5.4 3.8-8.8 6-13c2.3-4.2 4.1-8.4 4.1-9.4 0-.9 1.1-3.4 2.5-5.4 2.4-3.5 4.1-8.7 5.2-15.6.4-2.2 1-3.2 2.1-3s2-1.5 3.3-6.7c1-3.9 1.9-8.2 1.9-9.7 0-3.1 1.7-4.7 2.6-2.4 1 2.5 2.4 1.8 2.4-1.2 0-1.5.7-6.2 1.5-10.5s1.5-8.2 1.6-8.5c0-.4.5.4 1 1.8 1.5 3.7 2.5 1.2 4.3-10.5 1.8-12.4 3.3-13.5 12.2-9.3m1211.9 28.9c2.2.6 4.8 2 5.9 3.1 1 1.1 3.9 2.8 6.4 3.9 4.7 2.1 15.2 12.2 15.2 14.7 0 .5 1.1 2.3 2.4 4 4.5 6.1 6.5 23.6 4.2 36.7-2 11.1-2.3 12.2-4 12.8-.8.3-2.5 3-3.9 5.9s-3.4 5.8-4.5 6.5c-1.1.6-4.4 3.2-7.5 5.7-3 2.4-7.3 5-9.6 5.7s-4.1 1.5-4.1 1.9c0 1.3-7.6 3.9-12 4.1-13.4.5-18.7-.1-22.3-2.5-1.9-1.3-5-2.7-6.8-3.1-4.3-.9-7.2-3-14.4-10.2-6.6-6.7-9.4-10.8-11.9-17.8-1.1-2.8-2.4-5.6-3-6.4-1.8-2.3-2.1-20.7-.4-23.3.8-1.3 2.8-6.1 4.3-10.8 2.6-8 3.3-9 10.9-16.5 10.4-10.4 14.3-13.4 18-14 1.7-.2 4.2-.6 5.6-.8 5.7-.9 27.8-.6 31.5.4m-992.2 217.2c6.2 6.2 15.1 14.9 19.8 19.3 9.5 8.8 10.9 10.8 10.8 15-.1 1.6-.3 114.3-.5 250.4s-.6 248.7-.8 250.1c-.5 2.6-2.7 3.9-7.2 3.9-1.1 0-3.6 1.3-5.4 3-1.8 1.6-4.2 3-5.1 3-4.1 0-10.1 4-21 14-9.1 8.4-11.2 9.6-12.9 7.5-1-1.2-.9-3.5.6-11.2 1.6-9.3 1.8-25 1.9-285.3.1-208.1.4-276.2 1.3-278.3s1.8-2.7 4.2-2.7c2.7 0 4.9 1.7 14.3 11.3m299 10.6c7.1 1 8.4 1.5 15 6.5 7.6 5.6 14.7 12.7 14.7 14.7 0 .6.6.9 1.4.6 1.8-.7 2.6 1.3 2.6 6.5 0 3.8.1 4 2.5 3.4 3.5-.9 4 1.8 4 19.5 0 15.3-1.1 20.2-4.4 19.7-1.1-.2-1.7.6-1.9 2.2-.7 6.6-1.4 9-2.7 9-.7 0-2.9 1.8-4.7 4-1.9 2.2-5.2 5.1-7.4 6.6-2.1 1.5-4.3 3.2-4.9 3.9-2.3 2.9-9 4-25 4-14.7 0-16.4-.2-20.8-2.4-5.4-2.6-16.1-12.6-19.9-18.6-1.3-2.2-3.3-5.4-4.4-7-1.7-2.7-1.9-5-1.9-20.8 0-17.4.1-17.9 2.3-19.7 1.2-1 3.3-4.3 4.6-7.2 4.5-10 20.9-22.5 32.5-24.8 3.1-.6 6.1-1.3 6.6-1.5.6-.2 1.7-.2 2.5 0s5 .9 9.3 1.4m594 121.4c.7.8 3 2 5.2 2.7s5.7 2.4 7.7 3.7c4.8 3 16.5 14.5 17.8 17.5.6 1.3 2.1 3.7 3.3 5.4 1.7 2.2 2.7 5.8 3.6 12 .7 4.9 1.4 9.8 1.6 10.8.5 2.3-3.1 19.9-4.5 22.6-.6 1.1-1.4 2-1.8 2s-2 2.3-3.5 5c-1.6 2.8-3.1 5-3.5 5s-1.6 1.4-2.6 3.1c-1.2 2-4 4.1-8.3 6.1-3.6 1.7-6.7 3.7-7 4.4-.6 1.6-7.6 3.1-18 3.9s-23.9-1.1-26.5-3.7c-1-1-4.3-3-7.4-4.5-6.3-3-13.6-10.6-16.6-17.3-2.9-6.6-5.9-20.6-6-27.7 0-8.2 5-22.6 11-31.3 6-8.8 13.8-16 17.3-16 3.7 0 5.9-.9 5.9-2.5 0-2.3 7.2-3.4 19.3-3.1 8.9.3 12.1.8 13 1.9m-374.8 318.5c1.7 1 5 2.5 7.5 3.4 5.1 1.7 17.7 13.9 21.2 20.5 1.1 2.1 2.6 4.5 3.3 5.3 1.3 1.5 2.9 8.6 3.9 17.5.9 7.6-1.7 20.3-5.2 25.6-1.6 2.4-3.3 5.5-3.7 6.9s-2.9 4.5-5.4 7.1c-2.5 2.5-5.2 5.3-5.9 6.2-.6.9-3.1 2.1-5.3 2.7-7.8 2.1-9.2 2.9-8 4.4 1.7 2.1-1.6 2.6-16.9 2.6-14.3 0-18-.5-18-2.4 0-1.2-3.7-3-8.4-4-4.1-1-18.3-15.8-21.5-22.6-2.5-5.3-2.6-6.3-2.6-22.5v-17.1l3.5-6.9c3.9-7.8 15.3-20.5 20-22.5 4.1-1.7 27.3-5.8 33.5-5.9 3.2-.1 6.1.6 8 1.7m-449.3 122.6c2 .8 3.8 1.9 4 2.4.1.5 2.8 2.4 5.8 4.4 9 5.7 18 15.8 18 20.2 0 .6 1.2 2.8 2.8 5 2.6 3.7 2.7 4.6 3 17.2l.4 13.4-3.1 4.2c-1.7 2.3-3.1 5.1-3.1 6.2 0 2.8-2.8 7.1-8.6 13.1-9.3 9.6-11.9 11.2-19.7 12.4-12.4 1.9-14.2 2.5-14.1 4.4.2 1.5-.8 1.7-8 1.7-5.2 0-7.6-.4-6.7-.9 2.5-1.6-.5-3.9-5.7-4.6-7.2-1-11.5-2.5-14.2-5.1-6.4-6.1-7.7-7.4-10.8-10.8-2.8-3.1-4.9-7.6-7.9-16.9-.3-1-1.1-1.6-1.8-1.3-1.8.6-2.9-20.5-1.5-27 2.5-11.3 13.7-25.4 27.6-35 4.8-3.3 6.5-3.9 13.2-4.5 11.6-1.1 26.1-.4 30.4 1.5m242.3 133.4c3.7 1.9 11 7.6 15.1 11.9 1.8 1.8 3.6 3.3 4.2 3.3s1.5 1.9 1.9 4.2c.7 3.3 1.3 4.2 2.6 4 2.2-.4 3.1 2.2 5.1 13.7s2 17.4 0 28.4c-1.4 7.6-2 9.1-4.5 10.9-1.6 1.2-2.9 3-2.9 4.1 0 2.5-1.8 5.7-3.3 5.7-.7 0-3 1.7-5.2 3.8-5.1 4.8-10.1 7.7-16.7 9.7-2.8.8-5.5 2-5.8 2.5-.4.6-5 1.2-10.6 1.3-8.9.1-10.5-.1-15.4-2.5-3-1.5-8.1-3.6-11.2-4.8-3.2-1.2-5.8-2.6-5.8-3s-2.2-2.5-5-4.6c-2.7-2.1-5-4.5-5-5.4s-1.6-3.7-3.5-6.2c-3.2-4-3.7-5.6-4.7-13.8-1.7-13.7 0-26.7 4.9-36.8 4.5-9.4 10.3-16.6 16.3-20 2.5-1.4 5.4-3.3 6.5-4.3 4.3-3.7 11.1-4.8 26-4.2 9.5.4 15 1.1 17 2.1"/><path d="M1213.3 637.7c-3.4.9-6.1 2-6 2.5s-1.4 1.1-3.3 1.2c-3.3.3-8.5 2.6-17 7.7-5.7 3.4-16.5 13.5-23.6 22-10.6 12.8-21.1 32.5-25.4 48.2-6 21.6-7 26.2-8.5 42.6-.8 9.5-1.8 17.8-2.1 18.3-1 1.5-.5 36.3.6 41.4.5 2.7 1.4 11.1 2 18.6.6 8.4 1.7 16.3 3 20.5 1.2 3.7 2.8 9.3 3.7 12.3 1.7 5.9 9 25.5 10.4 28 .5.8 2.9 5.5 5.4 10.5 5.4 10.5 19.3 30.4 29.7 42.4 22.8 26.3 55.1 44.4 95.8 53.8 9 2.1 39.9 2.4 49.5.5 16.9-3.3 36.2-11.3 51.5-21.1 11-7.1 29.4-25.6 37.7-37.8 10.1-14.7 21.3-37.6 21.3-43.5 0-1 .6-2.9 1.4-4.1 3.2-5 4.8-19.4 4.7-42.2-.1-24.2-.6-30.8-2.8-37.5-.8-2.5-1.7-5.9-1.9-7.5-1.6-10.8-3.9-20.9-6.5-28.8-3.3-10.1-13.9-32.4-19.2-40.2-11.4-17-16.2-23.6-20.9-28.6-2.9-3.1-7.3-7.9-9.8-10.8-8.9-10.3-49.6-39.7-69.2-49.9-8.6-4.5-21.7-9.3-42.8-15.6-14.8-4.5-45.3-6-57.7-2.9M1306 751c3.6.4 9.7 1.8 13.5 3 3.9 1.2 9.5 2.8 12.6 3.6 5.1 1.2 12.3 5 26.6 13.7 8.9 5.5 26.9 24 31 32.1.9 1.7 1.9 3.3 2.3 3.6s2.4 3.6 4.5 7.5c2 3.8 4.1 7.4 4.5 8 .4.5 1.2 3.2 1.8 6 .6 2.7 1.8 8 2.7 11.7.8 3.7 1.5 7.7 1.6 9 .1 2.2.1 2.2.8-.2.6-1.9.9-1 1.4 3.9 1.1 10.2.8 19.8-.7 23.8-.8 2.1-2.6 9.2-4 15.7-2.9 13.2-7.7 23.9-15.3 33.8-8.6 11.3-28.2 27.5-40.8 33.8-2.7 1.4-5.7 3-6.5 3.6-2.4 1.8-7.7 3.2-21 5.5-6.9 1.1-13.1 2.5-13.7 3.1-2 1.6-15.2 1.7-21.8.1-3.3-.7-9.7-2.3-14.2-3.3-10.8-2.6-26-9.8-35.3-16.7-23-17.2-38.4-40.8-41.9-64.1-2.2-14.6-1-53.3 1.7-55.1.5-.3 2.3-4.9 4.1-10.1s3.6-9.9 4.1-10.5c.4-.5 2.3-3.6 4-6.9 5.7-10.4 11.9-18.3 20.9-26.8 10.1-9.4 25.1-18.9 33.9-21.3 3.1-.9 6.4-2 7.3-2.5.9-.4 4.5-1.5 8-2.4 10.2-2.5 18.1-2.9 27.9-1.6"/><path d="M1291.5 798c-3.3.5-7.3 1.6-9 2.4-1.6.9-5.6 2.5-8.7 3.6-12.3 4.5-27.7 19.8-35.5 35.2-5.8 11.6-8.6 21.5-9.1 32.7-.4 9.2 1.2 22.6 3 24.6.4.5.8 1.7.8 2.7 0 4 6.2 15.5 12 22.1 3.4 3.9 13.7 12 18 14.1 10.6 5.3 16.4 6.8 26.3 7l9.8.1 3.4-4c1.9-2.2 3.5-4.5 3.5-5.2s.9-2.1 2-3.1c2-1.9 7-13 7-15.6 0-.8.3-1.6.8-1.8.4-.2 2.2-3.3 4-7.1 1.8-3.7 4.4-7.4 5.7-8.3 2.2-1.4 2.9-1.4 8 .1 3.1.9 7.8 3.1 10.3 5 7.1 5.3 12.1 7.7 14.3 7 2.1-.7 12.9-14 12.9-16 0-.7 1.5-4.4 3.2-8.2l3.3-6.8v-18c0-14.9-.3-18.5-1.6-20.5-.9-1.4-2.1-4.1-2.8-6-1.4-4.2-8.3-13.5-13.1-17.7-5.6-4.8-12.7-8.8-24.5-13.6-10.7-4.4-11.3-4.5-24.5-5-7.4-.3-16.2-.2-19.5.3M1995.7 2445.1c-1.6.6-5.2 2.6-8 4.5s-5.4 3.4-5.8 3.4c-1.9 0-3.4 7.3-3.4 16.5 0 12.3.6 14.5 5.2 19.6 8.5 9.4 18.5 13 27.9 9.9 6.5-2.1 13-8.4 16.4-15.6 1.6-3.5 3.3-6.4 3.7-6.4.5 0 1.3-1.6 1.9-3.5 1.2-3.9-.3-10.6-2.5-11.3-.6-.2-1.1-1.1-1.1-2.1 0-2.6-2.5-5.6-9.3-10.8-6.1-4.7-6.3-4.8-14.2-5-4.4-.1-9.3.2-10.8.8M1982.6 1705.1c-5.5.9-9.6 3.4-14.1 8.8-4 4.7-5.5 9.3-5.5 16.7 0 12.3 5.1 21.6 15 27.5 5.1 3 6.1 3.2 14.3 3.1 8.4 0 8.9-.2 14.1-3.9 6.2-4.4 12.3-11.8 13.7-16.6 1.4-4.9 1.1-15.4-.6-19.5-2-4.6-7.8-10.8-12.5-13.2-1.9-1-6.4-2.1-10-2.5-3.6-.3-7.2-.8-8-.9-.8-.2-3.7 0-6.4.5M2361.9 2533.2c-8.1 3.9-15.9 13.1-15.9 18.6 0 1-.5 2.3-1 2.8-4.2 4.2 2.3 23.4 10.3 30.3l4.8 4.1h10.2c5.6 0 11.9-.5 14.1-1.1 4.5-1.2 13.6-9.3 13.6-12 0-1 .6-2.2 1.4-2.6 1.9-1.1 4.6-9.5 4.6-14.2 0-9.4-6.3-20.1-12.7-21.7-1.3-.4-2.3-.9-2.3-1.3 0-3.1-22-5.4-27.1-2.9M1344.2 2245c0 1.4.2 1.9.5 1.2.2-.6.2-1.8 0-2.5-.3-.6-.5-.1-.5 1.3M2249 2384.7c-3.6.7-11.5 6.8-15.5 12-4.1 5.4-5.3 12.7-3.7 21.7.9 4.7 1.8 6.7 4 8.6 1.6 1.4 3.2 3.3 3.5 4.3.4.9 1.5 2 2.4 2.4 1 .4 4 2.2 6.7 4 4.5 3.1 5.5 3.4 12 3.2 6.2-.1 7.7-.5 11.5-3.3 6-4.2 13.7-12.3 15.7-16.5 1.2-2.5 1.5-5.3 1.2-10.6-.6-9.6-3.1-13.8-13.4-22.4-3.9-3.3-15.9-4.9-24.4-3.4M1969.9 2939.4c-7.2 2.6-17.3 13.5-15.4 16.6.3.6-.1 1-1 1-4.3 0-4.5 12.5-.3 18.1 1.4 1.9 3 4.7 3.5 6.4.7 2.1 3.1 4.5 8.3 8l7.4 5h9.2c8.1 0 9.7-.3 12.1-2.3 1.5-1.2 4.5-3.4 6.6-4.8 4.3-2.8 6.1-6.4 7.3-13.9.6-4.3.8-4.6 1.6-2.6 1.3 3.7 3 1.1 2.6-4-.2-3.5-.7-4.4-2-4.3-1.1.1-1.8-.5-1.8-1.7 0-6.7-8.2-17.2-16.5-21-4.8-2.2-16.2-2.5-21.6-.5M2958.5 1015c1.7.4 5 .8 7.5.8h4.5l-4-.9c-2.2-.4-5.6-.8-7.5-.7h-3.5zM2043 1342.9c-7.7 2.5-15.1 8.3-18.1 14.2-2.3 4.5-2.6 18.2-.5 24 2.9 8.1 12.4 16.6 19 17.1 2 .1 3.6.5 3.6.9 0 1.4 11.6-1.3 17.5-4.1 8.1-3.8 13.7-10 15.3-17 3.7-15.8-1.2-27.8-13.6-33.2-5-2.2-18.8-3.4-23.2-1.9M2615.1 3771.6c0 1.1.3 1.4.6.6.3-.7.2-1.6-.1-1.9-.3-.4-.6.2-.5 1.3"/></svg>