<?xml version="1.0" standalone="no"?>
<!DOCTYPE svg PUBLIC "-//W3C//DTD SVG 20010904//EN"
 "http://www.w3.org/TR/2001/REC-SVG-20010904/DTD/svg10.dtd">
<svg version="1.0" xmlns="http://www.w3.org/2000/svg"
 width="4424.000000pt" height="4424.000000pt" viewBox="0 0 4424.000000 4424.000000"
 preserveAspectRatio="xMidYMid meet">
<metadata>
Created by potrace 1.16, written by Peter Selinger 2001-2019
</metadata>
<g transform="translate(0.000000,4424.000000) scale(0.100000,-0.100000)"
fill="#000000" stroke="none">
<path d="M10912 41787 c-17 -22 25 -464 47 -491 5 -6 23 -61 40 -123 18 -61
38 -124 45 -140 8 -15 22 -46 32 -68 29 -63 142 -244 190 -305 48 -60 60 -76
101 -132 16 -21 34 -37 41 -38 6 0 12 -6 12 -14 0 -19 204 -208 340 -316 63
-50 176 -131 250 -180 74 -50 155 -104 180 -121 25 -16 74 -48 110 -71 80 -51
447 -296 515 -345 125 -90 566 -471 650 -562 22 -24 57 -62 78 -83 20 -22 37
-43 37 -46 0 -4 18 -25 40 -47 21 -22 39 -43 40 -48 0 -4 10 -24 23 -45 13
-20 28 -56 34 -79 l11 -42 -30 15 c-16 8 -32 22 -35 30 -3 7 -10 14 -16 14 -6
0 -45 35 -87 78 -150 151 -313 272 -623 461 -80 49 -399 212 -722 369 -457
221 -655 344 -942 586 -40 34 -102 84 -139 111 -36 28 -245 228 -463 445 -383
381 -522 510 -654 604 -273 194 -700 390 -940 431 -51 9 -116 20 -146 25 -30
6 -72 10 -93 10 -21 0 -38 3 -38 8 0 4 -12 8 -27 8 -16 1 -58 4 -94 7 -73 6
-79 4 -96 -35 -12 -26 -11 -28 15 -34 54 -11 192 -57 192 -63 0 -4 17 -13 38
-21 20 -7 53 -23 72 -35 19 -12 87 -53 150 -90 253 -149 526 -390 735 -646 78
-96 163 -218 196 -281 75 -142 122 -245 140 -306 12 -40 27 -79 35 -87 8 -7
23 -62 34 -122 34 -186 41 -211 56 -217 10 -4 14 -23 14 -68 0 -35 8 -153 17
-263 21 -239 24 -654 5 -865 -7 -80 -16 -212 -21 -295 -6 -104 -14 -160 -25
-181 -16 -31 -39 -206 -56 -427 -5 -65 -14 -125 -20 -132 -20 -24 -31 -224
-32 -560 0 -363 10 -550 30 -565 4 -3 9 -37 11 -76 2 -54 -1 -73 -13 -83 -20
-17 -46 1 -46 30 0 11 -5 19 -11 19 -5 0 -8 4 -4 9 3 5 -5 21 -18 35 -24 26
-50 117 -63 221 -3 28 -21 110 -40 183 -21 83 -34 157 -34 197 0 62 -5 92 -31
200 -20 85 -24 159 -23 480 0 200 5 330 12 365 20 91 21 98 31 275 13 215 14
599 2 662 -6 26 -12 80 -15 118 -3 39 -9 86 -15 105 -5 19 -12 60 -16 90 -10
87 -37 210 -46 210 -5 0 -9 8 -9 18 0 32 -61 213 -70 207 -4 -3 -12 9 -15 27
-14 64 -102 220 -204 363 -119 167 -264 335 -277 322 -4 -4 -13 -2 -21 4 -29
25 -12 -35 28 -94 61 -92 152 -284 212 -447 34 -94 51 -172 63 -282 3 -32 9
-58 13 -58 7 0 14 -48 40 -275 13 -111 13 -607 0 -740 -5 -60 -14 -154 -18
-208 -5 -53 -14 -104 -20 -111 -11 -13 -25 -111 -52 -366 -5 -52 -16 -118 -24
-146 -22 -76 -36 -397 -30 -669 5 -246 11 -323 25 -340 4 -5 10 -32 14 -60 17
-132 49 -332 56 -350 4 -11 13 -33 19 -48 6 -15 18 -63 26 -105 9 -42 26 -97
39 -122 13 -25 31 -70 41 -100 10 -30 25 -66 35 -80 9 -14 22 -41 29 -60 8
-19 20 -49 27 -67 8 -17 14 -36 14 -42 0 -6 7 -11 15 -11 8 0 15 -8 15 -19 0
-10 11 -35 25 -55 14 -20 25 -41 25 -45 0 -5 6 -11 14 -14 8 -3 17 -20 21 -38
8 -35 38 -94 61 -120 8 -8 14 -19 14 -23 0 -5 15 -33 34 -64 18 -32 57 -96 85
-144 29 -48 58 -93 64 -100 7 -7 32 -40 56 -73 76 -102 214 -265 225 -265 3 0
53 -49 113 -108 117 -117 236 -225 256 -231 7 -2 29 -20 49 -40 20 -20 71 -67
112 -106 42 -38 76 -77 76 -87 0 -10 4 -18 9 -18 10 0 9 -25 -1 -35 -7 -7
-130 49 -170 77 -14 10 -32 18 -40 18 -7 1 -31 14 -53 30 -22 16 -86 57 -142
91 -57 34 -111 70 -121 79 -10 10 -29 24 -43 31 -44 25 -122 83 -214 159 -49
41 -110 89 -135 105 -93 63 -326 315 -446 482 -63 86 -163 262 -211 368 -77
171 -111 250 -128 305 -10 30 -23 62 -30 70 -7 8 -20 56 -29 105 -27 145 -37
185 -47 179 -5 -3 -9 -1 -9 5 0 6 -6 59 -14 118 -8 59 -17 141 -21 181 -3 40
-13 92 -21 114 -18 51 -35 370 -29 517 8 156 12 196 34 306 11 55 22 141 26
190 6 84 5 89 -10 70 -9 -11 -21 -19 -26 -17 -18 4 -68 -125 -89 -232 -12 -60
-31 -136 -41 -169 -10 -33 -19 -74 -20 -91 -1 -65 -44 -291 -55 -289 -17 3
-24 -121 -24 -436 0 -257 2 -292 20 -346 20 -62 46 -185 60 -289 4 -32 12 -61
17 -65 5 -3 15 -30 21 -60 7 -30 28 -94 47 -142 19 -47 35 -91 35 -97 0 -15
40 -91 50 -97 9 -6 60 -112 60 -125 0 -12 106 -186 184 -302 282 -419 449
-586 871 -873 259 -176 525 -317 694 -367 19 -5 44 -16 55 -23 12 -7 59 -23
106 -35 47 -12 96 -28 110 -35 32 -16 90 -30 215 -50 55 -9 120 -25 145 -36
39 -16 123 -31 250 -45 19 -2 58 -8 85 -14 28 -6 59 -13 70 -15 11 -2 44 -8
74 -14 29 -6 82 -11 116 -11 84 0 185 -11 180 -20 -7 -11 221 -44 409 -59 60
-5 112 -14 116 -20 3 -6 35 -15 71 -20 153 -21 277 -45 314 -61 22 -10 83 -28
135 -40 52 -12 100 -27 105 -34 11 -12 110 -56 129 -56 6 0 22 -9 36 -21 14
-11 49 -36 78 -56 30 -20 95 -77 145 -126 51 -50 96 -90 100 -89 5 2 6 -2 3
-7 -4 -5 -2 -11 3 -13 13 -5 99 -135 137 -206 59 -111 38 -150 -39 -73 -25 25
-79 79 -118 119 -40 40 -92 87 -117 104 -83 57 -235 127 -312 144 -41 9 -80
22 -85 29 -6 7 -44 18 -85 24 -124 20 -182 32 -240 51 -32 10 -120 23 -210 30
-85 6 -176 16 -203 21 -26 5 -78 12 -115 15 -37 3 -85 10 -107 15 -22 5 -137
13 -255 19 -252 13 -308 19 -291 29 16 10 -64 25 -253 48 -82 9 -154 22 -160
28 -15 15 -79 31 -199 50 -106 17 -127 23 -127 34 0 5 -26 14 -57 20 -78 18
-181 49 -214 67 -15 7 -49 18 -75 24 -27 6 -76 24 -108 41 -33 16 -67 29 -76
29 -9 0 -40 13 -70 29 -53 29 -67 36 -135 67 -69 31 -247 134 -305 177 -14 10
-61 44 -105 76 -144 104 -241 199 -357 349 -103 134 -138 171 -145 154 -4 -10
-8 -10 -21 0 -13 12 -14 9 -8 -25 10 -51 43 -127 56 -127 5 0 10 -11 10 -24 0
-68 163 -335 309 -505 85 -98 127 -139 226 -219 174 -140 241 -189 306 -224
35 -19 93 -52 129 -72 36 -20 85 -46 110 -58 25 -11 79 -36 120 -55 41 -20 97
-44 125 -55 27 -11 54 -23 60 -28 5 -4 35 -13 65 -20 30 -7 62 -17 70 -21 36
-19 150 -49 210 -56 35 -3 78 -14 95 -24 18 -10 91 -26 180 -39 83 -12 179
-30 215 -40 72 -21 97 -24 413 -45 135 -10 232 -21 253 -30 20 -8 118 -21 237
-30 205 -15 387 -43 367 -55 -7 -4 17 -12 52 -19 81 -15 186 -48 212 -67 11
-8 28 -14 37 -14 10 0 42 -22 71 -49 79 -72 93 -134 63 -277 -13 -62 -84 -221
-105 -234 -5 -3 -27 -41 -51 -85 -52 -99 -84 -135 -120 -135 -42 0 -74 33
-129 137 -29 54 -68 118 -88 143 -43 55 -169 160 -209 175 -15 5 -39 18 -53
27 -72 48 -267 50 -396 4 -39 -14 -78 -26 -86 -26 -8 0 -55 -20 -104 -44 -150
-73 -283 -184 -429 -361 -28 -33 -52 -62 -55 -65 -43 -41 -174 -249 -243 -384
-46 -92 -131 -346 -142 -426 -4 -30 -18 -107 -32 -170 -13 -63 -29 -171 -34
-240 -13 -162 -7 -728 8 -755 6 -11 23 -90 38 -175 29 -163 83 -344 139 -464
18 -39 37 -82 41 -96 19 -61 144 -230 252 -340 137 -140 199 -188 281 -220 41
-16 62 -30 62 -41 0 -25 -38 -208 -54 -259 -8 -25 -17 -65 -21 -90 -3 -25 -10
-67 -15 -95 -5 -27 -14 -83 -20 -123 -7 -40 -18 -85 -25 -100 -8 -15 -18 -58
-24 -97 -22 -141 -32 -191 -47 -217 -8 -15 -19 -62 -24 -105 -11 -92 -36 -231
-45 -255 -4 -10 -11 -18 -15 -18 -10 0 -18 -46 -26 -145 -3 -44 -7 -82 -9 -86
-14 -21 -56 -211 -66 -296 -7 -56 -15 -100 -18 -97 -10 10 -60 -210 -61 -269
0 -15 -7 -42 -17 -60 -9 -18 -22 -68 -29 -112 -29 -182 -41 -241 -53 -263 -7
-12 -19 -64 -27 -115 -8 -51 -26 -134 -39 -185 -14 -50 -34 -147 -45 -215 -11
-67 -30 -155 -41 -196 -11 -40 -24 -121 -30 -180 -6 -58 -17 -126 -25 -150
-17 -54 -19 -204 -2 -234 7 -12 15 -81 19 -153 6 -115 10 -137 33 -178 17 -31
33 -87 47 -164 11 -64 25 -119 29 -122 7 -4 20 -47 62 -195 6 -22 17 -51 24
-65 7 -14 24 -72 38 -129 15 -58 30 -108 35 -111 20 -12 56 -456 46 -565 -2
-27 -9 -106 -16 -175 -7 -82 -21 -156 -39 -215 -15 -49 -33 -118 -39 -153 -5
-35 -19 -78 -30 -95 -11 -18 -25 -61 -32 -97 -7 -36 -26 -85 -41 -110 -15 -25
-32 -68 -38 -95 -6 -27 -25 -76 -41 -108 -16 -33 -32 -79 -36 -103 -3 -24 -11
-44 -17 -44 -16 0 -54 -80 -62 -130 -4 -22 -12 -40 -19 -40 -7 0 -18 -15 -25
-32 -6 -18 -18 -48 -26 -65 -7 -18 -11 -39 -8 -48 4 -10 -3 -18 -20 -25 -14
-5 -26 -17 -26 -27 -1 -33 -38 -126 -54 -135 -9 -5 -16 -17 -16 -26 0 -10 -4
-22 -9 -27 -4 -6 -16 -31 -26 -57 -10 -26 -24 -53 -31 -59 -7 -6 -16 -27 -20
-48 -4 -20 -21 -58 -39 -86 -18 -27 -36 -64 -40 -82 -8 -41 -43 -113 -54 -113
-4 0 -14 -27 -21 -60 -7 -33 -16 -60 -20 -60 -11 0 -48 -65 -57 -98 -3 -15
-26 -64 -50 -110 -24 -45 -43 -91 -43 -102 0 -11 -4 -20 -8 -20 -9 0 -16 -13
-57 -100 -14 -30 -41 -84 -60 -120 -18 -36 -34 -72 -34 -80 -1 -9 -10 -23 -21
-33 -11 -9 -20 -24 -20 -34 0 -18 -36 -98 -54 -122 -17 -21 -35 -82 -29 -97 3
-9 0 -12 -8 -9 -16 5 -69 -98 -69 -133 0 -12 -6 -22 -12 -22 -14 -1 -58 -86
-58 -111 0 -9 -11 -24 -25 -33 -14 -9 -25 -24 -25 -34 0 -10 -7 -27 -15 -38
-8 -10 -15 -34 -15 -51 0 -23 -5 -33 -15 -33 -9 0 -20 -12 -26 -28 -6 -15 -17
-39 -25 -54 -8 -14 -14 -33 -14 -40 0 -8 -9 -23 -20 -33 -11 -10 -20 -24 -20
-32 0 -8 -18 -44 -40 -81 -23 -37 -44 -78 -47 -92 -4 -14 -12 -31 -20 -38 -7
-7 -13 -19 -13 -27 0 -7 -6 -15 -14 -18 -8 -3 -20 -28 -27 -56 -7 -29 -19 -51
-26 -51 -7 0 -13 -6 -13 -14 0 -7 -7 -19 -15 -26 -8 -7 -17 -27 -21 -46 -3
-19 -10 -34 -14 -34 -8 0 -53 -89 -65 -130 -5 -14 -18 -41 -32 -60 -13 -20
-31 -58 -41 -86 -9 -27 -25 -60 -35 -74 -9 -13 -17 -28 -17 -33 0 -4 -9 -27
-19 -50 -11 -24 -23 -55 -26 -70 -4 -15 -10 -27 -14 -27 -4 0 -12 -21 -20 -47
-7 -27 -28 -88 -47 -136 -19 -49 -34 -97 -34 -107 0 -10 -9 -46 -20 -81 -30
-99 -44 -246 -31 -323 20 -115 96 -283 172 -381 63 -81 151 -163 184 -171 15
-4 37 -17 50 -29 23 -24 81 -45 123 -45 12 0 22 -6 22 -14 0 -8 8 -17 18 -20
41 -13 184 -35 267 -41 50 -3 115 -15 146 -25 49 -17 101 -19 470 -25 228 -3
428 -8 446 -11 17 -2 44 -17 60 -33 19 -20 43 -31 74 -35 37 -6 57 -17 104
-60 31 -30 62 -64 69 -77 7 -13 19 -23 28 -21 13 2 17 -10 23 -58 7 -64 -13
-210 -26 -189 -4 8 -12 -5 -19 -32 -6 -24 -15 -57 -20 -74 -4 -16 -11 -42 -14
-56 -3 -14 -17 -38 -31 -53 -14 -15 -25 -37 -25 -49 0 -27 -32 -130 -53 -172
-8 -16 -18 -61 -21 -100 -6 -64 -34 -166 -56 -207 -5 -9 -12 -71 -16 -137 l-7
-120 44 -77 c45 -79 137 -173 194 -199 16 -7 63 -19 103 -25 43 -7 75 -18 80
-27 19 -32 148 -43 567 -46 171 -2 318 -7 328 -11 15 -7 18 -16 13 -39 -4 -17
-11 -34 -17 -38 -6 -3 -47 -9 -92 -13 -284 -23 -315 -28 -286 -47 11 -7 9 -9
-6 -9 -11 -1 -84 -5 -161 -9 l-142 -7 -55 -50 c-71 -64 -186 -200 -203 -240
-8 -18 -15 -46 -16 -63 -1 -17 -8 -31 -14 -31 -17 0 -36 -95 -28 -139 4 -20
15 -50 25 -67 11 -17 19 -41 19 -52 0 -12 27 -52 61 -89 33 -37 74 -86 91
-108 18 -22 52 -58 78 -80 25 -22 63 -62 84 -88 21 -26 55 -57 77 -67 34 -18
87 -67 165 -152 18 -20 51 -67 89 -130 5 -9 25 -37 43 -63 54 -78 69 -116 78
-205 12 -122 6 -382 -11 -470 -8 -41 -16 -95 -19 -120 -5 -51 -14 -80 -26 -80
-4 0 -13 -37 -19 -82 -25 -178 -42 -263 -57 -279 -21 -24 -34 -197 -34 -474 0
-254 9 -338 44 -399 13 -23 29 -65 35 -94 21 -102 138 -301 239 -407 132 -139
300 -277 368 -304 18 -7 44 -26 60 -42 15 -16 42 -32 61 -35 18 -3 33 -10 33
-15 0 -5 8 -13 18 -16 9 -4 22 -12 29 -19 7 -6 41 -17 77 -25 36 -7 63 -16 60
-21 -17 -27 51 -48 189 -57 4 -1 7 -9 7 -20 0 -21 25 -31 85 -31 64 -1 140
-24 137 -42 -3 -22 30 -27 235 -33 98 -3 219 -7 268 -9 116 -5 510 11 555 22
19 5 34 14 33 20 -4 17 20 21 237 36 164 11 206 17 216 30 14 20 87 33 219 40
122 6 150 11 241 42 51 17 103 25 195 29 140 7 207 18 294 46 81 26 255 39
515 39 268 -1 355 -10 381 -44 10 -13 37 -31 59 -40 82 -32 186 -161 211 -259
6 -26 15 -50 20 -53 5 -3 9 -14 9 -26 0 -13 5 -18 14 -15 10 4 16 -15 25 -76
6 -45 11 -97 11 -116 0 -19 3 -31 7 -28 8 9 32 -24 33 -45 0 -9 4 -18 10 -20
6 -2 14 -91 20 -213 5 -115 10 -211 10 -212 0 -2 5 -3 10 -3 6 0 10 14 10 32
0 112 37 -133 49 -325 5 -82 12 -151 15 -154 3 -4 6 6 6 21 0 47 17 19 29 -46
5 -35 15 -130 21 -213 6 -82 15 -168 20 -190 l8 -40 2 45 c2 43 2 44 11 15 5
-16 18 -124 30 -240 21 -215 37 -287 40 -185 1 45 3 39 10 -35 29 -345 40
-1014 20 -1218 -6 -51 -13 -128 -17 -172 -4 -55 -9 -74 -15 -60 -8 22 -10 20
-15 -10 -1 -11 -9 -51 -17 -90 -8 -38 -18 -87 -21 -108 -4 -20 -16 -45 -26
-55 -12 -11 -25 -47 -34 -93 -21 -102 -31 -134 -44 -132 -12 3 -17 -11 -26
-68 -8 -46 -34 -99 -52 -106 -7 -3 -16 -21 -20 -41 -8 -47 -29 -87 -52 -104
-11 -7 -22 -29 -26 -49 -3 -20 -22 -57 -41 -82 -19 -25 -35 -48 -35 -52 0 -8
-162 -240 -220 -315 -27 -36 -72 -88 -98 -116 -26 -29 -71 -82 -101 -118 -29
-36 -68 -81 -85 -100 -17 -18 -76 -84 -131 -147 -55 -62 -120 -134 -144 -159
-24 -25 -60 -65 -80 -90 -19 -25 -46 -56 -60 -70 -45 -48 -341 -421 -341 -431
0 -6 -13 -27 -30 -47 -33 -42 -70 -139 -70 -186 0 -49 37 -138 68 -166 93 -82
114 -94 190 -110 34 -7 72 -21 84 -31 11 -11 32 -19 46 -19 51 0 237 -32 272
-47 53 -23 92 -27 365 -43 118 -6 189 -16 270 -36 l110 -28 870 1 870 1 130
27 c111 23 169 28 400 37 337 11 422 17 404 28 -7 5 -11 11 -8 14 12 12 150
26 349 36 118 6 219 15 224 20 7 7 3 10 -9 10 -18 1 -18 2 -3 10 21 13 287 40
398 41 47 0 94 4 105 8 19 7 19 8 0 18 -18 10 -18 11 1 16 18 6 130 18 288 33
54 5 69 10 73 24 6 21 35 28 152 36 112 7 175 22 161 39 -16 19 7 24 154 36
124 11 132 13 156 39 23 25 35 29 130 39 83 9 113 17 143 37 28 19 65 29 153
41 85 12 114 20 110 29 -7 19 -2 21 119 39 82 12 114 21 125 34 10 13 44 24
100 35 129 25 130 25 124 40 -4 10 21 18 107 31 135 21 138 21 132 44 -4 16 9
20 103 35 60 9 110 19 113 21 2 3 -2 11 -9 20 -15 18 -13 19 89 34 80 13 111
25 111 45 0 8 29 19 77 29 44 10 86 25 98 37 12 11 53 29 90 39 38 11 75 27
81 36 7 9 42 27 79 40 37 13 71 28 75 35 4 6 33 24 66 41 122 61 174 101 202
154 14 27 16 139 18 1000 1 534 3 974 3 979 2 16 84 -2 95 -21 20 -37 108
-121 139 -134 18 -7 46 -22 62 -34 41 -30 89 -45 142 -45 36 0 43 -3 41 -17
-4 -24 50 -31 242 -32 156 -1 210 8 160 27 -24 9 -24 10 10 15 19 4 57 9 84
12 50 7 76 17 111 46 11 9 30 20 43 24 62 18 239 198 297 300 50 88 54 100 60
160 11 108 25 164 39 159 16 -6 30 212 17 266 -5 19 -9 26 -10 16 -2 -48 -20
8 -40 123 -15 88 -27 131 -40 145 -11 12 -28 41 -39 66 -23 54 -107 160 -127
160 -8 0 -18 6 -22 13 -11 17 -89 77 -100 77 -6 0 -17 8 -27 18 -9 11 -35 25
-57 32 -25 9 -44 22 -49 36 -7 18 -23 24 -96 38 -48 9 -90 18 -93 21 -17 18
-20 503 -14 2726 l6 2467 -24 30 c-13 17 -28 31 -33 31 -5 1 -18 10 -30 21
-20 19 -121 115 -236 223 -28 26 -52 47 -54 47 -19 0 -390 370 -431 430 l-30
43 1 316 c0 174 3 333 7 354 17 81 -41 134 1028 -929 201 -200 370 -364 376
-364 31 0 33 -52 33 -919 l0 -869 47 -63 c25 -35 356 -373 736 -751 l689 -686
0 -1674 c1 -920 -2 -1691 -6 -1713 -7 -38 -11 -42 -74 -72 -105 -49 -260 -158
-339 -237 -73 -73 -154 -192 -173 -255 -6 -20 -22 -58 -35 -86 -58 -121 -61
-477 -5 -585 10 -19 25 -56 34 -82 39 -108 183 -273 300 -343 36 -22 80 -48
97 -59 16 -10 48 -22 70 -27 23 -5 47 -16 55 -23 7 -8 48 -22 91 -31 122 -27
337 -10 384 31 8 8 39 18 67 24 55 10 97 32 106 56 3 8 16 14 29 14 13 0 50
19 82 43 132 96 222 214 263 347 11 36 28 83 37 105 24 54 37 252 26 390 -7
96 -12 120 -44 188 -21 42 -37 80 -37 84 0 24 -89 149 -147 205 -134 130 -258
208 -385 243 l-58 16 0 1767 c0 1726 -1 1768 -19 1797 -32 49 -53 71 -750 770
-367 369 -676 684 -687 700 -18 28 -19 65 -24 900 l-5 871 -32 39 c-58 73
-1354 1350 -1498 1476 -28 25 -92 85 -142 135 -69 68 -93 99 -98 125 -3 19 -5
318 -3 666 2 502 6 635 16 645 7 7 35 13 65 13 584 -6 682 -11 671 -39 -3 -7
21 -36 52 -66 31 -30 73 -72 93 -92 20 -21 42 -38 49 -38 7 0 15 -8 19 -17 6
-19 487 -503 498 -503 4 0 35 -30 69 -67 81 -89 283 -299 323 -336 18 -17 150
-148 295 -293 145 -145 268 -264 275 -264 6 0 15 -8 18 -17 4 -10 52 -58 107
-108 176 -157 309 -287 324 -317 8 -16 18 -27 22 -24 13 8 17 -131 15 -444 -2
-270 -4 -297 -21 -320 -24 -32 -84 -74 -142 -100 -25 -11 -76 -43 -115 -70
-38 -28 -83 -58 -99 -68 -43 -25 -115 -101 -137 -144 -10 -20 -30 -53 -43 -73
-14 -20 -28 -50 -32 -68 -3 -18 -17 -53 -30 -78 -39 -79 -56 -297 -34 -437 18
-106 71 -233 134 -317 78 -103 163 -193 200 -212 17 -9 35 -22 39 -29 8 -14
87 -54 105 -54 5 0 15 -7 22 -14 15 -19 51 -30 172 -51 107 -19 186 -17 348 9
77 13 103 22 145 51 28 19 57 35 63 35 7 0 22 10 34 22 16 16 20 17 15 5 -9
-24 1 -21 33 10 15 16 49 47 74 70 48 44 141 160 157 197 5 12 18 35 29 53 10
17 26 67 35 110 9 42 20 80 24 83 20 13 34 135 28 248 -10 217 -88 401 -233
545 -64 64 -136 117 -160 117 -7 0 -14 4 -14 10 0 10 -123 70 -145 70 -8 0
-18 6 -22 13 -4 7 -27 21 -50 31 -24 10 -50 30 -59 44 -24 36 -33 187 -33 569
-1 322 -5 368 -37 380 -20 7 -84 70 -84 82 0 5 -10 11 -21 14 -14 4 -20 11
-16 21 4 10 -23 41 -80 93 -48 43 -266 256 -485 473 -219 217 -406 403 -415
412 -176 170 -903 908 -903 916 0 7 -6 12 -13 12 -14 0 -47 35 -47 50 0 6 -4
10 -9 10 -12 0 -27 15 -66 65 -16 21 -36 44 -42 51 -7 7 -13 16 -13 21 0 11
-59 49 -88 58 -25 7 -182 8 -572 1 -244 -4 -266 0 -288 49 -8 17 -12 91 -12
223 0 168 3 202 18 231 l17 35 665 2 c366 2 730 5 810 9 108 4 158 2 196 -9
69 -18 74 -22 129 -91 47 -59 269 -282 456 -459 52 -50 340 -333 640 -630 301
-298 553 -546 560 -552 8 -6 223 -222 479 -480 498 -502 943 -940 1031 -1015
l54 -46 -3 -2419 c-2 -1538 -7 -2437 -13 -2470 l-10 -51 -77 -17 c-115 -27
-251 -107 -355 -209 -53 -51 -127 -151 -127 -170 0 -8 -16 -46 -35 -85 -46
-91 -55 -149 -55 -357 0 -191 12 -287 40 -322 10 -13 26 -48 36 -76 9 -29 25
-61 34 -72 10 -11 34 -48 54 -82 56 -95 198 -205 314 -242 34 -11 75 -30 91
-42 26 -19 45 -22 186 -27 169 -5 315 9 336 34 6 8 42 24 80 35 37 11 80 31
96 45 15 13 34 24 42 24 26 0 200 187 227 245 15 30 30 55 34 55 11 0 36 67
51 134 7 32 22 67 33 78 19 17 20 31 21 201 0 161 -2 188 -20 227 -11 25 -22
47 -26 50 -3 3 -9 28 -13 55 -10 67 -76 181 -148 256 -32 32 -58 63 -58 69 0
5 -4 10 -8 10 -5 0 -32 17 -60 38 -110 80 -175 115 -242 130 -56 12 -70 19
-80 41 -10 20 -12 569 -11 2486 1 1353 -1 2484 -5 2512 -5 44 -13 58 -48 90
-22 21 -194 191 -381 378 -187 188 -587 584 -889 880 -533 525 -770 759 -1521
1503 -198 196 -403 398 -455 447 -52 50 -120 120 -151 155 l-55 64 -931 1
c-512 0 -935 4 -940 8 -4 5 -8 126 -8 269 0 245 1 260 19 274 15 10 52 14 145
13 69 0 189 2 266 5 77 4 199 6 270 5 72 0 146 1 165 2 19 2 55 3 80 3 25 0
48 5 52 10 5 8 8 8 8 1 0 -7 28 -10 78 -7 42 2 293 4 557 5 l480 2 47 -23 c33
-16 109 -86 250 -230 112 -113 757 -762 1433 -1442 677 -679 1354 -1361 1506
-1515 620 -632 812 -827 945 -965 76 -79 375 -383 664 -675 703 -709 921 -931
1032 -1049 51 -54 142 -148 202 -208 101 -103 108 -112 102 -141 -4 -18 -19
-42 -35 -54 -18 -14 -33 -39 -40 -66 -6 -24 -18 -50 -26 -57 -22 -18 -55 -93
-55 -125 0 -14 -9 -47 -21 -72 -44 -98 -49 -274 -10 -356 11 -23 25 -67 30
-97 5 -32 25 -80 45 -114 20 -33 36 -65 36 -72 0 -28 176 -207 232 -235 24
-12 58 -34 75 -50 18 -15 50 -31 70 -34 72 -11 113 -26 113 -40 0 -23 63 -30
275 -30 214 0 250 5 257 33 4 13 22 22 64 31 32 8 72 24 88 38 16 13 45 32 65
43 112 57 263 272 330 469 27 79 38 273 23 411 -8 74 -18 111 -45 167 -19 40
-37 80 -41 90 -14 40 -91 147 -128 178 -81 69 -161 127 -190 137 -18 6 -39 18
-46 25 -7 7 -19 13 -26 13 -8 0 -19 6 -25 14 -7 8 -40 17 -74 21 -41 5 -69 14
-84 27 -38 35 -155 46 -276 25 -55 -10 -108 -23 -116 -30 -19 -16 -109 -37
-160 -37 -45 0 -63 12 -143 97 -35 36 -148 149 -252 252 -104 102 -218 217
-255 255 -84 88 -637 649 -971 985 -140 141 -390 396 -555 566 -165 170 -383
395 -485 500 -102 104 -251 257 -330 339 -369 380 -2041 2056 -2052 2056 -4 0
-15 14 -25 30 -9 17 -20 30 -24 30 -8 0 -195 185 -424 420 -88 91 -257 260
-375 376 -118 116 -251 250 -295 298 l-80 86 -1130 0 c-622 0 -1140 3 -1151 6
-36 9 -46 90 -42 326 4 264 -7 248 180 259 73 4 678 8 1343 8 l1210 1 50 -29
c32 -18 169 -148 375 -357 706 -711 1614 -1618 1975 -1972 209 -205 403 -396
430 -424 28 -29 274 -278 547 -553 273 -275 624 -629 780 -787 l283 -288 45 0
c472 2 1820 -9 1832 -15 18 -7 23 -18 33 -75 11 -64 85 -195 149 -263 139
-148 254 -228 346 -242 70 -10 109 -25 124 -46 12 -17 27 -19 162 -21 162 -2
219 5 210 28 -3 9 3 16 17 19 12 2 52 11 89 20 80 17 196 77 284 146 125 98
268 328 295 474 32 176 7 480 -47 545 -7 8 -17 33 -23 56 -6 22 -35 74 -65
115 -57 76 -164 189 -180 189 -6 0 -21 11 -35 23 -15 13 -54 34 -88 47 -35 12
-63 26 -63 29 0 4 -17 15 -37 25 -94 45 -526 43 -616 -3 -20 -10 -34 -21 -31
-24 4 -3 -10 -9 -31 -13 -46 -8 -135 -51 -135 -64 0 -6 -8 -10 -17 -10 -23 0
-129 -102 -150 -144 -9 -17 -28 -47 -44 -67 -16 -20 -33 -47 -39 -60 -5 -13
-14 -31 -19 -39 -26 -41 -42 -91 -57 -173 -24 -141 14 -127 -347 -128 -594 -2
-1422 2 -1437 7 -8 2 -33 28 -55 56 -63 82 -1607 1634 -3472 3492 -414 412
-755 757 -758 766 -3 10 -25 31 -48 46 l-42 29 -785 -2 c-432 -1 -931 -5
-1110 -9 -520 -11 -850 -11 -915 -2 -130 19 -126 12 -125 278 0 231 9 275 52
284 37 8 605 15 1668 21 542 3 1114 8 1272 11 244 4 291 3 315 -10 31 -17 221
-201 378 -366 263 -277 1218 -1244 1924 -1947 858 -855 796 -802 909 -789 61
7 899 8 994 1 32 -2 66 -6 76 -9 18 -6 88 -137 111 -206 13 -40 73 -123 146
-201 27 -30 50 -57 50 -61 0 -12 14 -20 47 -27 22 -5 32 -12 30 -23 -2 -16 91
-58 128 -58 29 0 50 -11 50 -26 0 -26 81 -37 260 -37 181 0 272 14 304 46 9 8
39 18 68 22 29 4 59 11 68 15 8 5 23 11 33 14 9 3 17 10 17 16 0 5 -8 10 -17
10 -32 0 7 19 54 26 29 4 44 12 48 25 3 10 20 27 38 38 52 32 114 103 128 146
7 22 25 58 40 80 14 22 36 72 48 111 12 38 28 80 37 92 9 14 17 57 21 119 7
112 -5 355 -17 348 -8 -5 -37 63 -60 137 -31 101 -189 286 -293 341 -28 16
-76 42 -106 58 -30 16 -66 29 -80 30 -43 1 -137 23 -153 36 -42 36 -234 31
-284 -6 -22 -16 -52 -24 -110 -30 -63 -6 -90 -14 -125 -37 -24 -16 -45 -32
-47 -36 -2 -5 -12 -8 -23 -8 -27 0 -190 -160 -250 -245 -29 -40 -52 -86 -56
-107 -3 -21 -9 -38 -14 -38 -12 0 -38 -64 -50 -122 -19 -88 -28 -93 -181 -95
-524 -8 -878 -11 -905 -6 -26 4 -116 89 -492 467 -253 253 -474 477 -492 496
-44 49 -300 310 -304 310 -1 0 -28 24 -58 53 -30 28 -66 61 -79 73 -12 11 -69
70 -126 130 -189 200 -703 725 -998 1019 -159 160 -317 320 -351 356 -33 37
-70 72 -82 78 -12 7 -21 21 -21 36 0 28 -13 38 -55 42 -16 1 -41 6 -55 9 -14
4 -45 6 -70 6 -25 -1 -54 3 -65 8 -14 7 -50 8 -110 2 -111 -12 -3117 -18
-3146 -7 -37 14 -44 61 -43 307 1 131 4 248 8 261 5 21 13 25 67 31 82 8 3872
6 3926 -2 23 -4 54 -18 70 -33 15 -15 449 -449 965 -965 1036 -1039 1075
-1078 1101 -1087 9 -4 17 -12 17 -18 0 -8 4 -8 15 1 8 6 18 9 23 6 5 -3 43 28
85 70 98 96 99 103 10 196 -74 76 -72 74 -122 133 -18 22 -318 328 -665 680
-917 929 -974 988 -1156 1175 l-165 170 -2082 2 c-1145 2 -2085 7 -2090 11
-13 14 -10 514 3 527 10 10 1496 13 4603 10 l105 0 1103 -1102 c607 -607 1105
-1105 1108 -1107 2 -2 363 -2 802 -2 508 1 809 -2 825 -8 19 -7 32 -25 46 -63
11 -29 25 -52 31 -50 6 1 11 -7 11 -17 0 -11 5 -23 11 -26 5 -4 8 -12 6 -18
-11 -31 82 -154 224 -296 34 -34 152 -111 171 -111 4 0 34 -14 66 -31 70 -37
147 -48 341 -49 166 0 255 13 322 46 26 13 51 24 57 24 16 0 113 70 179 129
80 73 147 156 182 228 16 32 33 56 38 53 4 -3 12 18 16 45 13 79 38 158 56
179 13 15 16 42 15 150 -1 125 -2 134 -32 196 -17 36 -33 89 -37 117 -4 34
-17 67 -36 92 -15 22 -31 51 -35 65 -3 14 -24 40 -45 58 -21 18 -39 38 -39 45
0 7 -5 13 -10 13 -6 0 -32 20 -58 44 -26 25 -60 48 -75 51 -15 4 -25 10 -22
14 2 4 -12 13 -31 20 -18 7 -34 17 -34 22 0 5 -5 9 -12 9 -6 0 -38 13 -72 29
-115 54 -129 56 -326 56 -115 0 -206 -5 -240 -13 -120 -28 -317 -141 -415
-237 -63 -63 -155 -199 -155 -231 0 -13 -5 -24 -11 -24 -13 0 -36 -55 -50
-120 -7 -34 -18 -54 -32 -62 -16 -8 -184 -11 -623 -10 -635 2 -799 6 -851 21
-24 7 -256 233 -876 853 -464 464 -960 957 -1103 1096 l-259 253 -2417 2
c-1329 1 -2420 6 -2425 10 -11 11 -11 1273 0 1284 5 4 93 8 195 9 103 0 401 5
662 10 587 11 4080 12 4620 1 217 -5 413 -13 434 -18 41 -11 214 -181 1076
-1058 157 -159 291 -290 298 -290 6 -1 12 -6 12 -12 0 -20 552 -561 589 -577
31 -13 97 -15 476 -12 1159 7 2541 1 2585 -12 19 -6 45 -20 58 -32 24 -21 92
-149 92 -172 0 -7 6 -19 13 -26 6 -7 25 -33 42 -58 33 -50 231 -250 249 -250
6 0 38 -18 71 -40 33 -22 75 -43 93 -46 19 -4 61 -20 95 -37 55 -27 74 -31
172 -35 147 -5 278 11 307 38 12 11 32 20 44 20 45 0 181 73 272 146 109 88
218 254 237 359 4 22 11 45 15 50 3 6 16 37 28 71 18 50 22 83 22 183 0 115
-10 173 -40 246 -5 11 -18 50 -30 86 -46 147 -204 333 -356 421 -44 25 -129
63 -190 84 l-109 38 -161 -1 c-129 -2 -173 -6 -227 -23 -36 -11 -69 -25 -72
-30 -3 -6 -16 -10 -29 -10 -13 0 -41 -13 -63 -29 -22 -16 -50 -32 -64 -36 -58
-19 -207 -157 -268 -250 -14 -22 -34 -48 -43 -59 -27 -30 -86 -158 -93 -203
-4 -27 -14 -47 -29 -56 -50 -33 -186 -37 -1425 -36 -1272 1 -1496 5 -1548 32
-26 14 -99 81 -291 270 -55 54 -158 164 -353 377 -135 148 -495 514 -959 976
l-335 334 -3032 0 c-2368 0 -3033 3 -3039 12 -10 16 -18 385 -10 442 4 25 13
52 20 59 11 10 478 12 2522 10 1380 -2 2548 -4 2595 -4 48 -1 99 1 113 5 26 6
410 382 757 741 l164 170 1410 3 c776 2 1428 0 1451 -3 30 -4 44 -13 57 -34 9
-16 17 -37 18 -48 0 -10 11 -38 24 -63 13 -25 33 -65 45 -90 11 -24 24 -47 28
-50 4 -3 24 -27 44 -55 76 -105 247 -244 320 -260 17 -4 61 -20 99 -35 84 -35
201 -46 382 -35 102 6 131 11 158 28 19 12 57 28 84 37 108 35 281 179 364
302 121 181 160 371 131 643 -11 111 -26 153 -93 274 -78 143 -245 311 -307
311 -11 0 -28 8 -38 18 -31 31 -91 61 -128 64 -19 1 -39 8 -43 15 -12 22 -166
46 -261 40 -85 -5 -217 -32 -234 -48 -6 -5 -23 -9 -39 -9 -50 0 -199 -86 -274
-159 -118 -112 -245 -321 -262 -430 -6 -36 -16 -68 -23 -73 -7 -4 -697 -8
-1534 -8 l-1520 0 -85 -76 c-46 -42 -117 -110 -158 -152 -41 -43 -199 -203
-350 -357 -152 -154 -291 -296 -308 -317 -29 -33 -38 -37 -95 -42 -86 -8
-4452 -14 -4750 -6 -294 7 -275 -4 -291 164 -10 112 -12 117 -36 123 -14 3
-252 3 -529 0 -535 -7 -602 -3 -602 35 0 10 -7 21 -16 25 -9 3 -71 63 -138
132 -66 69 -177 181 -246 248 l-125 123 -5 302 c-3 167 -3 616 0 998 3 382 3
705 0 717 -13 57 -123 153 -325 285 -163 107 -485 262 -503 243 -3 -3 -12 4
-19 15 -17 24 -62 44 -123 54 -24 4 -50 12 -58 19 -24 19 -114 50 -185 62 -21
3 -35 10 -33 14 8 13 -37 29 -136 48 -51 9 -95 20 -98 24 -10 12 -146 47 -230
60 -47 6 -87 15 -90 19 -8 12 -127 40 -168 40 -55 0 -233 35 -267 53 -16 8
-73 18 -125 22 -52 4 -147 20 -210 36 -63 16 -166 34 -228 41 -64 7 -107 15
-100 20 7 4 10 8 6 8 -4 0 -56 9 -115 21 -59 11 -159 24 -221 29 -112 7 -161
19 -86 21 70 1 3 18 -165 41 -90 13 -160 27 -166 35 -5 7 -68 27 -140 44 -71
18 -133 36 -136 41 -3 5 -50 18 -105 28 -54 11 -121 31 -149 44 -27 14 -89 35
-137 47 -48 13 -85 26 -82 30 5 9 -101 42 -139 42 -15 0 -23 3 -17 7 13 8 -93
58 -142 66 -21 3 -38 9 -38 13 0 4 -26 19 -57 33 -32 14 -69 31 -83 37 -14 6
-61 31 -105 56 -44 25 -102 56 -130 71 -60 32 -183 107 -245 149 -25 18 -76
53 -115 80 -38 27 -114 84 -167 127 -54 43 -102 78 -108 78 -5 0 -10 4 -10 8
0 5 -30 33 -67 62 -324 258 -626 594 -861 958 -66 103 -262 481 -262 507 0 8
-9 24 -21 36 -20 20 -35 101 -23 121 3 5 18 -1 33 -12 16 -10 31 -17 34 -13 4
3 9 -2 13 -11 8 -20 517 -533 589 -593 28 -23 75 -62 105 -87 30 -26 107 -85
170 -133 63 -48 147 -112 185 -143 39 -31 93 -71 120 -90 300 -202 332 -222
438 -275 37 -18 73 -38 80 -43 11 -8 79 -46 152 -85 59 -32 204 -97 214 -97 6
0 43 -16 83 -35 39 -19 89 -40 110 -46 21 -5 38 -13 38 -18 0 -4 39 -21 88
-36 48 -15 92 -33 97 -40 6 -6 55 -27 110 -45 55 -18 102 -36 105 -40 3 -5 25
-13 50 -20 66 -17 171 -52 200 -67 14 -7 36 -13 50 -13 14 -1 43 -8 65 -16 77
-29 171 -55 237 -64 37 -5 82 -16 100 -24 81 -34 139 -48 220 -53 53 -4 86
-10 85 -16 -3 -19 63 -34 218 -52 103 -11 154 -21 161 -31 12 -16 56 -24 244
-49 71 -10 141 -25 161 -35 20 -10 70 -21 110 -25 120 -10 273 -37 290 -51 8
-8 62 -19 120 -25 101 -10 231 -42 256 -61 6 -5 47 -12 90 -15 45 -3 93 -13
113 -24 38 -19 151 -53 215 -64 22 -4 47 -12 55 -19 14 -12 53 -23 197 -57 29
-7 50 -16 48 -19 -2 -4 28 -20 68 -35 40 -15 79 -33 87 -40 8 -7 44 -27 80
-44 74 -36 130 -69 158 -94 10 -9 24 -17 30 -17 7 0 12 -4 12 -9 0 -5 8 -12
18 -15 10 -3 56 -36 102 -72 47 -36 119 -91 160 -122 41 -30 108 -87 147 -126
70 -67 74 -70 90 -53 17 17 24 89 25 234 0 49 -35 112 -97 178 -32 33 -85 89
-118 125 -111 120 -357 373 -568 585 -115 116 -209 215 -209 221 0 12 -35 33
-67 39 -13 2 -125 6 -250 10 -246 6 -390 13 -438 21 -16 2 -50 6 -75 8 -25 2
-62 10 -82 19 -46 19 -60 64 -56 170 l3 72 481 0 c344 0 488 -3 505 -12 13 -6
45 -21 70 -32 46 -21 88 -63 306 -306 141 -156 174 -190 184 -188 5 2 17 -9
26 -25 10 -15 83 -91 163 -170 297 -292 356 -351 407 -406 29 -31 56 -56 61
-56 20 0 35 -78 27 -147 -11 -95 -13 -133 -20 -523 -7 -395 -6 -404 56 -420
48 -13 74 -49 74 -103 0 -46 -31 -77 -75 -77 -15 0 -42 -3 -59 -6 l-31 -6 0
-844 0 -843 233 -235 232 -234 78 -7 c75 -7 164 -2 176 11 3 3 7 526 7 1162 1
752 6 1299 15 1562 8 223 14 509 13 635 -1 274 5 259 -143 405 -53 52 -123
123 -155 158 -33 34 -62 62 -66 62 -7 0 -110 98 -110 105 0 8 -48 52 -64 58
-9 4 -16 11 -16 16 0 13 -43 56 -64 64 -9 4 -16 12 -16 18 0 12 -114 132 -284
297 -137 133 -249 245 -397 397 -70 72 -189 191 -265 266 -77 74 -186 183
-242 242 -72 74 -115 110 -140 118 -25 8 -180 13 -479 16 l-442 5 -7 -28 c-24
-96 -134 -219 -268 -300 -83 -50 -90 -53 -161 -64 -77 -12 -214 0 -295 26 -85
27 -201 118 -265 209 -62 87 -82 132 -91 205 -14 112 1 315 25 329 5 4 16 22
25 41 30 63 44 84 115 161 110 120 225 169 402 169 71 0 163 -23 187 -46 8 -8
28 -18 44 -21 20 -4 65 -39 132 -104 55 -54 104 -99 108 -99 4 0 10 -11 14
-25 3 -14 10 -25 15 -25 5 0 9 -20 9 -45 0 -33 6 -50 22 -65 21 -19 35 -20
402 -22 210 -2 433 -3 497 -3 l117 0 53 -50 c30 -27 71 -70 93 -95 93 -108
290 -310 303 -310 7 0 13 -6 13 -13 0 -11 482 -497 493 -497 2 0 81 -76 175
-170 94 -93 174 -170 178 -170 10 0 161 -156 181 -187 8 -13 22 -23 29 -23 8
0 14 -4 14 -9 0 -9 179 -189 322 -323 51 -48 136 -128 188 -179 l95 -92 2
-1870 c1 -1544 4 -1871 15 -1879 7 -5 72 -7 153 -3 179 8 198 10 270 31 56 16
210 18 2228 21 1513 2 2174 6 2188 13 11 6 33 30 50 53 17 23 161 175 322 337
429 434 764 777 1102 1125 165 170 426 437 580 594 154 158 415 425 580 596
540 557 657 678 786 810 216 222 470 485 595 615 220 231 208 220 245 220 33
0 117 -35 131 -54 3 -5 64 -14 135 -20 150 -11 315 3 372 32 20 10 47 22 61
25 14 4 60 27 103 52 88 52 269 225 302 290 11 22 32 59 47 84 15 24 33 60 39
80 6 20 20 55 31 78 28 61 41 165 35 278 -12 203 -106 421 -239 557 -123 124
-330 238 -470 258 -86 13 -262 12 -332 -1 -132 -24 -333 -122 -418 -204 -134
-128 -239 -335 -269 -528 -7 -42 -9 -127 -6 -202 5 -121 8 -137 46 -237 22
-58 56 -127 75 -153 45 -59 49 -114 11 -165 -39 -53 -285 -307 -817 -841 -271
-273 -540 -545 -598 -605 -57 -60 -190 -197 -295 -304 -104 -107 -232 -240
-284 -295 -51 -55 -189 -197 -305 -315 -116 -118 -261 -268 -321 -334 -61 -65
-184 -193 -275 -285 -91 -91 -352 -359 -580 -596 -228 -236 -457 -473 -510
-525 l-94 -95 -2127 0 c-1170 0 -2131 4 -2135 8 -9 9 -6 448 3 485 3 12 15 28
27 35 16 9 336 12 1411 14 765 1 1395 2 1402 3 11 0 266 255 444 445 52 55
193 199 314 320 364 364 691 699 876 897 95 103 272 288 391 412 l217 225 3
328 c2 180 5 801 6 1378 3 944 7 1832 11 2345 3 251 4 258 55 281 23 10 58 19
79 19 24 0 40 5 43 15 3 8 36 28 72 46 77 36 159 97 219 162 45 49 113 149
113 167 0 5 3 10 8 10 7 0 12 10 52 105 12 28 29 65 37 84 41 90 43 432 4 486
-4 6 -16 33 -25 60 -36 100 -155 277 -232 345 -105 93 -270 182 -367 199 -81
14 -356 15 -422 2 -97 -20 -192 -61 -280 -121 -131 -90 -290 -320 -328 -475
-43 -168 -54 -333 -27 -370 4 -5 11 -36 15 -68 13 -109 77 -252 165 -367 47
-62 168 -168 223 -196 17 -9 50 -29 72 -44 22 -15 61 -33 85 -40 92 -25 107
-36 115 -82 18 -106 26 -1447 11 -1933 -3 -115 -6 -334 -6 -485 1 -151 2 -410
2 -575 1 -165 -2 -372 -6 -460 -4 -88 -9 -259 -11 -381 -3 -205 -5 -224 -25
-264 -25 -50 -90 -120 -409 -445 -264 -268 -461 -472 -727 -750 -496 -519
-627 -655 -695 -719 -41 -38 -102 -101 -137 -140 -35 -39 -76 -78 -90 -86 -28
-15 -222 -16 -1937 -11 -642 2 -728 6 -750 27 -21 21 -26 104 -17 286 5 113
12 172 20 180 10 10 203 13 940 13 868 0 929 1 953 18 14 9 82 79 151 155 68
75 246 261 394 412 624 637 956 985 1012 1062 15 20 37 42 50 47 12 6 22 19
22 30 0 13 8 21 22 23 13 2 28 14 35 28 8 18 12 212 15 727 2 483 6 705 14
713 6 6 37 18 70 27 32 9 68 24 79 33 11 9 45 29 75 44 64 31 208 155 279 240
54 64 109 168 138 261 15 49 18 91 17 235 0 96 -6 199 -12 228 -7 29 -40 110
-73 180 -55 113 -70 135 -139 202 -77 76 -141 120 -284 194 -103 53 -177 63
-411 55 l-180 -5 -78 -37 c-42 -20 -81 -37 -85 -37 -16 0 -139 -92 -189 -141
-105 -103 -191 -262 -219 -407 -16 -85 -18 -279 -4 -369 9 -53 64 -208 90
-253 88 -150 143 -217 224 -270 20 -14 45 -32 54 -41 29 -28 147 -89 203 -105
30 -9 64 -22 77 -30 l22 -14 0 -628 c-1 -497 -3 -632 -14 -651 -7 -12 -96
-107 -197 -210 -102 -102 -220 -224 -264 -271 -43 -47 -173 -182 -289 -301
-116 -119 -245 -251 -286 -295 -196 -207 -272 -285 -388 -393 l-125 -116 -843
0 c-463 0 -846 4 -851 8 -11 11 -11 573 0 584 5 4 203 9 440 11 238 1 442 4
454 7 12 3 38 27 58 53 20 26 130 142 243 257 114 116 246 253 293 305 48 52
198 208 334 345 136 138 254 263 262 279 12 22 16 84 19 295 8 565 14 2227 15
3835 0 1023 4 1686 9 1696 5 10 52 38 104 63 265 127 410 275 485 492 11 33
29 86 40 117 28 80 35 191 22 347 -10 126 -14 140 -55 232 -52 116 -119 220
-173 270 -172 158 -306 235 -435 250 -109 12 -314 10 -393 -5 -134 -26 -332
-139 -419 -240 -161 -189 -220 -349 -219 -596 0 -187 20 -288 84 -418 41 -85
65 -119 132 -189 106 -111 189 -173 313 -233 55 -28 104 -50 108 -50 4 0 22
-10 39 -22 l30 -22 -7 -2798 c-6 -2442 -9 -2804 -22 -2841 -9 -24 -39 -67 -73
-102 -32 -33 -93 -100 -135 -150 -43 -49 -241 -254 -440 -455 -199 -201 -375
-381 -390 -400 l-29 -35 -327 -3 c-383 -3 -368 -7 -381 94 -11 88 -10 333 2
383 9 40 45 79 404 439 217 218 395 401 395 407 0 5 1 582 3 1280 2 1346 1
1315 48 1315 74 0 276 134 419 279 72 73 94 102 137 191 30 60 58 133 65 170
7 36 16 68 21 71 5 4 7 13 5 20 -3 8 -1 22 4 32 14 28 13 244 -1 261 -7 8 -19
59 -27 113 -27 184 -156 385 -313 487 -192 125 -253 141 -532 139 l-216 -1
-119 -49 c-85 -35 -139 -65 -187 -104 -79 -62 -137 -89 -137 -61 3 106 -12
3911 -15 4065 -4 168 -8 211 -20 223 -8 9 -15 22 -15 30 0 8 -8 18 -17 21 -10
4 -26 15 -37 24 -10 10 -35 26 -55 36 -34 17 -72 18 -561 15 -409 -3 -542 -6
-605 -18 -181 -33 -314 -44 -732 -60 -134 -5 -177 -10 -213 -26 -33 -14 -84
-21 -195 -28 -165 -10 -309 -25 -369 -39 -21 -5 -46 -7 -55 -4 -13 4 -13 3 -2
-5 17 -12 -80 -28 -224 -37 -110 -7 -207 -24 -244 -45 -14 -7 -77 -19 -140
-26 -114 -13 -141 -18 -271 -54 -36 -10 -105 -21 -154 -25 -49 -3 -101 -12
-115 -19 -34 -18 -157 -45 -248 -56 -43 -5 -79 -15 -88 -24 -9 -8 -38 -18 -65
-22 -28 -4 -50 -10 -50 -14 0 -4 -45 -11 -100 -15 -67 -5 -103 -12 -108 -21
-7 -13 -130 -45 -225 -59 -26 -4 -53 -13 -60 -19 -17 -16 -59 -31 -147 -51
-41 -10 -93 -26 -115 -36 -22 -10 -80 -30 -130 -45 -49 -14 -94 -30 -100 -34
-5 -5 -35 -17 -65 -28 -226 -81 -334 -126 -638 -266 -68 -31 -127 -56 -133
-56 -5 0 -9 -4 -9 -10 0 -5 -5 -10 -11 -10 -20 0 -303 -145 -420 -216 -31 -19
-59 -34 -62 -34 -3 0 -42 -25 -87 -55 -45 -30 -84 -55 -87 -55 -8 0 -211 -138
-308 -210 -96 -71 -277 -238 -433 -399 -210 -218 -427 -607 -502 -900 -11 -45
-25 -90 -30 -99 -14 -24 -48 -168 -55 -232 -3 -30 -13 -84 -21 -120 -9 -40
-15 -130 -17 -235 l-2 -170 63 2 c35 2 78 9 95 17 43 19 168 53 241 66 32 5
64 14 70 19 13 11 227 47 334 56 45 5 75 12 80 21 5 10 45 17 137 24 168 13
388 38 445 50 120 26 204 30 600 30 427 0 706 -12 741 -31 20 -10 207 -30 458
-49 144 -11 174 -16 166 -29 -5 -9 33 -14 220 -31 61 -5 128 -14 150 -20 22
-5 54 -10 72 -10 19 0 36 -7 41 -16 7 -12 37 -18 133 -26 68 -5 133 -13 144
-17 53 -22 188 -51 260 -56 44 -3 114 -14 155 -25 41 -10 102 -21 135 -25 33
-4 85 -13 115 -21 30 -8 73 -14 95 -14 23 0 71 -9 106 -19 80 -24 256 -48 422
-59 79 -5 131 -13 136 -20 15 -25 278 -43 696 -48 443 -5 475 -7 475 -29 0 -8
-4 -15 -9 -15 -5 0 -11 -9 -14 -19 -3 -13 -17 -22 -43 -27 -22 -4 -55 -19 -74
-34 -38 -30 -89 -50 -127 -50 -13 0 -49 -11 -80 -25 -60 -28 -154 -55 -189
-55 -13 0 -30 -7 -38 -15 -22 -23 -57 -32 -181 -50 -137 -20 -160 -25 -145
-35 15 -9 -83 -28 -190 -35 -134 -10 -180 -14 -260 -26 -42 -6 -111 -8 -155
-5 -190 13 -226 16 -340 25 -66 6 -156 13 -200 17 -91 6 -192 29 -160 36 11 2
-41 10 -116 17 -179 16 -369 47 -379 61 -3 4 -76 13 -164 19 -189 14 -346 35
-374 50 -12 6 -47 11 -79 11 -112 1 -471 44 -583 70 -62 15 -1355 25 -1475 12
-49 -6 -126 -20 -169 -31 -83 -21 -96 -23 -235 -39 -46 -5 -86 -14 -90 -20 -5
-9 -125 -37 -270 -63 -29 -5 -62 -14 -72 -19 -9 -6 -73 -23 -141 -40 -68 -17
-137 -37 -153 -44 -17 -8 -66 -24 -110 -36 -44 -12 -89 -26 -100 -31 -11 -5
-63 -25 -115 -43 -128 -44 -270 -98 -357 -135 -113 -47 -433 -208 -492 -246
-29 -19 -55 -35 -57 -35 -3 0 -30 -19 -61 -41 -67 -50 -111 -56 -129 -19 -46
95 -48 103 -50 255 -1 83 2 175 8 205 5 30 17 114 27 186 19 137 32 186 62
244 11 19 19 42 19 50 0 20 32 117 68 210 17 41 42 107 57 145 14 39 39 97 56
131 16 34 29 64 29 68 0 8 78 185 115 261 34 70 84 181 105 236 11 26 33 69
49 97 17 27 31 53 31 58 0 5 36 81 80 170 44 89 80 166 80 171 0 4 8 24 19 43
10 19 33 71 51 115 18 44 37 85 41 90 4 6 15 44 24 85 14 67 26 104 56 175 4
11 17 81 28 157 12 75 25 148 30 161 26 68 45 289 45 532 1 409 -11 623 -41
710 -2 6 -10 48 -18 95 -8 47 -19 107 -25 133 -5 27 -10 62 -10 79 0 17 -6 39
-14 47 -7 9 -24 59 -36 111 -12 52 -32 118 -44 145 -13 28 -31 75 -41 105 -21
66 -106 230 -183 355 -31 50 -59 92 -62 95 -3 3 -40 48 -83 101 -51 64 -86 98
-102 102 -14 2 -25 3 -25 2 0 -10 61 -132 95 -189 64 -111 161 -316 174 -371
7 -27 17 -53 23 -56 10 -7 31 -89 48 -194 6 -33 12 -75 15 -93 4 -18 10 -30
16 -27 5 4 9 -2 10 -12 0 -10 2 -29 4 -43 36 -266 37 -295 32 -629 -5 -340
-19 -495 -51 -572 -7 -18 -17 -59 -21 -89 -9 -75 -41 -210 -59 -251 -7 -19
-24 -70 -36 -113 -11 -44 -32 -103 -46 -131 -13 -29 -24 -56 -24 -60 0 -5 -13
-36 -29 -69 -16 -34 -51 -108 -77 -166 -125 -279 -334 -677 -474 -904 -23 -39
-59 -102 -80 -140 -20 -39 -62 -116 -92 -171 -31 -55 -64 -120 -74 -145 -10
-25 -21 -47 -25 -50 -5 -3 -20 -42 -35 -85 -14 -44 -34 -97 -45 -117 -10 -20
-19 -43 -19 -51 0 -7 -15 -60 -34 -118 -23 -71 -38 -142 -45 -219 -14 -142
-30 -231 -43 -247 -10 -13 -64 0 -84 21 -43 42 -45 351 -4 451 5 11 16 67 25
125 9 58 27 132 40 165 13 33 33 94 45 135 12 41 28 86 36 100 7 14 38 86 68
160 47 114 142 310 293 605 46 91 113 236 113 246 0 5 13 37 29 71 44 94 97
235 152 403 26 83 53 164 59 180 30 79 62 257 74 398 2 31 12 72 21 90 31 61
37 196 32 672 -5 432 -13 550 -36 564 -5 4 -19 71 -30 151 -24 164 -38 220
-58 220 -8 0 -13 13 -13 38 0 56 -15 102 -92 277 -141 325 -330 650 -532 919
-62 83 -192 219 -281 295 -81 69 -346 265 -400 296 -27 16 -80 48 -118 72 -37
24 -133 77 -215 119 -81 42 -151 80 -157 84 -5 4 -28 13 -50 20 -22 7 -56 21
-75 31 -44 23 -239 109 -262 116 -12 4 -18 0 -18 -10 0 -17 72 -80 191 -165
41 -29 110 -79 154 -111 44 -31 88 -62 96 -67 9 -5 63 -52 119 -104 351 -325
637 -689 819 -1041 38 -74 76 -147 85 -164 9 -16 16 -33 16 -38 0 -7 26 -68
55 -132 8 -16 20 -52 26 -80 7 -27 16 -52 20 -55 10 -7 38 -108 50 -180 5 -30
18 -73 28 -95 24 -49 51 -218 51 -311 0 -72 -20 -156 -37 -161 -15 -5 -49 53
-63 107 -6 25 -24 70 -39 100 -16 30 -32 66 -36 80 -7 23 -68 162 -115 265
-10 22 -33 72 -50 110 -81 177 -321 549 -465 720 -27 33 -61 73 -75 89 -167
199 -335 350 -595 535 -142 101 -340 230 -432 282 -23 13 -89 52 -145 85 -57
34 -161 94 -233 134 -434 242 -587 341 -878 568 -71 55 -253 236 -330 327
-152 180 -343 566 -380 770 -9 46 -18 69 -34 80 -16 11 -23 12 -31 2z m1523
-3548 c11 -5 74 -16 140 -24 189 -24 236 -34 296 -60 31 -14 65 -25 76 -25 10
0 23 -4 29 -8 5 -5 29 -14 54 -21 56 -15 153 -53 160 -61 3 -4 45 -21 95 -39
49 -17 92 -35 95 -39 3 -4 34 -22 70 -40 36 -18 80 -43 98 -55 18 -12 61 -40
95 -62 92 -58 324 -245 385 -308 28 -30 56 -57 60 -59 5 -2 27 -29 50 -60 23
-32 50 -65 61 -75 24 -24 115 -149 198 -273 48 -73 165 -276 182 -317 7 -18
17 -33 21 -33 4 0 12 -19 19 -42 13 -42 29 -83 56 -143 12 -25 29 -83 39 -130
2 -5 8 -21 14 -35 17 -39 41 -175 52 -294 5 -60 15 -113 21 -116 14 -9 21
-284 9 -360 -13 -83 -19 -126 -30 -234 -12 -112 -44 -249 -66 -280 -8 -11 -14
-30 -14 -41 0 -42 -127 -269 -216 -385 -123 -162 -419 -440 -585 -551 -124
-83 -255 -152 -309 -164 -19 -4 -62 -18 -94 -32 -84 -35 -180 -51 -336 -56
-318 -10 -615 58 -939 215 -278 134 -601 367 -753 542 -82 94 -245 321 -278
386 -12 25 -26 47 -31 50 -19 13 -163 391 -175 460 -8 45 -23 95 -44 145 -28
67 -42 247 -42 552 0 308 -1 293 66 598 9 38 16 89 16 113 0 30 3 41 12 36 8
-5 9 -2 4 11 -4 10 -2 21 4 25 13 8 60 165 60 201 0 15 4 30 9 33 4 3 19 34
31 68 13 35 40 97 61 138 20 41 40 86 44 100 10 34 120 200 228 342 92 122
172 203 229 232 18 9 51 30 73 46 22 16 54 31 72 35 18 3 38 11 45 18 21 21
114 46 211 58 51 6 115 14 142 18 70 10 206 10 230 0z m14323 -2247 c126 -40
230 -134 301 -274 38 -76 42 -91 47 -183 14 -250 -91 -430 -316 -543 -95 -47
-95 -47 -195 -47 -94 1 -105 3 -175 37 -120 57 -217 142 -280 243 -39 64 -84
285 -60 300 5 3 10 22 10 41 0 45 34 144 67 197 40 65 154 171 214 201 70 34
121 44 236 45 63 1 109 -5 151 -17z m2999 -2277 c123 -39 249 -137 288 -224 9
-20 25 -52 35 -72 51 -94 59 -212 25 -349 -36 -144 -160 -282 -306 -341 -71
-29 -244 -37 -339 -16 -78 16 -188 84 -253 157 -49 54 -101 146 -122 217 -29
96 -13 250 35 340 11 21 20 41 20 46 0 5 21 36 46 69 58 74 171 152 247 168
171 37 222 38 324 5z m-4382 -576 c61 -16 147 -51 174 -71 13 -10 29 -18 35
-18 24 -1 156 -141 156 -165 0 -5 6 -16 14 -24 50 -56 80 -328 43 -382 -9 -13
-17 -33 -17 -44 0 -70 -132 -246 -221 -294 -24 -12 -65 -34 -90 -48 -148 -77
-401 -35 -538 91 -47 43 -109 129 -133 184 -21 46 -52 218 -43 233 3 4 1 11
-5 14 -8 5 -7 11 1 21 6 8 10 17 7 20 -11 10 32 141 68 209 48 92 91 136 191
196 118 71 264 103 358 78z m-646 -1237 c46 -65 161 -131 306 -176 114 -35
105 -24 106 -123 3 -264 0 -1202 -5 -1698 -5 -474 -9 -579 -22 -625 -15 -51
-29 -68 -216 -255 -164 -163 -206 -200 -229 -200 -26 -1 -29 3 -34 50 -4 27
-7 719 -8 1536 -2 1247 0 1489 12 1502 22 27 67 21 90 -11z m3562 -814 c112
-53 173 -105 237 -201 40 -61 46 -78 55 -155 29 -236 -53 -426 -236 -546 -185
-122 -436 -89 -618 81 -116 109 -155 215 -147 405 3 90 8 111 34 168 80 168
215 268 390 290 128 16 179 8 285 -42z m5613 -587 c94 -45 129 -70 211 -150
49 -48 65 -72 84 -128 13 -37 31 -76 40 -86 12 -14 16 -38 15 -97 -1 -65 -8
-96 -39 -177 -50 -135 -52 -137 -123 -214 -53 -57 -79 -76 -165 -117 -152 -74
-263 -77 -406 -11 -36 17 -77 36 -91 42 -14 7 -57 44 -96 82 -114 114 -150
214 -142 396 4 74 10 107 30 150 65 141 141 225 258 284 89 45 164 63 264 64
72 1 86 -2 160 -38z m-19879 -678 c7 -23 16 -64 19 -90 10 -67 26 -114 37
-108 5 4 9 4 9 1 0 -2 7 -37 15 -78 15 -78 31 -124 58 -174 9 -18 19 -50 23
-73 4 -23 10 -41 15 -41 5 0 9 -9 9 -20 0 -11 9 -29 19 -39 10 -10 22 -34 26
-52 7 -35 19 -66 61 -155 13 -28 24 -56 24 -62 0 -14 65 -139 104 -200 15 -24
36 -59 47 -78 10 -19 24 -41 29 -47 5 -7 42 -60 80 -119 67 -101 279 -363 413
-511 123 -135 547 -497 697 -595 47 -30 103 -70 125 -87 22 -18 80 -57 128
-86 191 -117 247 -149 263 -149 7 0 20 -8 30 -17 30 -31 409 -223 439 -223 8
0 18 -7 21 -15 3 -8 25 -20 48 -27 22 -6 68 -26 101 -43 34 -18 83 -34 109
-37 27 -3 51 -10 55 -14 22 -31 81 -59 131 -64 32 -3 55 -10 55 -17 0 -6 3
-14 7 -18 10 -10 149 -45 181 -45 15 0 35 -9 44 -20 10 -11 22 -20 28 -20 5 0
22 -6 37 -14 14 -8 50 -17 79 -21 29 -4 69 -16 89 -26 19 -10 69 -25 110 -34
41 -9 87 -18 102 -22 15 -3 26 -9 23 -13 -6 -9 95 -40 133 -40 53 0 135 -21
177 -45 28 -16 65 -25 124 -30 45 -4 95 -13 110 -21 14 -8 31 -14 36 -14 6 0
28 -9 50 -20 28 -14 59 -20 110 -20 44 0 78 -5 90 -14 28 -19 113 -44 225 -66
52 -10 125 -29 161 -43 37 -14 94 -29 128 -33 37 -4 61 -11 61 -19 0 -11 145
-65 176 -65 8 0 14 -4 14 -10 0 -5 8 -10 18 -10 9 0 26 -7 36 -15 11 -8 27
-15 35 -15 9 -1 34 -9 56 -20 22 -11 46 -19 53 -20 6 0 12 -4 12 -8 0 -4 27
-20 61 -36 62 -28 139 -77 174 -109 11 -10 34 -26 50 -34 17 -9 53 -33 80 -54
28 -22 57 -45 66 -52 37 -27 219 -208 295 -292 73 -82 162 -211 243 -355 39
-69 91 -177 91 -190 0 -6 7 -10 15 -10 9 0 15 -9 15 -25 0 -14 4 -33 9 -43 30
-60 74 -174 82 -210 5 -24 17 -63 28 -86 10 -24 27 -76 37 -117 9 -41 27 -96
40 -124 12 -28 32 -115 44 -195 13 -80 27 -147 30 -150 7 -4 14 -42 25 -120 2
-14 8 -81 14 -150 15 -165 32 -290 42 -290 4 0 10 -39 14 -87 16 -216 36 -384
51 -419 9 -22 25 -76 35 -120 10 -45 34 -115 53 -155 20 -41 36 -79 36 -85 0
-6 16 -33 35 -60 19 -27 35 -55 35 -62 0 -19 99 -150 161 -213 75 -75 206
-179 227 -179 5 0 28 -18 51 -39 24 -22 56 -43 72 -46 16 -4 29 -10 29 -13 0
-7 62 -42 110 -62 14 -6 39 -18 55 -28 17 -10 59 -26 95 -37 36 -10 75 -27 88
-36 12 -10 41 -20 63 -24 38 -7 87 -25 164 -60 17 -8 51 -23 78 -34 38 -16 47
-25 47 -44 0 -50 -11 -52 -329 -55 -163 -2 -385 1 -493 6 l-196 9 -48 32 c-26
17 -60 31 -76 31 l-29 0 7 -147 c8 -190 -11 -326 -51 -360 -14 -12 -25 -24
-25 -26 0 -5 -131 -146 -296 -316 -257 -268 -316 -332 -426 -467 -40 -50 -99
-122 -113 -137 -6 -7 -19 -17 -30 -23 -44 -24 -45 -77 -1 -117 49 -46 60 -84
64 -222 5 -172 -8 -243 -65 -340 -59 -100 -127 -172 -196 -205 -34 -17 -53
-33 -55 -47 -4 -25 -25 -28 -258 -28 -184 0 -234 9 -234 41 0 7 -22 20 -48 28
-45 15 -74 39 -186 159 -14 15 -28 40 -31 55 -19 88 -28 112 -45 112 -21 0
-30 53 -30 179 0 98 14 161 35 161 9 0 15 10 15 24 0 14 5 28 10 31 6 3 10 18
10 34 0 19 13 40 45 71 25 24 45 50 45 57 0 7 18 24 40 38 22 14 40 29 40 33
0 14 86 52 117 52 16 0 52 11 80 25 45 23 61 25 144 23 86 -3 94 -5 94 -23 0
-16 9 -21 50 -27 87 -11 111 -2 146 56 44 71 150 196 294 345 67 69 160 169
205 221 46 52 130 145 188 207 108 115 160 181 193 246 18 34 19 48 11 170
-12 177 -22 199 -158 318 -58 51 -129 119 -159 151 -54 58 -125 159 -125 177
0 5 -6 16 -14 24 -8 8 -31 45 -51 83 -20 38 -40 74 -45 79 -5 6 -16 39 -25 74
-21 81 -45 142 -54 137 -4 -3 -15 36 -24 85 -9 49 -28 110 -42 137 -22 42 -25
68 -37 246 -10 175 -14 201 -32 217 -22 21 -35 85 -35 184 -1 84 -25 229 -50
305 -10 30 -24 96 -31 145 -7 50 -21 106 -31 126 -10 20 -25 74 -34 120 -9 46
-27 107 -40 134 -13 28 -33 78 -45 112 -12 35 -30 72 -40 83 -10 11 -21 37
-25 57 -8 42 -55 122 -145 241 -104 140 -131 169 -254 277 -32 28 -63 55 -69
61 -7 6 -61 44 -122 85 -167 112 -265 163 -302 156 -13 -2 -23 -1 -23 3 0 13
-96 70 -118 70 -11 0 -23 4 -27 9 -17 28 -306 131 -409 146 -31 5 -43 10 -35
16 11 6 11 9 -1 12 -8 2 -31 9 -50 15 -19 5 -60 15 -90 22 -30 6 -74 20 -96
31 -45 21 -139 45 -218 54 -31 4 -44 10 -36 15 16 10 -28 24 -145 46 -49 9
-102 18 -117 21 -16 3 -28 11 -28 18 0 7 -25 17 -62 24 -135 25 -201 43 -214
55 -15 16 -120 36 -184 36 -36 0 -41 2 -31 14 21 25 -33 43 -189 63 -43 5 -50
8 -30 13 21 6 11 11 -58 33 -46 15 -103 27 -127 27 -24 0 -47 5 -50 10 -3 6 0
10 7 10 43 1 -70 41 -170 61 -35 6 -58 15 -52 19 7 5 -16 17 -56 30 -38 13
-96 36 -129 52 -33 15 -66 28 -73 28 -6 0 -81 33 -165 74 -83 41 -167 77 -186
81 -18 4 -53 21 -77 39 -72 53 -127 84 -188 106 -32 12 -65 31 -74 41 -9 10
-21 19 -27 20 -5 0 -30 15 -55 34 -25 19 -67 46 -95 60 -27 15 -59 36 -71 46
-11 10 -24 19 -28 19 -4 0 -29 18 -55 40 -26 22 -52 40 -59 40 -6 0 -15 6 -19
13 -11 16 -131 107 -142 107 -5 0 -11 3 -13 8 -1 4 -57 54 -123 112 -149 131
-521 504 -622 625 -42 50 -80 92 -85 93 -4 2 -8 10 -8 17 0 8 -6 18 -13 22
-16 10 -199 265 -249 347 -63 104 -148 254 -148 260 0 3 -15 38 -33 78 -19 40
-40 88 -47 105 -7 18 -16 30 -21 27 -5 -3 -9 6 -9 21 0 14 -7 28 -15 31 -8 4
-15 14 -15 25 0 46 -23 168 -31 163 -25 -15 -59 214 -59 394 1 131 28 295 52
315 8 6 21 41 28 77 8 37 27 87 45 115 17 28 35 59 39 69 15 42 98 165 114
169 29 8 35 2 47 -40z m-759 -985 c12 -18 5 -85 -12 -126 -8 -20 -23 -96 -33
-168 -10 -72 -23 -139 -29 -150 -14 -28 -40 -163 -53 -283 -6 -57 -15 -98 -19
-91 -12 20 -20 -16 -45 -205 -13 -99 -30 -193 -38 -210 -8 -16 -23 -91 -32
-165 -19 -154 -32 -218 -50 -240 -7 -8 -18 -62 -24 -120 -18 -163 -36 -263
-53 -290 -10 -16 -18 -61 -22 -124 -4 -55 -11 -118 -16 -140 -5 -23 -12 -54
-15 -70 -5 -21 -9 -26 -15 -17 -11 18 -16 -13 -31 -166 -7 -68 -15 -123 -19
-123 -16 0 -40 -92 -55 -210 -9 -68 -20 -129 -25 -135 -22 -27 -49 -167 -65
-338 -6 -58 -9 -66 -19 -51 -11 15 -14 12 -19 -22 -3 -21 -9 -68 -12 -104 -13
-141 -38 -294 -49 -305 -6 -7 -20 -72 -29 -146 -10 -74 -29 -166 -43 -205 -13
-39 -24 -85 -24 -103 0 -99 -67 -220 -176 -319 -38 -34 -74 -62 -81 -62 -7 0
-16 -6 -20 -14 -13 -23 -89 -55 -165 -71 -71 -15 -94 -24 -67 -26 8 -1 3 -5
-11 -9 -59 -19 -191 -7 -210 18 -3 4 -24 16 -48 26 -23 11 -58 37 -77 58 -19
21 -39 38 -45 38 -11 0 -56 146 -64 210 -3 25 1 86 9 135 8 50 20 135 26 190
16 154 20 174 29 150 7 -20 7 -20 14 1 3 11 15 96 26 188 12 111 26 182 38
209 12 25 27 96 37 177 9 74 21 153 27 175 7 22 11 44 10 48 -2 5 2 6 7 3 12
-8 18 12 26 89 13 122 38 240 54 256 13 12 20 49 29 140 11 123 32 207 54 220
6 4 14 50 19 103 4 53 22 152 38 219 17 67 33 151 37 187 3 36 15 90 25 120
21 62 59 249 59 295 0 17 6 42 14 56 18 35 32 101 52 234 8 60 24 134 35 164
10 30 26 105 35 166 9 60 27 140 39 177 13 38 27 89 31 115 3 27 13 64 21 83
15 37 119 141 167 167 28 15 121 22 133 10 8 -9 -17 -165 -32 -201 -11 -24
-65 -308 -65 -340 0 -4 -4 -4 -10 -1 -5 3 -10 4 -10 2 0 -2 -7 -51 -15 -108
-19 -136 -42 -243 -59 -277 -7 -15 -16 -58 -20 -95 -7 -71 -42 -230 -56 -257
-5 -8 -14 -69 -20 -135 -7 -66 -16 -122 -21 -126 -13 -8 -48 -178 -55 -273 -4
-44 -10 -90 -15 -101 l-8 -20 -1 20 c-3 46 -32 -85 -49 -223 -11 -93 -24 -157
-34 -173 -18 -27 -56 -249 -58 -339 -1 -49 -2 -51 -8 -20 l-7 35 -11 -40 c-7
-22 -14 -67 -18 -100 -15 -141 -39 -277 -51 -290 -8 -8 -17 -57 -24 -127 -15
-174 -35 -262 -60 -278 -5 -3 -15 -42 -21 -85 -6 -44 -16 -85 -21 -91 -11 -15
-36 -126 -50 -226 -13 -91 -7 -113 46 -153 28 -21 49 -27 108 -32 41 -3 85 0
100 5 36 15 74 68 90 127 7 28 16 52 20 55 14 11 29 66 48 179 10 64 26 131
35 148 9 18 22 89 30 160 17 157 23 188 47 234 10 19 23 71 28 115 15 115 36
226 50 259 22 53 30 94 30 156 0 37 3 69 8 71 19 8 53 155 64 275 8 89 15 130
23 127 14 -6 39 121 56 278 6 59 15 105 19 103 10 -6 68 325 70 394 0 3 4 0 9
-8 12 -18 27 53 47 214 18 152 33 222 45 204 9 -15 15 14 34 183 8 70 17 138
21 153 6 24 7 24 20 8 12 -17 13 -16 15 7 8 156 31 336 47 380 5 14 17 77 27
140 10 63 31 153 46 199 16 46 29 95 30 110 1 41 23 94 45 105 10 6 22 15 26
21 10 13 134 43 185 44 23 1 45 -4 49 -11z m6797 -1368 c18 -9 55 -26 82 -36
51 -18 182 -114 192 -140 3 -8 10 -14 17 -14 11 -1 59 -69 72 -103 3 -9 12
-17 18 -17 7 0 12 -15 13 -33 0 -18 11 -51 23 -74 39 -76 49 -236 15 -249 -7
-3 -18 -18 -25 -34 -15 -37 -5 -56 62 -111 53 -42 439 -420 567 -553 36 -39
136 -139 221 -223 338 -334 376 -373 414 -415 21 -24 66 -72 100 -108 33 -36
70 -76 81 -89 20 -23 20 -38 20 -770 0 -712 1 -748 19 -781 10 -19 67 -84 125
-144 128 -133 1049 -1055 1176 -1178 83 -80 231 -231 506 -514 59 -61 114
-124 123 -142 24 -46 25 -104 28 -1405 l3 -1158 35 -8 c19 -5 50 -13 69 -16
25 -5 59 -31 118 -88 46 -44 83 -87 83 -94 0 -7 9 -21 20 -30 11 -10 20 -23
20 -31 0 -7 8 -25 18 -39 15 -24 17 -53 17 -228 -1 -185 -3 -203 -22 -240 -21
-39 -167 -186 -253 -255 -71 -56 -87 -60 -264 -60 -207 0 -278 11 -315 49 -16
16 -37 32 -48 35 -17 5 -73 58 -143 135 -8 9 -21 35 -29 58 -8 23 -19 44 -26
47 -24 9 -40 99 -39 217 0 108 17 209 34 209 4 0 18 21 30 48 43 93 165 232
230 264 19 9 51 20 70 23 60 11 68 15 74 39 3 12 6 495 8 1072 1 577 4 1112 8
1189 6 158 6 158 -68 235 -24 25 -64 70 -88 101 -24 30 -108 116 -186 190 -78
74 -149 142 -157 153 -48 57 -139 146 -149 146 -7 0 -12 4 -12 10 0 12 -325
340 -337 340 -7 0 -178 169 -434 430 -41 41 -119 118 -174 171 -156 149 -312
313 -329 348 -14 27 -17 94 -21 499 -3 257 -7 557 -9 667 -2 110 0 227 4 260
15 114 18 110 -502 626 -253 252 -475 471 -492 487 -75 70 -316 322 -316 331
0 5 -14 17 -32 26 -30 15 -33 15 -48 -3 -28 -35 -125 -100 -165 -111 -121 -34
-357 -21 -425 23 -19 13 -51 33 -71 44 -76 45 -182 180 -205 261 -9 31 -23 70
-31 86 -20 38 -31 165 -14 165 6 0 11 13 11 29 0 17 5 33 10 36 6 3 10 17 10
30 0 75 91 216 204 316 44 40 68 52 132 70 44 12 88 26 99 32 28 15 123 26
173 20 24 -2 58 -13 75 -23z m14661 -1909 c7 -6 40 -25 73 -41 74 -37 174
-128 228 -205 33 -48 42 -72 52 -139 27 -179 9 -297 -62 -412 -50 -80 -102
-129 -195 -183 -99 -58 -127 -64 -260 -59 -111 5 -122 7 -196 43 -102 50 -255
197 -272 260 -49 181 -51 233 -13 370 26 95 53 138 146 228 67 66 117 97 155
97 9 0 48 13 86 30 63 27 77 29 156 26 49 -2 94 -9 102 -15z m-20209 -1403
c30 -16 115 -30 302 -51 92 -11 145 -26 97 -28 -32 -1 33 -17 164 -41 68 -12
130 -27 138 -35 7 -7 66 -25 131 -40 72 -16 125 -33 135 -44 10 -10 40 -20 73
-24 30 -4 55 -11 55 -15 0 -4 15 -11 34 -14 19 -4 39 -13 46 -20 11 -14 25
-17 133 -31 31 -4 47 -11 47 -20 0 -20 38 -42 85 -50 22 -3 55 -8 73 -11 19
-3 32 -11 32 -19 0 -8 5 -15 10 -15 6 0 10 5 10 10 0 6 5 10 11 10 8 0 7 -5
-2 -16 -17 -20 -1 -31 60 -40 24 -4 51 -15 59 -25 9 -11 22 -19 29 -19 7 0 13
-4 13 -9 0 -5 25 -15 56 -22 31 -7 63 -19 71 -28 19 -18 79 -51 94 -51 6 0 29
-13 52 -29 23 -15 70 -46 104 -67 34 -22 83 -52 108 -69 26 -16 59 -36 73 -44
15 -8 29 -17 32 -20 12 -14 79 -61 88 -61 5 0 22 -12 39 -27 16 -16 68 -61
114 -100 97 -82 369 -359 369 -376 0 -6 10 -21 21 -33 12 -13 19 -30 16 -38
-9 -23 -50 -20 -65 4 -9 15 -23 20 -56 20 -26 0 -48 6 -56 15 -7 8 -21 15 -31
15 -11 0 -27 8 -38 19 -11 11 -41 21 -75 25 -39 5 -56 12 -56 22 0 8 -10 14
-25 14 -17 0 -23 4 -19 14 6 16 -8 22 -78 31 -34 5 -45 11 -41 21 3 8 -3 17
-13 21 -11 3 -23 12 -27 20 -4 7 -18 13 -31 13 -43 0 -86 12 -86 24 0 18 -87
52 -152 60 -32 4 -57 12 -55 17 3 13 -58 35 -148 54 -38 9 -72 19 -75 24 -3 5
-42 20 -88 35 -46 14 -102 35 -126 45 -23 11 -84 27 -136 36 -90 16 -129 28
-140 46 -3 5 -42 13 -85 20 -44 6 -109 22 -145 36 -36 13 -114 33 -175 43 -60
10 -153 30 -205 45 -68 19 -143 30 -265 40 -93 7 -142 13 -107 14 34 0 62 6
62 11 0 6 -3 10 -7 10 -5 0 -62 7 -128 16 -239 30 -992 25 -1066 -8 -36 -16
-37 -25 -1 -31 17 -2 9 -5 -23 -7 -27 -1 -63 -4 -80 -5 -16 -2 -58 -7 -92 -10
-41 -4 -75 -15 -105 -34 -45 -28 -194 -66 -221 -56 -8 4 -18 2 -22 -4 -3 -6 2
-11 12 -12 16 0 16 -1 -2 -9 -25 -10 -64 -2 -88 18 -9 8 -27 20 -39 26 -28 14
-40 58 -32 121 8 71 14 91 24 75 5 -8 12 9 20 46 19 96 29 120 75 180 46 59
165 171 213 201 15 9 36 24 47 34 11 9 47 26 80 39 33 12 68 30 77 40 17 18
114 40 176 40 18 0 32 4 32 9 0 12 46 29 110 40 30 5 172 9 315 8 217 -2 265
-5 290 -19z m-2643 -1189 c9 -11 19 -37 23 -58 4 -22 13 -45 21 -52 8 -6 14
-19 14 -29 0 -10 6 -23 14 -29 7 -6 16 -26 20 -43 14 -70 27 -108 36 -103 11
7 26 -47 40 -145 13 -91 30 -151 41 -144 18 11 24 -60 24 -276 0 -221 -6 -287
-25 -275 -17 10 -30 -42 -30 -118 -1 -93 -33 -247 -54 -259 -9 -5 -16 -19 -16
-32 0 -29 -48 -188 -59 -195 -4 -3 -14 -31 -20 -61 -12 -53 -48 -139 -63 -151
-5 -3 -13 -32 -19 -65 -7 -32 -17 -63 -23 -69 -22 -20 -43 -61 -55 -110 -7
-27 -17 -55 -23 -62 -17 -21 -48 -86 -48 -102 0 -8 -13 -37 -29 -65 -15 -28
-34 -69 -40 -91 -7 -22 -33 -83 -59 -135 -50 -106 -90 -192 -106 -230 -6 -14
-16 -33 -24 -42 -8 -9 -25 -45 -37 -80 -34 -92 -87 -214 -123 -285 -18 -34
-32 -74 -32 -87 0 -14 -8 -31 -19 -38 -10 -7 -30 -47 -45 -88 -15 -41 -33 -84
-41 -96 -7 -12 -26 -50 -40 -85 -15 -35 -33 -71 -40 -79 -7 -8 -17 -28 -21
-45 -8 -32 -42 -101 -61 -122 -6 -7 -14 -31 -18 -53 -4 -26 -19 -55 -41 -78
-25 -28 -35 -49 -40 -88 -5 -44 -9 -51 -25 -47 -15 4 -19 0 -19 -20 0 -14 -4
-28 -8 -31 -5 -3 -15 -30 -22 -61 -7 -30 -17 -55 -21 -55 -4 0 -21 -30 -38
-67 -18 -38 -36 -75 -41 -83 -5 -8 -39 -76 -75 -150 -36 -74 -72 -146 -79
-160 -25 -45 -116 -230 -116 -236 0 -3 -13 -26 -30 -50 -16 -25 -33 -57 -36
-72 -4 -15 -19 -54 -35 -87 -15 -33 -33 -94 -39 -136 -15 -93 -6 -128 49 -194
69 -84 122 -112 244 -130 27 -4 37 -10 34 -20 -4 -9 6 -16 31 -21 20 -4 341
-8 712 -9 371 -1 686 -5 700 -9 14 -4 32 -8 40 -10 8 -2 15 -11 15 -21 0 -14
14 -22 56 -34 57 -16 104 -47 165 -108 51 -51 82 -105 100 -175 9 -35 20 -70
24 -79 28 -53 28 -189 1 -234 -10 -16 -24 -47 -31 -68 -6 -20 -27 -59 -46 -87
-19 -27 -34 -52 -34 -55 0 -14 -97 -96 -124 -105 -17 -5 -53 -16 -81 -25 -76
-23 -85 -32 -44 -43 27 -8 12 -10 -76 -10 -60 1 -100 3 -87 5 36 7 26 19 -35
44 -44 17 -76 41 -133 100 -55 56 -84 79 -110 84 -19 4 -46 17 -60 30 -14 12
-36 25 -50 28 -14 3 -173 6 -355 8 -436 2 -746 16 -810 36 -27 8 -95 19 -150
24 -112 11 -153 22 -207 56 -21 12 -49 23 -63 23 -14 0 -25 4 -25 9 0 7 -95
71 -107 71 -19 0 -173 182 -192 228 -7 17 -17 32 -22 32 -10 0 -25 53 -46 163
-18 98 -18 91 -4 197 24 171 44 272 52 259 10 -16 11 -14 40 99 11 46 31 99
44 118 13 19 26 48 30 64 4 16 11 32 16 35 5 4 9 14 9 24 0 10 8 29 18 42 11
13 22 37 26 53 4 15 14 35 21 43 8 8 15 22 15 32 0 10 9 26 19 35 11 10 23 31
26 47 4 16 11 31 16 34 5 4 9 15 9 27 0 11 8 22 19 25 13 3 22 17 26 44 4 21
11 41 16 45 5 3 9 17 9 31 0 16 7 27 19 30 12 3 26 23 36 51 9 26 26 65 37 87
11 22 32 63 46 90 14 28 28 52 32 55 3 3 34 64 68 135 35 72 70 141 78 155 8
14 45 86 82 160 38 74 73 144 80 155 6 11 26 52 44 90 18 39 36 73 41 76 5 3
11 25 14 48 4 29 10 41 19 37 8 -3 17 8 24 29 6 18 18 39 26 45 7 7 14 28 14
46 0 21 5 33 12 31 6 -1 14 6 16 16 2 11 24 58 49 105 24 47 54 111 65 141 12
31 29 67 38 81 9 14 24 46 32 71 9 25 30 65 47 89 17 24 31 52 31 63 0 10 13
45 29 76 16 31 39 76 50 101 12 25 29 59 39 75 10 17 22 44 26 60 8 31 50 125
117 258 21 43 39 82 39 88 0 6 20 52 45 103 25 52 45 99 45 105 0 7 9 21 20
33 11 12 20 30 20 39 0 10 18 53 40 96 22 44 43 95 46 114 4 19 13 38 21 42 7
4 13 15 13 23 0 8 9 31 20 51 11 21 20 52 20 69 0 17 8 38 18 48 18 15 25 34
54 139 6 23 20 56 30 73 10 18 23 54 28 80 6 27 15 74 21 104 6 30 17 62 24
70 16 19 28 64 56 217 12 67 26 120 30 117 5 -3 10 5 11 18 1 13 3 37 4 53 1
17 3 84 3 150 1 66 4 184 7 262 l7 142 31 -6 c17 -3 38 -14 48 -24z m1821
-715 c12 -3 47 -35 77 -70 63 -74 145 -140 167 -136 8 2 12 -1 9 -6 -4 -7 84
-72 99 -72 2 0 16 -11 31 -25 14 -13 44 -32 65 -42 21 -10 39 -22 39 -28 0
-16 61 -52 100 -60 19 -4 40 -15 47 -25 15 -22 70 -37 163 -45 53 -5 88 -15
119 -32 61 -36 155 -42 526 -37 309 4 417 15 435 44 4 6 61 17 127 24 120 13
149 23 187 57 23 22 114 27 134 7 14 -14 16 -58 3 -58 -4 0 -26 -18 -47 -40
-22 -23 -83 -68 -136 -101 -54 -34 -98 -66 -98 -72 0 -7 -15 -18 -32 -25 -93
-38 -110 -47 -118 -62 -5 -10 -22 -20 -37 -23 -16 -3 -39 -15 -53 -27 -32 -28
-67 -46 -105 -54 -17 -4 -47 -22 -68 -41 -21 -19 -46 -35 -56 -35 -38 0 -80
-13 -98 -30 -11 -9 -50 -23 -88 -30 -99 -18 -168 -38 -176 -51 -12 -20 -139
-28 -389 -23 -242 4 -300 9 -299 29 0 10 -33 20 -106 30 -78 11 -140 28 -184
52 -24 12 -50 23 -58 23 -50 0 -245 163 -330 275 -37 48 -54 84 -69 143 -8 31
-22 64 -31 74 -36 40 -25 248 13 248 7 0 16 17 19 38 11 61 28 105 50 132 12
14 29 37 38 52 16 26 60 40 95 31 8 -2 24 -6 35 -9z m22986 -433 c30 -4 59
-14 65 -22 6 -8 34 -29 61 -46 56 -36 95 -72 141 -129 31 -39 74 -119 74 -138
0 -5 8 -18 18 -29 14 -16 17 -40 17 -162 0 -122 -3 -146 -17 -162 -10 -11 -18
-24 -18 -29 0 -29 -79 -147 -125 -185 -65 -56 -113 -89 -127 -89 -22 0 -68
-21 -68 -31 0 -16 -105 -39 -174 -39 -54 0 -86 7 -131 26 -33 14 -82 33 -109
41 -38 12 -66 33 -125 92 -153 153 -198 291 -154 475 9 39 20 73 23 76 3 3 14
23 24 45 10 22 25 55 34 74 22 44 117 148 144 157 11 3 41 20 66 37 26 18 66
34 92 38 64 9 225 9 289 0z m-13968 -1137 c9 -8 45 -22 78 -30 90 -20 134 -47
216 -127 68 -67 125 -158 125 -199 0 -8 8 -23 18 -34 9 -10 18 -28 20 -39 1
-11 5 -41 8 -66 8 -60 -4 -199 -18 -196 -5 1 -20 -25 -32 -58 -13 -33 -28 -72
-34 -87 -19 -46 -152 -172 -210 -198 -30 -13 -58 -32 -63 -41 -9 -17 -63 -33
-159 -45 -82 -10 -136 -9 -229 6 -73 12 -89 18 -128 52 -24 21 -53 38 -64 38
-33 0 -509 -467 -642 -628 l-27 -34 0 -1579 c0 -1340 -2 -1584 -14 -1607 -15
-29 -272 -284 -571 -567 -99 -93 -245 -234 -325 -312 -80 -78 -158 -146 -172
-152 -14 -5 -42 -30 -62 -54 -36 -44 -37 -46 -35 -128 1 -120 -17 -211 -51
-255 -16 -19 -34 -52 -41 -72 -6 -20 -26 -53 -44 -72 -18 -19 -35 -42 -38 -51
-3 -9 -27 -25 -54 -35 -26 -9 -57 -28 -68 -40 -29 -33 -91 -45 -235 -45 -180
0 -310 24 -310 56 0 6 -15 16 -32 23 -38 14 -124 92 -133 121 -3 11 -12 21
-19 24 -16 7 -48 73 -71 149 -10 32 -21 55 -26 52 -15 -9 -21 42 -17 151 2 67
7 108 15 113 12 7 43 86 43 110 0 18 61 110 97 147 38 39 120 107 147 121 11
6 38 14 59 18 20 4 37 11 37 16 0 5 14 17 31 26 26 13 56 15 160 12 114 -3
130 -5 151 -25 13 -12 46 -29 75 -38 39 -13 66 -31 107 -75 31 -32 56 -63 56
-69 0 -21 26 -11 56 20 16 17 107 101 202 186 188 169 751 723 775 763 18 31
18 25 20 1075 2 808 -7 1738 -19 1960 l-6 111 108 114 c104 112 347 362 509
525 44 45 99 96 122 115 58 47 64 82 27 157 -23 48 -28 71 -28 133 0 41 6 84
12 96 6 12 20 55 32 97 19 71 35 102 111 200 24 31 107 95 154 119 17 9 50 18
75 22 25 4 59 15 75 26 25 17 47 20 134 20 81 0 108 -4 122 -16z m11457 -753
c15 -11 59 -24 97 -30 59 -9 74 -15 96 -41 14 -16 32 -30 40 -30 26 0 159
-146 159 -174 0 -3 12 -31 28 -63 25 -54 27 -67 27 -189 0 -103 -3 -136 -15
-150 -8 -11 -29 -45 -45 -78 -41 -80 -158 -185 -278 -248 -38 -20 -56 -23
-182 -22 -152 0 -128 -6 -281 72 -72 37 -174 162 -196 239 -7 26 -12 32 -18
23 -14 -22 -24 55 -25 180 l0 115 44 90 c32 65 60 105 99 143 30 28 58 52 62
52 4 0 25 18 47 39 37 36 44 39 116 46 45 4 80 13 85 20 16 29 103 32 140 6z
m-11891 -1952 c37 -12 85 -70 102 -121 7 -20 19 -42 27 -48 7 -7 14 -20 14
-30 0 -10 7 -23 15 -30 8 -7 15 -17 15 -23 0 -16 95 -205 137 -273 21 -33 52
-83 68 -110 64 -104 194 -217 287 -250 22 -7 53 -25 69 -38 35 -30 125 -40
303 -34 114 4 127 6 162 30 22 15 59 32 84 38 25 7 65 28 90 47 81 64 241 236
297 320 57 86 83 103 155 103 38 0 42 -21 36 -215 -4 -124 -9 -167 -20 -178
-8 -8 -24 -62 -36 -120 -27 -126 -69 -213 -151 -307 -67 -78 -191 -200 -202
-200 -5 0 -16 -8 -26 -18 -10 -10 -38 -26 -63 -36 -47 -19 -55 -23 -105 -56
-55 -36 -125 -43 -355 -36 -220 7 -327 22 -354 48 -8 8 -36 21 -63 28 -26 8
-51 19 -55 26 -5 7 -16 10 -27 7 -12 -3 -20 2 -23 15 -4 12 -18 22 -39 26 -19
3 -45 18 -58 32 -13 14 -30 23 -38 20 -8 -3 -12 -2 -9 3 3 5 -17 23 -44 41
-28 18 -50 36 -50 41 0 5 -12 15 -27 22 -15 6 -41 25 -58 40 -82 77 -113 111
-126 135 -7 15 -25 45 -40 67 -14 22 -39 65 -54 95 -15 30 -32 58 -36 61 -5 3
-20 43 -33 90 -13 46 -31 98 -40 114 -24 45 -21 184 5 255 11 30 29 99 39 154
10 54 23 101 28 105 5 3 23 40 39 81 23 57 36 76 54 81 37 11 73 10 106 -2z
m10943 -694 c13 -14 29 -25 36 -25 75 0 207 -99 281 -211 42 -63 47 -77 61
-175 12 -89 13 -120 2 -190 -6 -46 -20 -98 -29 -116 -76 -144 -115 -188 -214
-242 -32 -17 -75 -40 -95 -50 -40 -22 -200 -34 -295 -22 -72 9 -177 77 -274
178 -78 81 -87 96 -97 173 -4 28 -13 68 -21 90 -28 79 -26 123 11 220 19 50
34 95 34 101 0 7 11 22 25 35 13 13 25 30 25 37 0 21 63 92 82 92 10 0 23 9
30 20 7 11 18 20 24 20 7 0 45 17 85 37 83 41 121 50 230 52 68 1 78 -1 99
-24z m-10604 -1897 l46 -21 -7 -46 c-4 -25 -11 -49 -17 -52 -5 -3 -14 -55 -19
-115 -5 -60 -14 -161 -20 -224 -6 -63 -13 -169 -16 -235 -3 -66 -9 -124 -14
-130 -5 -5 -9 0 -9 13 0 12 -4 22 -10 22 -10 0 -11 -5 -16 -130 -3 -76 -17
-173 -36 -245 -9 -34 -12 -37 -19 -20 -6 16 -8 12 -8 -17 -1 -20 -6 -60 -12
-90 -6 -29 -15 -78 -21 -108 -5 -30 -15 -66 -20 -80 -10 -23 -11 -24 -18 -5
-5 14 -9 3 -13 -35 -9 -72 -25 -126 -42 -143 -17 -18 -45 -84 -45 -107 0 -10
-15 -38 -33 -62 -17 -24 -38 -65 -45 -93 -7 -27 -19 -57 -26 -65 -6 -8 -22
-37 -35 -65 -12 -27 -26 -57 -31 -65 -97 -166 -256 -405 -323 -486 -99 -119
-228 -257 -390 -417 -230 -227 -376 -357 -522 -466 -60 -45 -127 -95 -147
-111 -20 -16 -72 -53 -115 -82 -43 -29 -112 -78 -153 -108 -41 -30 -91 -63
-110 -73 -19 -9 -53 -31 -75 -47 -22 -16 -48 -29 -57 -30 -9 0 -20 -5 -24 -11
-3 -6 -21 -17 -38 -25 -52 -24 -100 -55 -116 -74 -8 -10 -35 -24 -60 -30 -25
-6 -56 -22 -70 -35 -28 -26 -70 -45 -102 -45 -12 0 -42 -13 -67 -28 -25 -16
-66 -35 -91 -42 -25 -7 -60 -24 -78 -37 -18 -13 -54 -28 -80 -32 -58 -10 -102
-27 -102 -40 0 -11 -36 -22 -132 -41 -56 -11 -93 -33 -83 -49 2 -5 -41 -14
-98 -20 -134 -15 -146 -19 -140 -41 4 -15 -6 -19 -74 -28 -43 -6 -117 -14
-165 -18 -88 -6 -108 -16 -65 -30 18 -6 10 -10 -38 -20 -33 -7 -87 -13 -121
-13 -80 -1 -226 -21 -238 -32 -6 -5 0 -9 16 -9 15 0 29 -4 32 -8 6 -9 -262
-32 -389 -33 -107 0 -176 -12 -187 -33 -10 -18 -92 -23 -118 -6 -12 8 -10 14
15 38 17 16 38 31 48 35 9 3 17 15 17 25 0 31 22 41 111 53 93 12 119 22 119
44 0 8 1 15 3 15 1 0 39 6 84 14 63 10 90 20 120 43 22 18 57 34 82 38 28 5
55 17 71 34 18 18 47 30 88 39 41 9 65 19 72 32 6 12 29 23 64 30 30 6 74 24
98 40 24 16 62 32 86 36 32 5 46 13 59 35 10 17 29 31 47 34 87 18 106 26 106
45 0 14 11 22 38 29 20 6 42 11 49 11 6 0 27 13 45 30 18 16 56 37 86 45 29 9
55 22 58 29 3 7 32 26 64 41 33 16 60 32 60 36 0 9 67 49 83 49 7 0 24 10 39
23 15 13 46 30 69 37 22 8 48 24 56 37 9 13 21 23 27 23 20 0 99 41 129 66 16
13 33 24 38 24 5 0 32 16 59 35 27 19 54 35 58 35 5 0 33 18 62 40 29 22 58
40 63 40 13 0 130 83 197 140 30 26 80 63 110 83 30 20 74 51 97 69 23 18 104
81 180 139 106 82 210 179 444 415 173 175 327 339 355 379 27 39 66 93 87
120 181 235 248 330 276 390 18 39 51 93 72 121 22 28 39 54 39 58 0 5 9 20
20 35 10 15 34 57 53 92 19 35 41 78 50 94 9 17 22 44 30 60 8 17 25 50 39 75
14 25 28 57 32 73 3 15 10 27 15 27 5 0 19 24 30 54 11 30 38 88 60 130 23 42
41 84 41 94 0 9 11 34 25 54 24 35 41 87 52 156 4 22 10 32 21 30 11 -2 20 15
33 67 10 39 19 82 19 97 0 31 17 47 26 24 10 -25 24 -18 24 12 0 15 7 62 15
105 8 43 15 82 16 85 0 4 5 -4 10 -18 15 -37 25 -12 43 105 18 124 33 135 122
93z m12119 -289 c22 -6 48 -20 59 -31 10 -11 39 -28 64 -39 47 -21 152 -122
152 -147 0 -5 11 -23 24 -40 45 -61 65 -236 42 -367 -20 -111 -23 -122 -40
-128 -8 -3 -25 -30 -39 -59 -14 -29 -34 -58 -45 -65 -11 -6 -44 -32 -75 -57
-30 -24 -73 -50 -96 -57 -23 -7 -41 -15 -41 -19 0 -13 -76 -39 -120 -41 -134
-5 -187 1 -223 25 -19 13 -50 27 -68 31 -43 9 -72 30 -144 102 -66 67 -94 108
-119 178 -11 28 -24 56 -30 64 -18 23 -21 207 -4 233 8 13 28 61 43 108 26 80
33 90 109 165 104 104 143 134 180 140 17 2 42 6 56 8 57 9 278 6 315 -4z
m-9922 -2172 c62 -62 151 -149 198 -193 95 -88 109 -108 108 -150 -1 -16 -3
-1143 -5 -2504 -2 -1361 -6 -2487 -8 -2501 -5 -26 -27 -39 -72 -39 -11 0 -36
-13 -54 -30 -18 -16 -42 -30 -51 -30 -41 0 -101 -40 -210 -140 -91 -84 -112
-96 -129 -75 -10 12 -9 35 6 112 16 93 18 250 19 2853 1 2081 4 2762 13 2783
9 21 18 27 42 27 27 0 49 -17 143 -113z m2990 -106 c71 -10 84 -15 150 -65 76
-56 147 -127 147 -147 0 -6 6 -9 14 -6 18 7 26 -13 26 -65 0 -38 1 -40 25 -34
35 9 40 -18 40 -195 0 -153 -11 -202 -44 -197 -11 2 -17 -6 -19 -22 -7 -66
-14 -90 -27 -90 -7 0 -29 -18 -47 -40 -19 -22 -52 -51 -74 -66 -21 -15 -43
-32 -49 -39 -23 -29 -90 -40 -250 -40 -147 0 -164 2 -208 24 -54 26 -161 126
-199 186 -13 22 -33 54 -44 70 -17 27 -19 50 -19 208 0 174 1 179 23 197 12
10 33 43 46 72 45 100 209 225 325 248 31 6 61 13 66 15 6 2 17 2 25 0 8 -2
50 -9 93 -14z m5940 -1214 c7 -8 30 -20 52 -27 22 -7 57 -24 77 -37 48 -30
165 -145 178 -175 6 -13 21 -37 33 -54 17 -22 27 -58 36 -120 7 -49 14 -98 16
-108 5 -23 -31 -199 -45 -226 -6 -11 -14 -20 -18 -20 -4 0 -20 -23 -35 -50
-16 -28 -31 -50 -35 -50 -4 0 -16 -14 -26 -31 -12 -20 -40 -41 -83 -61 -36
-17 -67 -37 -70 -44 -6 -16 -76 -31 -180 -39 -104 -8 -239 11 -265 37 -10 10
-43 30 -74 45 -63 30 -136 106 -166 173 -29 66 -59 206 -60 277 0 82 50 226
110 313 60 88 138 160 173 160 37 0 59 9 59 25 0 23 72 34 193 31 89 -3 121
-8 130 -19z m-3748 -3185 c17 -10 50 -25 75 -34 51 -17 177 -139 212 -205 11
-21 26 -45 33 -53 13 -15 29 -86 39 -175 9 -76 -17 -203 -52 -256 -16 -24 -33
-55 -37 -69 -4 -14 -29 -45 -54 -71 -25 -25 -52 -53 -59 -62 -6 -9 -31 -21
-53 -27 -78 -21 -92 -29 -80 -44 17 -21 -16 -26 -169 -26 -143 0 -180 5 -180
24 0 12 -37 30 -84 40 -41 10 -183 158 -215 226 -25 53 -26 63 -26 225 l0 171
35 69 c39 78 153 205 200 225 41 17 273 58 335 59 32 1 61 -6 80 -17z m-4493
-1226 c20 -8 38 -19 40 -24 1 -5 28 -24 58 -44 90 -57 180 -158 180 -202 0 -6
12 -28 28 -50 26 -37 27 -46 30 -172 l4 -134 -31 -42 c-17 -23 -31 -51 -31
-62 0 -28 -28 -71 -86 -131 -93 -96 -119 -112 -197 -124 -124 -19 -142 -25
-141 -44 2 -15 -8 -17 -80 -17 -52 0 -76 4 -67 9 25 16 -5 39 -57 46 -72 10
-115 25 -142 51 -64 61 -77 74 -108 108 -28 31 -49 76 -79 169 -3 10 -11 16
-18 13 -18 -6 -29 205 -15 270 25 113 137 254 276 350 48 33 65 39 132 45 116
11 261 4 304 -15z m2423 -1334 c37 -19 110 -76 151 -119 18 -18 36 -33 42 -33
6 0 15 -19 19 -42 7 -33 13 -42 26 -40 22 4 31 -22 51 -137 20 -115 20 -174 0
-284 -14 -76 -20 -91 -45 -109 -16 -12 -29 -30 -29 -41 0 -25 -18 -57 -33 -57
-7 0 -30 -17 -52 -38 -51 -48 -101 -77 -167 -97 -28 -8 -55 -20 -58 -25 -4 -6
-50 -12 -106 -13 -89 -1 -105 1 -154 25 -30 15 -81 36 -112 48 -32 12 -58 26
-58 30 0 4 -22 25 -50 46 -27 21 -50 45 -50 54 0 9 -16 37 -35 62 -32 40 -37
56 -47 138 -17 137 0 267 49 368 45 94 103 166 163 200 25 14 54 33 65 43 43
37 111 48 260 42 95 -4 150 -11 170 -21z"/>
<path d="M12133 37863 c-34 -9 -61 -20 -60 -25 1 -5 -14 -11 -33 -12 -33 -3
-85 -26 -170 -77 -57 -34 -165 -135 -236 -220 -106 -128 -211 -325 -254 -482
-60 -216 -70 -262 -85 -426 -8 -95 -18 -178 -21 -183 -10 -15 -5 -363 6 -414
5 -27 14 -111 20 -186 6 -84 17 -163 30 -205 12 -37 28 -93 37 -123 17 -59 90
-255 104 -280 5 -8 29 -55 54 -105 54 -105 193 -304 297 -424 228 -263 551
-444 958 -538 90 -21 399 -24 495 -5 169 33 362 113 515 211 110 71 294 256
377 378 101 147 213 376 213 435 0 10 6 29 14 41 32 50 48 194 47 422 -1 242
-6 308 -28 375 -8 25 -17 59 -19 75 -16 108 -39 209 -65 288 -33 101 -139 324
-192 402 -114 170 -162 236 -209 286 -29 31 -73 79 -98 108 -89 103 -496 397
-692 499 -86 45 -217 93 -428 156 -148 45 -453 60 -577 29z m927 -1133 c36 -4
97 -18 135 -30 39 -12 95 -28 126 -36 51 -12 123 -50 266 -137 89 -55 269
-240 310 -321 9 -17 19 -33 23 -36 4 -3 24 -36 45 -75 20 -38 41 -74 45 -80 4
-5 12 -32 18 -60 6 -27 18 -80 27 -117 8 -37 15 -77 16 -90 1 -22 1 -22 8 2 6
19 9 10 14 -39 11 -102 8 -198 -7 -238 -8 -21 -26 -92 -40 -157 -29 -132 -77
-239 -153 -338 -86 -113 -282 -275 -408 -338 -27 -14 -57 -30 -65 -36 -24 -18
-77 -32 -210 -55 -69 -11 -131 -25 -137 -31 -20 -16 -152 -17 -218 -1 -33 7
-97 23 -142 33 -108 26 -260 98 -353 167 -230 172 -384 408 -419 641 -22 146
-10 533 17 551 5 3 23 49 41 101 18 52 36 99 41 105 4 5 23 36 40 69 57 104
119 183 209 268 101 94 251 189 339 213 31 9 64 20 73 25 9 4 45 15 80 24 102
25 181 29 279 16z"/>
<path d="M12915 36260 c-33 -5 -73 -16 -90 -24 -16 -9 -56 -25 -87 -36 -123
-45 -277 -198 -355 -352 -58 -116 -86 -215 -91 -327 -4 -92 12 -226 30 -246 4
-5 8 -17 8 -27 0 -40 62 -155 120 -221 34 -39 137 -120 180 -141 106 -53 164
-68 263 -70 l98 -1 34 40 c19 22 35 45 35 52 0 7 9 21 20 31 20 19 70 130 70
156 0 8 3 16 8 18 4 2 22 33 40 71 18 37 44 74 57 83 22 14 29 14 80 -1 31 -9
78 -31 103 -50 71 -53 121 -77 143 -70 21 7 129 140 129 160 0 7 15 44 32 82
l33 68 0 180 c0 149 -3 185 -16 205 -9 14 -21 41 -28 60 -14 42 -83 135 -131
177 -56 48 -127 88 -245 136 -107 44 -113 45 -245 50 -74 3 -162 2 -195 -3z"/>
<path d="M19957 19789 c-16 -6 -52 -26 -80 -45 -28 -19 -54 -34 -58 -34 -19 0
-34 -73 -34 -165 0 -123 6 -145 52 -196 85 -94 185 -130 279 -99 65 21 130 84
164 156 16 35 33 64 37 64 5 0 13 16 19 35 12 39 -3 106 -25 113 -6 2 -11 11
-11 21 0 26 -25 56 -93 108 -61 47 -63 48 -142 50 -44 1 -93 -2 -108 -8z"/>
<path d="M19826 27189 c-55 -9 -96 -34 -141 -88 -40 -47 -55 -93 -55 -167 0
-123 51 -216 150 -275 51 -30 61 -32 143 -31 84 0 89 2 141 39 62 44 123 118
137 166 14 49 11 154 -6 195 -20 46 -78 108 -125 132 -19 10 -64 21 -100 25
-36 3 -72 8 -80 9 -8 2 -37 0 -64 -5z"/>
<path d="M23619 18908 c-81 -39 -159 -131 -159 -186 0 -10 -5 -23 -10 -28 -42
-42 23 -234 103 -303 l48 -41 102 0 c56 0 119 5 141 11 45 12 136 93 136 120
0 10 6 22 14 26 19 11 46 95 46 142 0 94 -63 201 -127 217 -13 4 -23 9 -23 13
0 31 -220 54 -271 29z"/>
<path d="M13442 21790 c0 -14 2 -19 5 -12 2 6 2 18 0 25 -3 6 -5 1 -5 -13z"/>
<path d="M22490 20393 c-36 -7 -115 -68 -155 -120 -41 -54 -53 -127 -37 -217
9 -47 18 -67 40 -86 16 -14 32 -33 35 -43 4 -9 15 -20 24 -24 10 -4 40 -22 67
-40 45 -31 55 -34 120 -32 62 1 77 5 115 33 60 42 137 123 157 165 12 25 15
53 12 106 -6 96 -31 138 -134 224 -39 33 -159 49 -244 34z"/>
<path d="M19699 14846 c-72 -26 -173 -135 -154 -166 3 -6 -1 -10 -10 -10 -43
0 -45 -125 -3 -181 14 -19 30 -47 35 -64 7 -21 31 -45 83 -80 l74 -50 92 0
c81 0 97 3 121 23 15 12 45 34 66 48 43 28 61 64 73 139 6 43 8 46 16 26 13
-37 30 -11 26 40 -2 35 -7 44 -20 43 -11 -1 -18 5 -18 17 0 67 -82 172 -165
210 -48 22 -162 25 -216 5z"/>
<path d="M29585 34090 c17 -4 50 -8 75 -8 l45 0 -40 9 c-22 4 -56 8 -75 7
l-35 0 30 -8z"/>
<path d="M20430 30811 c-77 -25 -151 -83 -181 -142 -23 -45 -26 -182 -5 -240
29 -81 124 -166 190 -171 20 -1 36 -5 36 -9 0 -14 116 13 175 41 81 38 137
100 153 170 37 158 -12 278 -136 332 -50 22 -188 34 -232 19z"/>
<path d="M26151 6524 c0 -11 3 -14 6 -6 3 7 2 16 -1 19 -3 4 -6 -2 -5 -13z"/>
</g>
</svg>
